<svg id="mermaid-1607609116175" width="100%" xmlns="http://www.w3.org/2000/svg" xmlns:xlink="http://www.w3.org/1999/xlink" height="802" style="max-width: 802.13671875px;" viewBox="-20 -20 802.13671875 802"><style>#mermaid-1607609116175{font-family:"trebuchet ms",verdana,arial;font-size:16px;fill:#333;}#mermaid-1607609116175 .error-icon{fill:#552222;}#mermaid-1607609116175 .error-text{fill:#552222;stroke:#552222;}#mermaid-1607609116175 .edge-thickness-normal{stroke-width:2px;}#mermaid-1607609116175 .edge-thickness-thick{stroke-width:3.5px;}#mermaid-1607609116175 .edge-pattern-solid{stroke-dasharray:0;}#mermaid-1607609116175 .edge-pattern-dashed{stroke-dasharray:3;}#mermaid-1607609116175 .edge-pattern-dotted{stroke-dasharray:2;}#mermaid-1607609116175 .marker{fill:#333333;}#mermaid-1607609116175 .marker.cross{stroke:#333333;}#mermaid-1607609116175 svg{font-family:"trebuchet ms",verdana,arial;font-size:16px;}#mermaid-1607609116175 g.classGroup text{fill:#9370DB;fill:#131300;stroke:none;font-family:"trebuchet ms",verdana,arial;font-size:10px;}#mermaid-1607609116175 g.classGroup text .title{font-weight:bolder;}#mermaid-1607609116175 .classTitle{font-weight:bolder;}#mermaid-1607609116175 .node rect,#mermaid-1607609116175 .node circle,#mermaid-1607609116175 .node ellipse,#mermaid-1607609116175 .node polygon,#mermaid-1607609116175 .node path{fill:#ECECFF;stroke:#9370DB;stroke-width:1px;}#mermaid-1607609116175 .divider{stroke:#9370DB;stroke:1;}#mermaid-1607609116175 g.clickable{cursor:pointer;}#mermaid-1607609116175 g.classGroup rect{fill:#ECECFF;stroke:#9370DB;}#mermaid-1607609116175 g.classGroup line{stroke:#9370DB;stroke-width:1;}#mermaid-1607609116175 .classLabel .box{stroke:none;stroke-width:0;fill:#ECECFF;opacity:0.5;}#mermaid-1607609116175 .classLabel .label{fill:#9370DB;font-size:10px;}#mermaid-1607609116175 .relation{stroke:#333333;stroke-width:1;fill:none;}#mermaid-1607609116175 .dashed-line{stroke-dasharray:3;}#mermaid-1607609116175 #compositionStart,#mermaid-1607609116175 .composition{fill:#333333 !important;stroke:#333333 !important;stroke-width:1;}#mermaid-1607609116175 #compositionEnd,#mermaid-1607609116175 .composition{fill:#333333 !important;stroke:#333333 !important;stroke-width:1;}#mermaid-1607609116175 #dependencyStart,#mermaid-1607609116175 .dependency{fill:#333333 !important;stroke:#333333 !important;stroke-width:1;}#mermaid-1607609116175 #dependencyStart,#mermaid-1607609116175 .dependency{fill:#333333 !important;stroke:#333333 !important;stroke-width:1;}#mermaid-1607609116175 #extensionStart,#mermaid-1607609116175 .extension{fill:#333333 !important;stroke:#333333 !important;stroke-width:1;}#mermaid-1607609116175 #extensionEnd,#mermaid-1607609116175 .extension{fill:#333333 !important;stroke:#333333 !important;stroke-width:1;}#mermaid-1607609116175 #aggregationStart,#mermaid-1607609116175 .aggregation{fill:#ECECFF !important;stroke:#333333 !important;stroke-width:1;}#mermaid-1607609116175 #aggregationEnd,#mermaid-1607609116175 .aggregation{fill:#ECECFF !important;stroke:#333333 !important;stroke-width:1;}#mermaid-1607609116175 .edgeTerminals{font-size:11px;}#mermaid-1607609116175:root{--mermaid-font-family:"trebuchet ms",verdana,arial;}#mermaid-1607609116175 class{fill:apa;}</style><g></g><defs><marker id="extensionStart" class="extension" refX="0" refY="7" markerWidth="190" markerHeight="240" orient="auto"><path d="M 1,7 L18,13 V 1 Z"></path></marker></defs><defs><marker id="extensionEnd" refX="19" refY="7" markerWidth="20" markerHeight="28" orient="auto"><path d="M 1,1 V 13 L18,7 Z"></path></marker></defs><defs><marker id="compositionStart" class="extension" refX="0" refY="7" markerWidth="190" markerHeight="240" orient="auto"><path d="M 18,7 L9,13 L1,7 L9,1 Z"></path></marker></defs><defs><marker id="compositionEnd" refX="19" refY="7" markerWidth="20" markerHeight="28" orient="auto"><path d="M 18,7 L9,13 L1,7 L9,1 Z"></path></marker></defs><defs><marker id="aggregationStart" class="extension" refX="0" refY="7" markerWidth="190" markerHeight="240" orient="auto"><path d="M 18,7 L9,13 L1,7 L9,1 Z"></path></marker></defs><defs><marker id="aggregationEnd" refX="19" refY="7" markerWidth="20" markerHeight="28" orient="auto"><path d="M 18,7 L9,13 L1,7 L9,1 Z"></path></marker></defs><defs><marker id="dependencyStart" class="extension" refX="0" refY="7" markerWidth="190" markerHeight="240" orient="auto"><path d="M 5,7 L9,13 L1,7 L9,1 Z"></path></marker></defs><defs><marker id="dependencyEnd" refX="19" refY="7" markerWidth="20" markerHeight="28" orient="auto"><path d="M 18,7 L9,13 L14,7 L9,1 Z"></path></marker></defs><g id="classid-Sanity-0" class="classGroup" transform="translate(52.7890625,0 )"><rect x="0" y="0" width="107.171875" height="71" class=" "></rect><text y="15" x="0"><tspan x="20.0078125">«enumeration»</tspan><tspan class="title" dy="10" x="38.359375">Sanity</tspan></text><line x1="0" y1="31" y2="31" x2="107.171875"></line><text x="5" y="41" fill="white" class="classText"><tspan x="5">SANE</tspan><tspan x="5" dy="10">INSANE</tspan><tspan x="5" dy="10">NEUTRAL</tspan></text><line x1="0" y1="67" y2="67" x2="107.171875"></line><text x="5" y="82" fill="white" class="classText"></text></g><g id="classid-Card-1" class="classGroup" transform="translate(0,487 )"><rect x="0" y="0" width="258.734375" height="148" class=" "></rect><text y="15" x="0"><tspan x="105.796875">«abstract»</tspan><tspan class="title" dy="10" x="117.96875">Card</tspan></text><line x1="0" y1="31" y2="31" x2="258.734375"></line><text x="5" y="41" fill="white" class="classText"><tspan x="5">- name : string</tspan><tspan x="5" dy="10">- description : string</tspan><tspan x="5" dy="10">- value : int</tspan><tspan x="5" dy="10">- sanity : Sanity</tspan></text><line x1="0" y1="77" y2="77" x2="258.734375"></line><text x="5" y="92" fill="white" class="classText"><tspan x="5">+Card(_name : string, _description : string, _value : int)</tspan><tspan x="5" dy="10">+getDescrption()</tspan><tspan x="5" dy="10">+getName()</tspan><tspan x="5" dy="10">+getValue()</tspan><tspan x="5" dy="10">+hasInsane()</tspan><tspan x="5" dy="10">+effect(sanity : Sanity)</tspan></text></g><g id="classid-SaneCard-2" class="classGroup" transform="translate(381.46484375,685 )"><rect x="0" y="0" width="282.09375" height="77" class=" "></rect><text y="15" x="0"><tspan x="117.4765625">«abstract»</tspan><tspan class="title" dy="10" x="117.6953125">SaneCard</tspan></text><line x1="0" y1="31" y2="31" x2="282.09375"></line><text x="5" y="41" fill="white" class="classText"></text><line x1="0" y1="36" y2="36" x2="282.09375"></line><text x="5" y="51" fill="white" class="classText"><tspan x="5">+SaneCard(_name : string, _description : string, _value : int)</tspan><tspan x="5" dy="10">+effect(sanity : Sanity)</tspan><tspan x="5" dy="10">+hasInsane()</tspan></text></g><g id="classid-InsaneCard-3" class="classGroup" transform="translate(308.734375,522.5 )"><rect x="0" y="0" width="288.75" height="77" class=" "></rect><text y="15" x="0"><tspan x="120.8046875">«abstract»</tspan><tspan class="title" dy="10" x="117.1328125">InsaneCard</tspan></text><line x1="0" y1="31" y2="31" x2="288.75"></line><text x="5" y="41" fill="white" class="classText"></text><line x1="0" y1="36" y2="36" x2="288.75"></line><text x="5" y="51" fill="white" class="classText"><tspan x="5">+InsaneCard(_name : string, _description : string, _value : int)</tspan><tspan x="5" dy="10">+effect(sanity : Sanity)</tspan><tspan x="5" dy="10">+hasInsane()</tspan></text></g><g id="classid-SpecifiedCard-4" class="classGroup" transform="translate(462.26171875,349.5 )"><rect x="0" y="0" width="299.875" height="57" class=" "></rect><text y="15" x="0"><tspan class="title" x="116.3125">SpecifiedCard</tspan></text><line x1="0" y1="21" y2="21" x2="299.875"></line><text x="5" y="31" fill="white" class="classText"></text><line x1="0" y1="26" y2="26" x2="299.875"></line><text x="5" y="41" fill="white" class="classText"><tspan x="5">+SpecifiedCard(_name : string, _description : string, _value : int)</tspan><tspan x="5" dy="10">+effect(sanity : Sanity)</tspan></text></g><g id="classid-GameManager-5" class="classGroup" transform="translate(161.046875,121 )"><rect x="0" y="0" width="174.25" height="148" class=" "></rect><text y="15" x="0"><tspan class="title" x="52.609375">GameManager</tspan></text><line x1="0" y1="21" y2="21" x2="174.25"></line><text x="5" y="31" fill="white" class="classText"><tspan x="5">- roundNumber : int</tspan></text><line x1="0" y1="37" y2="37" x2="174.25"></line><text x="5" y="52" fill="white" class="classText"><tspan x="5">+GameManager(nbPlayer : int)</tspan><tspan x="5" dy="10">+isGameEnd()</tspan><tspan x="5" dy="10">+nextRound()</tspan><tspan x="5" dy="10">+play()</tspan><tspan x="5" dy="10">+chooseTargetPlayer(int : nbPlayer)</tspan><tspan x="5" dy="10">+sanityCheck()</tspan><tspan x="5" dy="10">+isGameEnd()</tspan><tspan x="5" dy="10">+isRoundEnd()</tspan><tspan x="5" dy="10">+startNewRound()</tspan><tspan x="5" dy="10">+getCurrentPlayer()</tspan></text></g><g id="classid-Player-6" class="classGroup" transform="translate(80.3046875,319 )"><rect x="0" y="0" width="98.125" height="118" class=" "></rect><text y="15" x="0"><tspan class="title" x="33.9921875">Player</tspan></text><line x1="0" y1="21" y2="21" x2="98.125"></line><text x="5" y="31" fill="white" class="classText"><tspan x="5">- saneToken : int</tspan><tspan x="5" dy="10">- insaneToken : int</tspan></text><line x1="0" y1="47" y2="47" x2="98.125"></line><text x="5" y="62" fill="white" class="classText"><tspan x="5">+updateToken()</tspan><tspan x="5" dy="10">+getHand()</tspan><tspan x="5" dy="10">+getDiscard()</tspan><tspan x="5" dy="10">+getSaneToken()</tspan><tspan x="5" dy="10">+getInsaneToken()</tspan><tspan x="5" dy="10">+roundWon()</tspan></text></g><g id="classid-Application-7" class="classGroup" transform="translate(209.9609375,12 )"><rect x="0" y="0" width="76.421875" height="47" class=" "></rect><text y="15" x="0"><tspan class="title" x="10.984375">Application</tspan></text><line x1="0" y1="21" y2="21" x2="76.421875"></line><text x="5" y="31" fill="white" class="classText"></text><line x1="0" y1="26" y2="26" x2="76.421875"></line><text x="5" y="41" fill="white" class="classText"><tspan x="5">+Application()</tspan></text></g><path d="M129.3671875,635L129.3671875,639.1666666666666C129.3671875,643.3333333333334,129.3671875,651.6666666666666,171.38346354166666,662.6197269279811C213.39973958333334,673.5727871892957,297.4322916666667,687.1455743785914,339.4485677083333,693.9319679732392L381.46484375,700.7183615678871" id="edge0" class="relation dashed-line" marker-start="url(#extensionStart)"></path><path d="M453.109375,599.5L453.109375,609.5833333333334C453.109375,619.6666666666666,453.109375,639.8333333333334,457.6633345636483,654.0833333333334C462.21729412729655,668.3333333333334,471.32521325459317,676.6666666666666,475.87917281824144,680.8333333333334L480.4331323818898,685" id="edge1" class="relation dashed-line" marker-start="url(#extensionStart)"></path><path d="M619.0816824776786,406.5L621.3154645647321,415.75C623.5492466517857,425,628.0168108258928,443.5,630.2505929129464,469.25C632.484375,495,632.484375,528,632.484375,561C632.484375,594,632.484375,627,625.2683214402887,647.6666666666666C618.0522678805775,668.3333333333334,603.6201607611548,676.6666666666666,596.4041072014435,680.8333333333334L589.1880536417323,685" id="edge2" class="relation dashed-line" marker-start="url(#extensionStart)"></path><path d="M558.2223074776786,406.5L540.7034853980655,415.75C523.1846633184524,425,488.14701915922615,443.5,470.6281970796131,462.8333333333333C453.109375,482.1666666666667,453.109375,502.3333333333333,453.109375,512.4166666666666L453.109375,522.5" id="edge3" class="relation dashed-line" marker-start="url(#extensionStart)"></path><path d="M122.34337797619048,437L121.84734623015873,441.1666666666667C121.35131448412699,445.3333333333333,120.3592509920635,453.6666666666667,120.28409466690717,462C120.20893834175085,470.3333333333333,121.05068918350169,478.6666666666667,121.47156460437712,482.8333333333333L121.89244002525253,487" id="edge4" class="relation"></path><g class="classLabel"><rect class="box" x="105.734375" y="450.46875" width="27.265625" height="16.015625"></rect><text class="label" x="119.37010242860688" y="461.97551459970214" fill="red" text-anchor="middle">hand</text></g><g class="cardinality"><text class="type1" x="115.90077548290186" y="448.8212889785112" fill="black" font-size="6">1</text></g><g class="cardinality"><text class="type2" x="125.61089214584165" y="474.06079160740944" fill="black" font-size="6">0..*</text></g><path d="M171.09026227678572,437L174.0368071056548,441.1666666666667C176.98335193452382,445.3333333333333,182.87644159226193,453.6666666666667,183.3228877784542,462C183.76933396464645,470.3333333333333,178.76913667929293,478.6666666666667,176.26903803661617,482.8333333333333L173.76893939393938,487" id="edge5" class="relation"></path><g class="classLabel"><rect class="box" x="169.71875" y="449.890625" width="37.25" height="16.015625"></rect><text class="label" x="188.34674642432512" y="461.40214605830784" fill="red" text-anchor="middle">discard</text></g><g class="cardinality"><text class="type1" x="174.22521615594314" y="450.09282491197206" fill="black" font-size="6">1</text></g><g class="cardinality"><text class="type2" x="184.48774276717225" y="478.8540037904519" fill="black" font-size="6">0..*</text></g><path d="M314.9978693181818,269L318.7605942234848,273.1666666666667C322.5233191287879,277.3333333333333,330.04876893939394,285.6666666666667,333.81149384469694,303.8333333333333C337.57421875,322,337.57421875,350,337.57421875,378C337.57421875,406,337.57421875,434,324.4342447916667,454.2479034164462C311.2942708333333,474.4958068328924,285.0143229166667,486.9916136657849,271.8743489583333,493.2395170822311L258.734375,499.48742049867735" id="edge6" class="relation"></path><g class="classLabel"><rect class="box" x="324.5" y="393.296875" width="27.140625" height="16.015625"></rect><text class="label" x="337.57421875" y="404.80665722883225" fill="red" text-anchor="middle">deck</text></g><g class="cardinality"><text class="type1" x="319.6647392563083" y="281.62815604039685" fill="black" font-size="6">1</text></g><g class="cardinality"><text class="type2" x="272.17028951791417" y="498.6352461812384" fill="black" font-size="6">0..*</text></g><path d="M161.046875,261.9647601140292L154.10026041666666,267.303966761691C147.15364583333334,272.6431734093528,133.26041666666666,283.3215867046764,126.80983382936508,292.82746001900483C120.3592509920635,302.3333333333333,121.35131448412699,310.6666666666667,121.84734623015873,314.8333333333333L122.34337797619048,319" id="edge7" class="relation"></path><g class="cardinality"><text class="type1" x="148.08908498856937" y="265.61793380544714" fill="black" font-size="6">1</text></g><g class="cardinality"><text class="type2" x="125.83065822485129" y="305.9965821236376" fill="black" font-size="6">2..6</text></g><path d="M203.77012310606062,269L201.27002446338383,273.1666666666667C198.76992582070707,277.3333333333333,193.76972853535355,285.6666666666667,188.32308506380772,294C182.87644159226193,302.3333333333333,176.98335193452382,310.6666666666667,174.0368071056548,314.8333333333333L171.09026227678572,319" id="edge8" class="relation"></path><g class="classLabel"><rect class="box" x="169.171875" y="283.09375" width="38.578125" height="16.015625"></rect><text class="label" x="188.34674642432515" y="294.59785394169216" fill="red" text-anchor="middle">Current</text></g><g class="cardinality"><text class="type1" x="193.05131973282775" y="277.1459962095481" fill="black" font-size="6">1</text></g><g class="cardinality"><text class="type2" x="182.38993571477698" y="311.68102601488744" fill="black" font-size="6">1</text></g><path d="M248.171875,59L248.171875,65.16666666666667C248.171875,71.33333333333333,248.171875,83.66666666666667,248.171875,94C248.171875,104.33333333333333,248.171875,112.66666666666667,248.171875,116.83333333333333L248.171875,121" id="edge9" class="relation"></path><g class="cardinality"><text class="type1" x="243.171875" y="71.5" fill="black" font-size="6">1</text></g><g class="cardinality"><text class="type2" x="253.171875" y="108.5" fill="black" font-size="6">1</text></g></svg>