<svg id="mermaid-1607615784830" width="100%" xmlns="http://www.w3.org/2000/svg" xmlns:xlink="http://www.w3.org/1999/xlink" height="822" style="max-width: 846.33984375px;" viewBox="-20 -20 846.33984375 822"><style>#mermaid-1607615784830{font-family:"trebuchet ms",verdana,arial;font-size:16px;fill:#333;}#mermaid-1607615784830 .error-icon{fill:#552222;}#mermaid-1607615784830 .error-text{fill:#552222;stroke:#552222;}#mermaid-1607615784830 .edge-thickness-normal{stroke-width:2px;}#mermaid-1607615784830 .edge-thickness-thick{stroke-width:3.5px;}#mermaid-1607615784830 .edge-pattern-solid{stroke-dasharray:0;}#mermaid-1607615784830 .edge-pattern-dashed{stroke-dasharray:3;}#mermaid-1607615784830 .edge-pattern-dotted{stroke-dasharray:2;}#mermaid-1607615784830 .marker{fill:#333333;}#mermaid-1607615784830 .marker.cross{stroke:#333333;}#mermaid-1607615784830 svg{font-family:"trebuchet ms",verdana,arial;font-size:16px;}#mermaid-1607615784830 g.classGroup text{fill:#9370DB;fill:#131300;stroke:none;font-family:"trebuchet ms",verdana,arial;font-size:10px;}#mermaid-1607615784830 g.classGroup text .title{font-weight:bolder;}#mermaid-1607615784830 .classTitle{font-weight:bolder;}#mermaid-1607615784830 .node rect,#mermaid-1607615784830 .node circle,#mermaid-1607615784830 .node ellipse,#mermaid-1607615784830 .node polygon,#mermaid-1607615784830 .node path{fill:#ECECFF;stroke:#9370DB;stroke-width:1px;}#mermaid-1607615784830 .divider{stroke:#9370DB;stroke:1;}#mermaid-1607615784830 g.clickable{cursor:pointer;}#mermaid-1607615784830 g.classGroup rect{fill:#ECECFF;stroke:#9370DB;}#mermaid-1607615784830 g.classGroup line{stroke:#9370DB;stroke-width:1;}#mermaid-1607615784830 .classLabel .box{stroke:none;stroke-width:0;fill:#ECECFF;opacity:0.5;}#mermaid-1607615784830 .classLabel .label{fill:#9370DB;font-size:10px;}#mermaid-1607615784830 .relation{stroke:#333333;stroke-width:1;fill:none;}#mermaid-1607615784830 .dashed-line{stroke-dasharray:3;}#mermaid-1607615784830 #compositionStart,#mermaid-1607615784830 .composition{fill:#333333 !important;stroke:#333333 !important;stroke-width:1;}#mermaid-1607615784830 #compositionEnd,#mermaid-1607615784830 .composition{fill:#333333 !important;stroke:#333333 !important;stroke-width:1;}#mermaid-1607615784830 #dependencyStart,#mermaid-1607615784830 .dependency{fill:#333333 !important;stroke:#333333 !important;stroke-width:1;}#mermaid-1607615784830 #dependencyStart,#mermaid-1607615784830 .dependency{fill:#333333 !important;stroke:#333333 !important;stroke-width:1;}#mermaid-1607615784830 #extensionStart,#mermaid-1607615784830 .extension{fill:#333333 !important;stroke:#333333 !important;stroke-width:1;}#mermaid-1607615784830 #extensionEnd,#mermaid-1607615784830 .extension{fill:#333333 !important;stroke:#333333 !important;stroke-width:1;}#mermaid-1607615784830 #aggregationStart,#mermaid-1607615784830 .aggregation{fill:#ECECFF !important;stroke:#333333 !important;stroke-width:1;}#mermaid-1607615784830 #aggregationEnd,#mermaid-1607615784830 .aggregation{fill:#ECECFF !important;stroke:#333333 !important;stroke-width:1;}#mermaid-1607615784830 .edgeTerminals{font-size:11px;}#mermaid-1607615784830:root{--mermaid-font-family:"trebuchet ms",verdana,arial;}#mermaid-1607615784830 class{fill:apa;}</style><g></g><defs><marker id="extensionStart" class="extension" refX="0" refY="7" markerWidth="190" markerHeight="240" orient="auto"><path d="M 1,7 L18,13 V 1 Z"></path></marker></defs><defs><marker id="extensionEnd" refX="19" refY="7" markerWidth="20" markerHeight="28" orient="auto"><path d="M 1,1 V 13 L18,7 Z"></path></marker></defs><defs><marker id="compositionStart" class="extension" refX="0" refY="7" markerWidth="190" markerHeight="240" orient="auto"><path d="M 18,7 L9,13 L1,7 L9,1 Z"></path></marker></defs><defs><marker id="compositionEnd" refX="19" refY="7" markerWidth="20" markerHeight="28" orient="auto"><path d="M 18,7 L9,13 L1,7 L9,1 Z"></path></marker></defs><defs><marker id="aggregationStart" class="extension" refX="0" refY="7" markerWidth="190" markerHeight="240" orient="auto"><path d="M 18,7 L9,13 L1,7 L9,1 Z"></path></marker></defs><defs><marker id="aggregationEnd" refX="19" refY="7" markerWidth="20" markerHeight="28" orient="auto"><path d="M 18,7 L9,13 L1,7 L9,1 Z"></path></marker></defs><defs><marker id="dependencyStart" class="extension" refX="0" refY="7" markerWidth="190" markerHeight="240" orient="auto"><path d="M 5,7 L9,13 L1,7 L9,1 Z"></path></marker></defs><defs><marker id="dependencyEnd" refX="19" refY="7" markerWidth="20" markerHeight="28" orient="auto"><path d="M 18,7 L9,13 L14,7 L9,1 Z"></path></marker></defs><g id="classid-Sanity-0" class="classGroup" transform="translate(0,0 )"><rect x="0" y="0" width="107.171875" height="71" class=" "></rect><text y="15" x="0"><tspan x="20.0078125">«enumeration»</tspan><tspan class="title" dy="10" x="38.359375">Sanity</tspan></text><line x1="0" y1="31" y2="31" x2="107.171875"></line><text x="5" y="41" fill="white" class="classText"><tspan x="5">SANE</tspan><tspan x="5" dy="10">INSANE</tspan><tspan x="5" dy="10">NEUTRAL</tspan></text><line x1="0" y1="67" y2="67" x2="107.171875"></line><text x="5" y="82" fill="white" class="classText"></text></g><g id="classid-Card-1" class="classGroup" transform="translate(44.203125,507 )"><rect x="0" y="0" width="258.734375" height="148" class=" "></rect><text y="15" x="0"><tspan x="105.796875">«abstract»</tspan><tspan class="title" dy="10" x="117.96875">Card</tspan></text><line x1="0" y1="31" y2="31" x2="258.734375"></line><text x="5" y="41" fill="white" class="classText"><tspan x="5">- name : string</tspan><tspan x="5" dy="10">- description : string</tspan><tspan x="5" dy="10">- value : int</tspan><tspan x="5" dy="10">- sanity : Sanity</tspan></text><line x1="0" y1="77" y2="77" x2="258.734375"></line><text x="5" y="92" fill="white" class="classText"><tspan x="5">+Card(_name : string, _description : string, _value : int)</tspan><tspan x="5" dy="10">+getDescrption()</tspan><tspan x="5" dy="10">+getName()</tspan><tspan x="5" dy="10">+getValue()</tspan><tspan x="5" dy="10">+hasInsane()</tspan><tspan x="5" dy="10">+effect(sanity : Sanity)</tspan></text></g><g id="classid-SaneCard-2" class="classGroup" transform="translate(425.66796875,705 )"><rect x="0" y="0" width="282.09375" height="77" class=" "></rect><text y="15" x="0"><tspan x="117.4765625">«abstract»</tspan><tspan class="title" dy="10" x="117.6953125">SaneCard</tspan></text><line x1="0" y1="31" y2="31" x2="282.09375"></line><text x="5" y="41" fill="white" class="classText"></text><line x1="0" y1="36" y2="36" x2="282.09375"></line><text x="5" y="51" fill="white" class="classText"><tspan x="5">+SaneCard(_name : string, _description : string, _value : int)</tspan><tspan x="5" dy="10">+effect(sanity : Sanity)</tspan><tspan x="5" dy="10">+hasInsane()</tspan></text></g><g id="classid-InsaneCard-3" class="classGroup" transform="translate(352.9375,542.5 )"><rect x="0" y="0" width="288.75" height="77" class=" "></rect><text y="15" x="0"><tspan x="120.8046875">«abstract»</tspan><tspan class="title" dy="10" x="117.1328125">InsaneCard</tspan></text><line x1="0" y1="31" y2="31" x2="288.75"></line><text x="5" y="41" fill="white" class="classText"></text><line x1="0" y1="36" y2="36" x2="288.75"></line><text x="5" y="51" fill="white" class="classText"><tspan x="5">+InsaneCard(_name : string, _description : string, _value : int)</tspan><tspan x="5" dy="10">+effect(sanity : Sanity)</tspan><tspan x="5" dy="10">+hasInsane()</tspan></text></g><g id="classid-SpecifiedCard-4" class="classGroup" transform="translate(506.46484375,359.5 )"><rect x="0" y="0" width="299.875" height="57" class=" "></rect><text y="15" x="0"><tspan class="title" x="116.3125">SpecifiedCard</tspan></text><line x1="0" y1="21" y2="21" x2="299.875"></line><text x="5" y="31" fill="white" class="classText"></text><line x1="0" y1="26" y2="26" x2="299.875"></line><text x="5" y="41" fill="white" class="classText"><tspan x="5">+SpecifiedCard(_name : string, _description : string, _value : int)</tspan><tspan x="5" dy="10">+effect(sanity : Sanity)</tspan></text></g><g id="classid-GameManager-5" class="classGroup" transform="translate(205.25,121 )"><rect x="0" y="0" width="174.25" height="148" class=" "></rect><text y="15" x="0"><tspan class="title" x="52.609375">GameManager</tspan></text><line x1="0" y1="21" y2="21" x2="174.25"></line><text x="5" y="31" fill="white" class="classText"><tspan x="5">- roundNumber : int</tspan></text><line x1="0" y1="37" y2="37" x2="174.25"></line><text x="5" y="52" fill="white" class="classText"><tspan x="5">+GameManager(nbPlayer : int)</tspan><tspan x="5" dy="10">+isGameEnd()</tspan><tspan x="5" dy="10">+nextRound()</tspan><tspan x="5" dy="10">+play()</tspan><tspan x="5" dy="10">+chooseTargetPlayer(int : nbPlayer)</tspan><tspan x="5" dy="10">+sanityCheck()</tspan><tspan x="5" dy="10">+isGameEnd()</tspan><tspan x="5" dy="10">+isRoundEnd()</tspan><tspan x="5" dy="10">+startNewRound()</tspan><tspan x="5" dy="10">+getCurrentPlayer()</tspan></text></g><g id="classid-Player-6" class="classGroup" transform="translate(81.453125,319 )"><rect x="0" y="0" width="184.234375" height="138" class=" "></rect><text y="15" x="0"><tspan class="title" x="77.046875">Player</tspan></text><line x1="0" y1="21" y2="21" x2="184.234375"></line><text x="5" y="31" fill="white" class="classText"><tspan x="5">- saneToken : int</tspan><tspan x="5" dy="10">- insaneToken : int</tspan></text><line x1="0" y1="47" y2="47" x2="184.234375"></line><text x="5" y="62" fill="white" class="classText"><tspan x="5">+updateToken()</tspan><tspan x="5" dy="10">+getHand()</tspan><tspan x="5" dy="10">+getDiscard()</tspan><tspan x="5" dy="10">+getSaneToken()</tspan><tspan x="5" dy="10">+getInsaneToken()</tspan><tspan x="5" dy="10">+roundWon()</tspan><tspan x="5" dy="10">+getCardFromHand(int : cardNumber)</tspan><tspan x="5" dy="10">+addDiscardedCard(Card : card)</tspan></text></g><g id="classid-Application-7" class="classGroup" transform="translate(157.171875,7 )"><rect x="0" y="0" width="270.40625" height="57" class=" "></rect><text y="15" x="0"><tspan class="title" x="107.9765625">Application</tspan></text><line x1="0" y1="21" y2="21" x2="270.40625"></line><text x="5" y="31" fill="white" class="classText"></text><line x1="0" y1="26" y2="26" x2="270.40625"></line><text x="5" y="41" fill="white" class="classText"><tspan x="5">+Application()</tspan><tspan x="5" dy="10">+chooseTargerPlayer(int : nbPlayer, List&lt;Player&gt; players)</tspan></text></g><path d="M173.5703125,655L173.5703125,659.1666666666666C173.5703125,663.3333333333334,173.5703125,671.6666666666666,215.58658854166666,682.6197269279811C257.6028645833333,693.5727871892956,341.6354166666667,707.1455743785914,383.6516927083333,713.9319679732392L425.66796875,720.7183615678871" id="edge0" class="relation dashed-line" marker-start="url(#extensionStart)"></path><path d="M497.3125,619.5L497.3125,629.5833333333334C497.3125,639.6666666666666,497.3125,659.8333333333334,501.8664595636483,674.0833333333334C506.42041912729655,688.3333333333334,515.5283382545932,696.6666666666666,520.0822978182415,700.8333333333334L524.6362573818898,705" id="edge1" class="relation dashed-line" marker-start="url(#extensionStart)"></path><path d="M662.5526304853723,416.5L664.9084420711437,427.4166666666667C667.2642536569149,438.3333333333333,671.9758768284574,460.1666666666667,674.3316884142288,487.5833333333333C676.6875,515,676.6875,548,676.6875,581C676.6875,614,676.6875,647,669.4714464402887,667.6666666666666C662.2553928805775,688.3333333333334,647.8232857611548,696.6666666666666,640.6072322014435,700.8333333333334L633.3911786417323,705" id="edge2" class="relation dashed-line" marker-start="url(#extensionStart)"></path><path d="M608.167657081117,416.5L589.6917975675975,427.4166666666667C571.215938054078,438.3333333333333,534.264219027039,460.1666666666667,515.7883595135195,481.1666666666667C497.3125,502.1666666666667,497.3125,522.3333333333334,497.3125,532.4166666666666L497.3125,542.5" id="edge3" class="relation dashed-line" marker-start="url(#extensionStart)"></path><path d="M166.2298869680851,457L165.7866245567376,461.1666666666667C165.34336214539007,465.3333333333333,164.45683732269504,473.6666666666667,164.43445033222295,482C164.41206334175084,490.3333333333333,165.25381418350167,498.6666666666667,165.6746896043771,502.8333333333333L166.0955650252525,507" id="edge4" class="relation"></path><g class="classLabel"><rect class="box" x="149.9375" y="470.484375" width="27.265625" height="16.015625"></rect><text class="label" x="163.5710453002464" y="481.9931116776838" fill="red" text-anchor="middle">hand</text></g><g class="cardinality"><text class="type1" x="159.9356167197705" y="468.9009311417713" fill="black" font-size="6">1</text></g><g class="cardinality"><text class="type2" x="169.81401714584166" y="494.06079160740944" fill="black" font-size="6">0..*</text></g><path d="M217.1741605718085,457L219.80724318484042,461.1666666666667C222.44032579787233,465.3333333333333,227.70649102393614,473.6666666666667,227.83947499429132,482C227.97245896464645,490.3333333333333,222.97226167929293,498.6666666666667,220.47216303661617,502.8333333333333L217.97206439393938,507" id="edge5" class="relation"></path><g class="classLabel"><rect class="box" x="214.234375" y="470.3125" width="37.25" height="16.015625"></rect><text class="label" x="232.86088713360994" y="481.82313329277235" fill="red" text-anchor="middle">discard</text></g><g class="cardinality"><text class="type1" x="219.6250430385404" y="470.2379445207429" fill="black" font-size="6">1</text></g><g class="cardinality"><text class="type2" x="228.69086776717225" y="498.85400379045194" fill="black" font-size="6">0..*</text></g><path d="M359.2009943181818,269L362.9637192234848,273.1666666666667C366.7264441287878,277.3333333333333,374.25189393939394,285.6666666666667,378.014618844697,305.5C381.77734375,325.3333333333333,381.77734375,356.6666666666667,381.77734375,388C381.77734375,419.3333333333333,381.77734375,450.6666666666667,368.6373697916667,472.5812367497795C355.4973958333333,494.4958068328924,329.2174479166667,506.9916136657849,316.0774739583333,513.2395170822311L302.9375,519.4874204986774" id="edge6" class="relation"></path><g class="classLabel"><rect class="box" x="368.703125" y="403.296875" width="27.140625" height="16.015625"></rect><text class="label" x="381.77734375" y="414.80665722883225" fill="red" text-anchor="middle">deck</text></g><g class="cardinality"><text class="type1" x="363.8678642563083" y="281.62815604039685" fill="black" font-size="6">1</text></g><g class="cardinality"><text class="type2" x="316.37341451791417" y="518.6352461812385" fill="black" font-size="6">0..*</text></g><path d="M205.25,261.9647601140292L198.30338541666666,267.303966761691C191.35677083333334,272.6431734093528,177.46354166666666,283.3215867046764,170.96018949468086,292.82746001900483C164.45683732269504,302.3333333333333,165.34336214539007,310.6666666666667,165.7866245567376,314.8333333333333L166.2298869680851,319" id="edge7" class="relation"></path><g class="cardinality"><text class="type1" x="192.29220998856937" y="265.61793380544714" fill="black" font-size="6">1</text></g><g class="cardinality"><text class="type2" x="169.87950585156165" y="306.0412083122935" fill="black" font-size="6">2..6</text></g><path d="M247.97324810606062,269L245.47314946338383,273.1666666666667C242.97305082070707,277.3333333333333,237.97285353535355,285.6666666666667,232.83967227964482,294C227.70649102393614,302.3333333333333,222.44032579787233,310.6666666666667,219.80724318484042,314.8333333333333L217.1741605718085,319" id="edge8" class="relation"></path><g class="classLabel"><rect class="box" x="213.6875" y="282.671875" width="38.578125" height="16.015625"></rect><text class="label" x="232.86088713360994" y="294.1768667072276" fill="red" text-anchor="middle">Current</text></g><g class="cardinality"><text class="type1" x="237.25444473282775" y="277.1459962095481" fill="black" font-size="6">1</text></g><g class="cardinality"><text class="type2" x="228.07855444133358" y="311.10416601375994" fill="black" font-size="6">1</text></g><path d="M292.375,64L292.375,69.33333333333333C292.375,74.66666666666667,292.375,85.33333333333333,292.375,94.83333333333333C292.375,104.33333333333333,292.375,112.66666666666667,292.375,116.83333333333333L292.375,121" id="edge9" class="relation"></path><g class="cardinality"><text class="type1" x="287.375" y="76.5" fill="black" font-size="6">1</text></g><g class="cardinality"><text class="type2" x="297.375" y="108.5" fill="black" font-size="6">1</text></g></svg>