<svg id="mermaid-1608032679431" width="100%" xmlns="http://www.w3.org/2000/svg" xmlns:xlink="http://www.w3.org/1999/xlink" height="848" style="max-width: 909.81640625px;" viewBox="-20 -20 909.81640625 848"><style>#mermaid-1608032679431{font-family:"trebuchet ms",verdana,arial;font-size:16px;fill:#333;}#mermaid-1608032679431 .error-icon{fill:#552222;}#mermaid-1608032679431 .error-text{fill:#552222;stroke:#552222;}#mermaid-1608032679431 .edge-thickness-normal{stroke-width:2px;}#mermaid-1608032679431 .edge-thickness-thick{stroke-width:3.5px;}#mermaid-1608032679431 .edge-pattern-solid{stroke-dasharray:0;}#mermaid-1608032679431 .edge-pattern-dashed{stroke-dasharray:3;}#mermaid-1608032679431 .edge-pattern-dotted{stroke-dasharray:2;}#mermaid-1608032679431 .marker{fill:#333333;}#mermaid-1608032679431 .marker.cross{stroke:#333333;}#mermaid-1608032679431 svg{font-family:"trebuchet ms",verdana,arial;font-size:16px;}#mermaid-1608032679431 g.classGroup text{fill:#9370DB;fill:#131300;stroke:none;font-family:"trebuchet ms",verdana,arial;font-size:10px;}#mermaid-1608032679431 g.classGroup text .title{font-weight:bolder;}#mermaid-1608032679431 .classTitle{font-weight:bolder;}#mermaid-1608032679431 .node rect,#mermaid-1608032679431 .node circle,#mermaid-1608032679431 .node ellipse,#mermaid-1608032679431 .node polygon,#mermaid-1608032679431 .node path{fill:#ECECFF;stroke:#9370DB;stroke-width:1px;}#mermaid-1608032679431 .divider{stroke:#9370DB;stroke:1;}#mermaid-1608032679431 g.clickable{cursor:pointer;}#mermaid-1608032679431 g.classGroup rect{fill:#ECECFF;stroke:#9370DB;}#mermaid-1608032679431 g.classGroup line{stroke:#9370DB;stroke-width:1;}#mermaid-1608032679431 .classLabel .box{stroke:none;stroke-width:0;fill:#ECECFF;opacity:0.5;}#mermaid-1608032679431 .classLabel .label{fill:#9370DB;font-size:10px;}#mermaid-1608032679431 .relation{stroke:#333333;stroke-width:1;fill:none;}#mermaid-1608032679431 .dashed-line{stroke-dasharray:3;}#mermaid-1608032679431 #compositionStart,#mermaid-1608032679431 .composition{fill:#333333 !important;stroke:#333333 !important;stroke-width:1;}#mermaid-1608032679431 #compositionEnd,#mermaid-1608032679431 .composition{fill:#333333 !important;stroke:#333333 !important;stroke-width:1;}#mermaid-1608032679431 #dependencyStart,#mermaid-1608032679431 .dependency{fill:#333333 !important;stroke:#333333 !important;stroke-width:1;}#mermaid-1608032679431 #dependencyStart,#mermaid-1608032679431 .dependency{fill:#333333 !important;stroke:#333333 !important;stroke-width:1;}#mermaid-1608032679431 #extensionStart,#mermaid-1608032679431 .extension{fill:#333333 !important;stroke:#333333 !important;stroke-width:1;}#mermaid-1608032679431 #extensionEnd,#mermaid-1608032679431 .extension{fill:#333333 !important;stroke:#333333 !important;stroke-width:1;}#mermaid-1608032679431 #aggregationStart,#mermaid-1608032679431 .aggregation{fill:#ECECFF !important;stroke:#333333 !important;stroke-width:1;}#mermaid-1608032679431 #aggregationEnd,#mermaid-1608032679431 .aggregation{fill:#ECECFF !important;stroke:#333333 !important;stroke-width:1;}#mermaid-1608032679431 .edgeTerminals{font-size:11px;}#mermaid-1608032679431:root{--mermaid-font-family:"trebuchet ms",verdana,arial;}#mermaid-1608032679431 class{fill:apa;}</style><g></g><defs><marker id="extensionStart" class="extension" refX="0" refY="7" markerWidth="190" markerHeight="240" orient="auto"><path d="M 1,7 L18,13 V 1 Z"></path></marker></defs><defs><marker id="extensionEnd" refX="19" refY="7" markerWidth="20" markerHeight="28" orient="auto"><path d="M 1,1 V 13 L18,7 Z"></path></marker></defs><defs><marker id="compositionStart" class="extension" refX="0" refY="7" markerWidth="190" markerHeight="240" orient="auto"><path d="M 18,7 L9,13 L1,7 L9,1 Z"></path></marker></defs><defs><marker id="compositionEnd" refX="19" refY="7" markerWidth="20" markerHeight="28" orient="auto"><path d="M 18,7 L9,13 L1,7 L9,1 Z"></path></marker></defs><defs><marker id="aggregationStart" class="extension" refX="0" refY="7" markerWidth="190" markerHeight="240" orient="auto"><path d="M 18,7 L9,13 L1,7 L9,1 Z"></path></marker></defs><defs><marker id="aggregationEnd" refX="19" refY="7" markerWidth="20" markerHeight="28" orient="auto"><path d="M 18,7 L9,13 L1,7 L9,1 Z"></path></marker></defs><defs><marker id="dependencyStart" class="extension" refX="0" refY="7" markerWidth="190" markerHeight="240" orient="auto"><path d="M 5,7 L9,13 L1,7 L9,1 Z"></path></marker></defs><defs><marker id="dependencyEnd" refX="19" refY="7" markerWidth="20" markerHeight="28" orient="auto"><path d="M 18,7 L9,13 L14,7 L9,1 Z"></path></marker></defs><g id="classid-Sanity-0" class="classGroup" transform="translate(0,3 )"><rect x="0" y="0" width="106.703125" height="71" class=" "></rect><text y="15" x="0"><tspan x="19.640625">«enumeration»</tspan><tspan class="title" dy="10" x="38.703125">Sanity</tspan></text><line x1="0" y1="31" y2="31" x2="106.703125"></line><text x="5" y="41" fill="white" class="classText"><tspan x="5">SANE</tspan><tspan x="5" dy="10">INSANE</tspan><tspan x="5" dy="10">NEUTRAL</tspan></text><line x1="0" y1="67" y2="67" x2="106.703125"></line><text x="5" y="82" fill="white" class="classText"></text></g><g id="classid-Card-1" class="classGroup" transform="translate(157.29296875,533 )"><rect x="0" y="0" width="268.03125" height="148" class=" "></rect><text y="15" x="0"><tspan x="110.3203125">«abstract»</tspan><tspan class="title" dy="10" x="123.15625">Card</tspan></text><line x1="0" y1="31" y2="31" x2="268.03125"></line><text x="5" y="41" fill="white" class="classText"><tspan x="5">- name : string</tspan><tspan x="5" dy="10">- description : string</tspan><tspan x="5" dy="10">- value : int</tspan><tspan x="5" dy="10">- sanity : Sanity</tspan></text><line x1="0" y1="77" y2="77" x2="268.03125"></line><text x="5" y="92" fill="white" class="classText"><tspan x="5">+Card(_name : string, _description : string, _value : int)</tspan><tspan x="5" dy="10">+getDescrption()</tspan><tspan x="5" dy="10">+getName()</tspan><tspan x="5" dy="10">+getValue()</tspan><tspan x="5" dy="10">+hasInsane()</tspan><tspan x="5" dy="10">+effect(sanity : Sanity)</tspan></text></g><g id="classid-SaneCard-2" class="classGroup" transform="translate(475.8828125,731 )"><rect x="0" y="0" width="289.015625" height="77" class=" "></rect><text y="15" x="0"><tspan x="120.8125">«abstract»</tspan><tspan class="title" dy="10" x="122.59375">SaneCard</tspan></text><line x1="0" y1="31" y2="31" x2="289.015625"></line><text x="5" y="41" fill="white" class="classText"></text><line x1="0" y1="36" y2="36" x2="289.015625"></line><text x="5" y="51" fill="white" class="classText"><tspan x="5">+SaneCard(_name : string, _description : string, _value : int)</tspan><tspan x="5" dy="10">+effect(sanity : Sanity)</tspan><tspan x="5" dy="10">+hasInsane()</tspan></text></g><g id="classid-InsaneCard-3" class="classGroup" transform="translate(475.32421875,568.5 )"><rect x="0" y="0" width="296.5" height="77" class=" "></rect><text y="15" x="0"><tspan x="124.5546875">«abstract»</tspan><tspan class="title" dy="10" x="122.3984375">InsaneCard</tspan></text><line x1="0" y1="31" y2="31" x2="296.5"></line><text x="5" y="41" fill="white" class="classText"></text><line x1="0" y1="36" y2="36" x2="296.5"></line><text x="5" y="51" fill="white" class="classText"><tspan x="5">+InsaneCard(_name : string, _description : string, _value : int)</tspan><tspan x="5" dy="10">+effect(sanity : Sanity)</tspan><tspan x="5" dy="10">+hasInsane()</tspan></text></g><g id="classid-SpecifiedCard-4" class="classGroup" transform="translate(560.58203125,385.5 )"><rect x="0" y="0" width="309.234375" height="57" class=" "></rect><text y="15" x="0"><tspan class="title" x="122.2421875">SpecifiedCard</tspan></text><line x1="0" y1="21" y2="21" x2="309.234375"></line><text x="5" y="31" fill="white" class="classText"></text><line x1="0" y1="26" y2="26" x2="309.234375"></line><text x="5" y="41" fill="white" class="classText"><tspan x="5">+SpecifiedCard(_name : string, _description : string, _value : int)</tspan><tspan x="5" dy="10">+effect(sanity : Sanity)</tspan></text></g><g id="classid-GameManager-5" class="classGroup" transform="translate(420.8515625,127 )"><rect x="0" y="0" width="175.828125" height="168" class=" "></rect><text y="15" x="0"><tspan class="title" x="54.828125">GameManager</tspan></text><line x1="0" y1="21" y2="21" x2="175.828125"></line><text x="5" y="31" fill="white" class="classText"><tspan x="5">- roundNumber : int</tspan></text><line x1="0" y1="37" y2="37" x2="175.828125"></line><text x="5" y="52" fill="white" class="classText"><tspan x="5">+GameManager(nbPlayer : int)</tspan><tspan x="5" dy="10">+isGameEnd()</tspan><tspan x="5" dy="10">+nextRound()</tspan><tspan x="5" dy="10">+play()</tspan><tspan x="5" dy="10">+chooseTargetPlayer(int : nbPlayer)</tspan><tspan x="5" dy="10">+sanityCheck(Player : player)</tspan><tspan x="5" dy="10">+isGameEnd()</tspan><tspan x="5" dy="10">+isRoundEnd()</tspan><tspan x="5" dy="10">+findWinnerWthSpecialEffect()</tspan><tspan x="5" dy="10">+startNewRound()</tspan><tspan x="5" dy="10">+getCurrentPlayer()</tspan><tspan x="5" dy="10">+checkPlayableCard(Card : card)</tspan></text></g><g id="classid-Player-6" class="classGroup" transform="translate(198.61328125,345 )"><rect x="0" y="0" width="185.390625" height="138" class=" "></rect><text y="15" x="0"><tspan class="title" x="77.578125">Player</tspan></text><line x1="0" y1="21" y2="21" x2="185.390625"></line><text x="5" y="31" fill="white" class="classText"><tspan x="5">- saneToken : int</tspan><tspan x="5" dy="10">- insaneToken : int</tspan></text><line x1="0" y1="47" y2="47" x2="185.390625"></line><text x="5" y="62" fill="white" class="classText"><tspan x="5">+updateToken()</tspan><tspan x="5" dy="10">+getHand()</tspan><tspan x="5" dy="10">+getDiscard()</tspan><tspan x="5" dy="10">+getSaneToken()</tspan><tspan x="5" dy="10">+getInsaneToken()</tspan><tspan x="5" dy="10">+roundWon()</tspan><tspan x="5" dy="10">+getCardFromHand(int : cardNumber)</tspan><tspan x="5" dy="10">+addDiscardedCard(Card : card)</tspan></text></g><g id="classid-View-7" class="classGroup" transform="translate(156.703125,0 )"><rect x="0" y="0" width="270.578125" height="77" class=" "></rect><text y="15" x="0"><tspan class="title" x="123.90625">View</tspan></text><line x1="0" y1="21" y2="21" x2="270.578125"></line><text x="5" y="31" fill="white" class="classText"></text><line x1="0" y1="26" y2="26" x2="270.578125"></line><text x="5" y="41" fill="white" class="classText"><tspan x="5">+View()</tspan><tspan x="5" dy="10">+chooseTargerPlayer(int : nbPlayer, List&lt;Player&gt; players)</tspan><tspan x="5" dy="10">+cardCantBePlayer()</tspan><tspan x="5" dy="10">+askInsanity()</tspan></text></g><g id="classid-Application-8" class="classGroup" transform="translate(477.28125,23.5 )"><rect x="0" y="0" width="62.96875" height="30" class=" "></rect><text y="15" x="0"><tspan class="title" x="5">Application</tspan></text><line x1="0" y1="21" y2="21" x2="62.96875"></line><text x="5" y="31" fill="white" class="classText"></text><line x1="0" y1="26" y2="26" x2="62.96875"></line><text x="5" y="41" fill="white" class="classText"></text></g><path d="M291.30859375,681L291.30859375,685.1666666666666C291.30859375,689.3333333333334,291.30859375,697.6666666666666,322.0709635416667,707.7692711733634C352.8333333333333,717.8718756800603,414.3580729166667,729.7437513601203,445.1204427083333,735.6796892001504L475.8828125,741.6156270401805" id="edge0" class="relation dashed-line" marker-start="url(#extensionStart)"></path><path d="M623.57421875,645.5L623.57421875,655.5833333333334C623.57421875,665.6666666666666,623.57421875,685.8333333333334,623.3653215223097,700.0833333333334C623.1564242946193,714.3333333333334,622.7386298392388,722.6666666666666,622.5297326115485,726.8333333333334L622.3208353838583,731" id="edge1" class="relation dashed-line" marker-start="url(#extensionStart)"></path><path d="M742.979138962766,442.5L753.6199855939717,453.4166666666667C764.2608322251773,464.3333333333333,785.5425254875887,486.1666666666667,796.1833721187944,513.5833333333334C806.82421875,541,806.82421875,574,806.82421875,607C806.82421875,640,806.82421875,673,794.5910433070867,693.6666666666666C782.3578678641733,714.3333333333334,757.8915169783464,722.6666666666666,745.6583415354331,726.8333333333334L733.4251660925197,731" id="edge2" class="relation dashed-line" marker-start="url(#extensionStart)"></path><path d="M687.419298537234,442.5L676.7784519060283,453.4166666666667C666.1376052748227,464.3333333333333,644.8559120124113,486.1666666666667,634.2150653812056,507.1666666666667C623.57421875,528.1666666666666,623.57421875,548.3333333333334,623.57421875,558.4166666666666L623.57421875,568.5" id="edge3" class="relation dashed-line" marker-start="url(#extensionStart)"></path><path d="M283.9681682180851,483L283.5249058067376,487.1666666666667C283.0816433953901,491.3333333333333,282.19511857269504,499.6666666666667,282.1727315822229,508C282.15034459175087,516.3333333333334,282.9920954335017,524.6666666666666,283.41297085437714,528.8333333333334L283.83384627525254,533" id="edge4" class="relation"></path><g class="classLabel"><rect class="box" x="267.921875" y="496.484375" width="26.765625" height="16.015625"></rect><text class="label" x="281.3093265502464" y="507.9931116776838" fill="red" text-anchor="middle">hand</text></g><g class="cardinality"><text class="type1" x="277.6738979697705" y="494.9009311417713" fill="black" font-size="6">1</text></g><g class="cardinality"><text class="type2" x="287.55229839584166" y="520.0607916074094" fill="black" font-size="6">0..*</text></g><path d="M336.3231798537234,483L339.04145196143617,487.1666666666667C341.7597240691489,491.3333333333333,347.19626828457444,499.6666666666667,347.33355475466095,508C347.4708412247475,516.3333333333334,342.308869949495,524.6666666666666,339.7278843118687,528.8333333333334L337.14689867424244,533" id="edge5" class="relation"></path><g class="classLabel"><rect class="box" x="333.9375" y="496.3125" width="37.15625" height="16.015625"></rect><text class="label" x="352.51206532234517" y="507.81491432046073" fill="red" text-anchor="middle">discard</text></g><g class="cardinality"><text class="type1" x="338.9654318366438" y="496.20107967019186" fill="black" font-size="6">1</text></g><g class="cardinality"><text class="type2" x="347.97990473958816" y="525.0065039195491" fill="black" font-size="6">0..*</text></g><path d="M516.4720470183486,295L516.8543100152905,299.1666666666667C517.2365730122324,303.3333333333333,518.0010990061162,311.6666666666667,518.3833620030581,331.5C518.765625,351.3333333333333,518.765625,382.6666666666667,518.765625,414C518.765625,445.3333333333333,518.765625,476.6666666666667,503.1920572916667,499.1116826094672C487.6184895833333,521.5566985522678,456.4713541666667,535.1133971045356,440.8977864583333,541.8917463806695L425.32421875,548.6700956568034" id="edge6" class="relation"></path><g class="classLabel"><rect class="box" x="505.75" y="440.890625" width="26.984375" height="16.015625"></rect><text class="label" x="518.765625" y="452.4017815031557" fill="red" text-anchor="middle">deck</text></g><g class="cardinality"><text class="type1" x="512.6349502107968" y="307.90452200158825" fill="black" font-size="6">1</text></g><g class="cardinality"><text class="type2" x="438.78106826951824" y="548.2661142103974" fill="black" font-size="6">0..*</text></g><path d="M420.8515625,253.12942004842947L397.5944010416667,264.2745167070246C374.3372395833333,275.4196133656196,327.8229166666667,297.7098066828098,305.00901761968083,313.0215700080716C282.19511857269504,328.3333333333333,283.0816433953901,336.6666666666667,283.5249058067376,340.8333333333333L283.9681682180851,345" id="edge7" class="relation"></path><g class="cardinality"><text class="type1" x="407.4182937061485" y="254.02233074504778" fill="black" font-size="6">1</text></g><g class="cardinality"><text class="type2" x="287.61778710156165" y="332.0412083122935" fill="black" font-size="6">2..6</text></g><path d="M420.8515625,272.37488116087064L409.4817708333333,280.3124009673922C398.1119791666667,288.24992077391374,375.3723958333333,304.1249603869569,361.2843320589539,316.22914686014514C347.19626828457444,328.3333333333333,341.7597240691489,336.6666666666667,339.04145196143617,340.8333333333333L336.3231798537234,345" id="edge8" class="relation"></path><g class="classLabel"><rect class="box" x="354.953125" y="293.21875" width="39.140625" height="16.015625"></rect><text class="label" x="374.50449899522266" y="304.7308596456669" fill="red" text-anchor="middle">Current</text></g><g class="cardinality"><text class="type1" x="407.7399899494392" y="275.4304768886101" fill="black" font-size="6">1</text></g><g class="cardinality"><text class="type2" x="347.34072761390155" y="337.26284022704755" fill="black" font-size="6">1</text></g><path d="M508.765625,53.5L508.765625,61.583333333333336C508.765625,69.66666666666667,508.765625,85.83333333333333,508.765625,98.08333333333333C508.765625,110.33333333333333,508.765625,118.66666666666667,508.765625,122.83333333333333L508.765625,127" id="edge9" class="relation"></path><g class="cardinality"><text class="type1" x="503.765625" y="66" fill="black" font-size="6">1</text></g><g class="cardinality"><text class="type2" x="513.765625" y="114.5" fill="black" font-size="6">1</text></g></svg>