<svg id="mermaid-1608244360051" width="100%" xmlns="http://www.w3.org/2000/svg" xmlns:xlink="http://www.w3.org/1999/xlink" height="878" style="max-width: 846.06640625px;" viewBox="-20 -20 846.06640625 878"><style>#mermaid-1608244360051{font-family:"trebuchet ms",verdana,arial;font-size:16px;fill:#333;}#mermaid-1608244360051 .error-icon{fill:#552222;}#mermaid-1608244360051 .error-text{fill:#552222;stroke:#552222;}#mermaid-1608244360051 .edge-thickness-normal{stroke-width:2px;}#mermaid-1608244360051 .edge-thickness-thick{stroke-width:3.5px;}#mermaid-1608244360051 .edge-pattern-solid{stroke-dasharray:0;}#mermaid-1608244360051 .edge-pattern-dashed{stroke-dasharray:3;}#mermaid-1608244360051 .edge-pattern-dotted{stroke-dasharray:2;}#mermaid-1608244360051 .marker{fill:#333333;}#mermaid-1608244360051 .marker.cross{stroke:#333333;}#mermaid-1608244360051 svg{font-family:"trebuchet ms",verdana,arial;font-size:16px;}#mermaid-1608244360051 g.classGroup text{fill:#9370DB;fill:#131300;stroke:none;font-family:"trebuchet ms",verdana,arial;font-size:10px;}#mermaid-1608244360051 g.classGroup text .title{font-weight:bolder;}#mermaid-1608244360051 .classTitle{font-weight:bolder;}#mermaid-1608244360051 .node rect,#mermaid-1608244360051 .node circle,#mermaid-1608244360051 .node ellipse,#mermaid-1608244360051 .node polygon,#mermaid-1608244360051 .node path{fill:#ECECFF;stroke:#9370DB;stroke-width:1px;}#mermaid-1608244360051 .divider{stroke:#9370DB;stroke:1;}#mermaid-1608244360051 g.clickable{cursor:pointer;}#mermaid-1608244360051 g.classGroup rect{fill:#ECECFF;stroke:#9370DB;}#mermaid-1608244360051 g.classGroup line{stroke:#9370DB;stroke-width:1;}#mermaid-1608244360051 .classLabel .box{stroke:none;stroke-width:0;fill:#ECECFF;opacity:0.5;}#mermaid-1608244360051 .classLabel .label{fill:#9370DB;font-size:10px;}#mermaid-1608244360051 .relation{stroke:#333333;stroke-width:1;fill:none;}#mermaid-1608244360051 .dashed-line{stroke-dasharray:3;}#mermaid-1608244360051 #compositionStart,#mermaid-1608244360051 .composition{fill:#333333 !important;stroke:#333333 !important;stroke-width:1;}#mermaid-1608244360051 #compositionEnd,#mermaid-1608244360051 .composition{fill:#333333 !important;stroke:#333333 !important;stroke-width:1;}#mermaid-1608244360051 #dependencyStart,#mermaid-1608244360051 .dependency{fill:#333333 !important;stroke:#333333 !important;stroke-width:1;}#mermaid-1608244360051 #dependencyStart,#mermaid-1608244360051 .dependency{fill:#333333 !important;stroke:#333333 !important;stroke-width:1;}#mermaid-1608244360051 #extensionStart,#mermaid-1608244360051 .extension{fill:#333333 !important;stroke:#333333 !important;stroke-width:1;}#mermaid-1608244360051 #extensionEnd,#mermaid-1608244360051 .extension{fill:#333333 !important;stroke:#333333 !important;stroke-width:1;}#mermaid-1608244360051 #aggregationStart,#mermaid-1608244360051 .aggregation{fill:#ECECFF !important;stroke:#333333 !important;stroke-width:1;}#mermaid-1608244360051 #aggregationEnd,#mermaid-1608244360051 .aggregation{fill:#ECECFF !important;stroke:#333333 !important;stroke-width:1;}#mermaid-1608244360051 .edgeTerminals{font-size:11px;}#mermaid-1608244360051:root{--mermaid-font-family:"trebuchet ms",verdana,arial;}#mermaid-1608244360051 class{fill:apa;}</style><g></g><defs><marker id="extensionStart" class="extension" refX="0" refY="7" markerWidth="190" markerHeight="240" orient="auto"><path d="M 1,7 L18,13 V 1 Z"></path></marker></defs><defs><marker id="extensionEnd" refX="19" refY="7" markerWidth="20" markerHeight="28" orient="auto"><path d="M 1,1 V 13 L18,7 Z"></path></marker></defs><defs><marker id="compositionStart" class="extension" refX="0" refY="7" markerWidth="190" markerHeight="240" orient="auto"><path d="M 18,7 L9,13 L1,7 L9,1 Z"></path></marker></defs><defs><marker id="compositionEnd" refX="19" refY="7" markerWidth="20" markerHeight="28" orient="auto"><path d="M 18,7 L9,13 L1,7 L9,1 Z"></path></marker></defs><defs><marker id="aggregationStart" class="extension" refX="0" refY="7" markerWidth="190" markerHeight="240" orient="auto"><path d="M 18,7 L9,13 L1,7 L9,1 Z"></path></marker></defs><defs><marker id="aggregationEnd" refX="19" refY="7" markerWidth="20" markerHeight="28" orient="auto"><path d="M 18,7 L9,13 L1,7 L9,1 Z"></path></marker></defs><defs><marker id="dependencyStart" class="extension" refX="0" refY="7" markerWidth="190" markerHeight="240" orient="auto"><path d="M 5,7 L9,13 L1,7 L9,1 Z"></path></marker></defs><defs><marker id="dependencyEnd" refX="19" refY="7" markerWidth="20" markerHeight="28" orient="auto"><path d="M 18,7 L9,13 L14,7 L9,1 Z"></path></marker></defs><g id="classid-Sanity-0" class="classGroup" transform="translate(0,13 )"><rect x="0" y="0" width="107.171875" height="71" class=" "></rect><text y="15" x="0"><tspan x="20.0078125">«enumeration»</tspan><tspan class="title" dy="10" x="38.359375">Sanity</tspan></text><line x1="0" y1="31" y2="31" x2="107.171875"></line><text x="5" y="41" fill="white" class="classText"><tspan x="5">SANE</tspan><tspan x="5" dy="10">INSANE</tspan><tspan x="5" dy="10">NEUTRAL</tspan></text><line x1="0" y1="67" y2="67" x2="107.171875"></line><text x="5" y="82" fill="white" class="classText"></text></g><g id="classid-Card-1" class="classGroup" transform="translate(43.9296875,563 )"><rect x="0" y="0" width="258.734375" height="148" class=" "></rect><text y="15" x="0"><tspan x="105.796875">«abstract»</tspan><tspan class="title" dy="10" x="117.96875">Card</tspan></text><line x1="0" y1="31" y2="31" x2="258.734375"></line><text x="5" y="41" fill="white" class="classText"><tspan x="5">- name : string</tspan><tspan x="5" dy="10">- description : string</tspan><tspan x="5" dy="10">- value : int</tspan><tspan x="5" dy="10">- sanity : Sanity</tspan></text><line x1="0" y1="77" y2="77" x2="258.734375"></line><text x="5" y="92" fill="white" class="classText"><tspan x="5">+Card(_name : string, _description : string, _value : int)</tspan><tspan x="5" dy="10">+getDescrption()</tspan><tspan x="5" dy="10">+getName()</tspan><tspan x="5" dy="10">+getValue()</tspan><tspan x="5" dy="10">+hasInsane()</tspan><tspan x="5" dy="10">+effect(sanity : Sanity)</tspan></text></g><g id="classid-SaneCard-2" class="classGroup" transform="translate(425.39453125,761 )"><rect x="0" y="0" width="282.09375" height="77" class=" "></rect><text y="15" x="0"><tspan x="117.4765625">«abstract»</tspan><tspan class="title" dy="10" x="117.6953125">SaneCard</tspan></text><line x1="0" y1="31" y2="31" x2="282.09375"></line><text x="5" y="41" fill="white" class="classText"></text><line x1="0" y1="36" y2="36" x2="282.09375"></line><text x="5" y="51" fill="white" class="classText"><tspan x="5">+SaneCard(_name : string, _description : string, _value : int)</tspan><tspan x="5" dy="10">+effect(sanity : Sanity)</tspan><tspan x="5" dy="10">+hasInsane()</tspan></text></g><g id="classid-InsaneCard-3" class="classGroup" transform="translate(352.6640625,598.5 )"><rect x="0" y="0" width="288.75" height="77" class=" "></rect><text y="15" x="0"><tspan x="120.8046875">«abstract»</tspan><tspan class="title" dy="10" x="117.1328125">InsaneCard</tspan></text><line x1="0" y1="31" y2="31" x2="288.75"></line><text x="5" y="41" fill="white" class="classText"></text><line x1="0" y1="36" y2="36" x2="288.75"></line><text x="5" y="51" fill="white" class="classText"><tspan x="5">+InsaneCard(_name : string, _description : string, _value : int)</tspan><tspan x="5" dy="10">+effect(sanity : Sanity)</tspan><tspan x="5" dy="10">+hasInsane()</tspan></text></g><g id="classid-SpecifiedCard-4" class="classGroup" transform="translate(506.19140625,415.5 )"><rect x="0" y="0" width="299.875" height="57" class=" "></rect><text y="15" x="0"><tspan class="title" x="116.3125">SpecifiedCard</tspan></text><line x1="0" y1="21" y2="21" x2="299.875"></line><text x="5" y="31" fill="white" class="classText"></text><line x1="0" y1="26" y2="26" x2="299.875"></line><text x="5" y="41" fill="white" class="classText"><tspan x="5">+SpecifiedCard(_name : string, _description : string, _value : int)</tspan><tspan x="5" dy="10">+effect(sanity : Sanity)</tspan></text></g><g id="classid-GameManager-5" class="classGroup" transform="translate(204.9765625,147 )"><rect x="0" y="0" width="174.25" height="178" class=" "></rect><text y="15" x="0"><tspan class="title" x="52.609375">GameManager</tspan></text><line x1="0" y1="21" y2="21" x2="174.25"></line><text x="5" y="31" fill="white" class="classText"><tspan x="5">- roundNumber : int</tspan></text><line x1="0" y1="37" y2="37" x2="174.25"></line><text x="5" y="52" fill="white" class="classText"><tspan x="5">+GameManager(nbPlayer : int)</tspan><tspan x="5" dy="10">+isGameEnd()</tspan><tspan x="5" dy="10">+nextRound()</tspan><tspan x="5" dy="10">+play(int : cardNumber)</tspan><tspan x="5" dy="10">+chooseTargetPlayer(int : nbPlayer)</tspan><tspan x="5" dy="10">+sanityCheck(Player : player)</tspan><tspan x="5" dy="10">+isGameEnd()</tspan><tspan x="5" dy="10">+isRoundEnd()</tspan><tspan x="5" dy="10">+findWinnerWthSpecialEffect()</tspan><tspan x="5" dy="10">+startNewRound()</tspan><tspan x="5" dy="10">+getCurrentPlayer()</tspan><tspan x="5" dy="10">+checkPlayableCard(Card : card)</tspan><tspan x="5" dy="10">+redistribute()</tspan></text></g><g id="classid-Player-6" class="classGroup" transform="translate(81.1796875,375 )"><rect x="0" y="0" width="184.234375" height="138" class=" "></rect><text y="15" x="0"><tspan class="title" x="77.046875">Player</tspan></text><line x1="0" y1="21" y2="21" x2="184.234375"></line><text x="5" y="31" fill="white" class="classText"><tspan x="5">- saneToken : int</tspan><tspan x="5" dy="10">- insaneToken : int</tspan></text><line x1="0" y1="47" y2="47" x2="184.234375"></line><text x="5" y="62" fill="white" class="classText"><tspan x="5">+updateToken()</tspan><tspan x="5" dy="10">+getHand()</tspan><tspan x="5" dy="10">+getDiscard()</tspan><tspan x="5" dy="10">+getSaneToken()</tspan><tspan x="5" dy="10">+getInsaneToken()</tspan><tspan x="5" dy="10">+roundWon()</tspan><tspan x="5" dy="10">+getCardFromHand(int : cardNumber)</tspan><tspan x="5" dy="10">+addDiscardedCard(Card : card)</tspan></text></g><g id="classid-View-7" class="classGroup" transform="translate(157.171875,0 )"><rect x="0" y="0" width="269.859375" height="97" class=" "></rect><text y="15" x="0"><tspan class="title" x="123.5078125">View</tspan></text><line x1="0" y1="21" y2="21" x2="269.859375"></line><text x="5" y="31" fill="white" class="classText"></text><line x1="0" y1="26" y2="26" x2="269.859375"></line><text x="5" y="41" fill="white" class="classText"><tspan x="5">+View()</tspan><tspan x="5" dy="10">+chooseTargetPlayer(int : nbPlayer, List&lt;Player&gt; players)</tspan><tspan x="5" dy="10">+cardCantBePlayer()</tspan><tspan x="5" dy="10">+askInsanity()</tspan><tspan x="5" dy="10">+redistribute(List&lt;Card&gt; : inGameCards)</tspan><tspan x="5" dy="10">+chooseNumber()</tspan></text></g><path d="M173.296875,711L173.296875,715.1666666666666C173.296875,719.3333333333334,173.296875,727.6666666666666,215.31315104166666,738.6197269279811C257.3294270833333,749.5727871892956,341.3619791666667,763.1455743785914,383.3782552083333,769.9319679732392L425.39453125,776.7183615678871" id="edge0" class="relation dashed-line" marker-start="url(#extensionStart)"></path><path d="M497.0390625,675.5L497.0390625,685.5833333333334C497.0390625,695.6666666666666,497.0390625,715.8333333333334,501.5930220636483,730.0833333333334C506.14698162729655,744.3333333333334,515.2549007545932,752.6666666666666,519.8088603182415,756.8333333333334L524.3628198818898,761" id="edge1" class="relation dashed-line" marker-start="url(#extensionStart)"></path><path d="M662.2791929853723,472.5L664.6350045711437,483.4166666666667C666.9908161569149,494.3333333333333,671.7024393284574,516.1666666666666,674.0582509142288,543.5833333333334C676.4140625,571,676.4140625,604,676.4140625,637C676.4140625,670,676.4140625,703,669.1980089402887,723.6666666666666C661.9819553805775,744.3333333333334,647.5498482611548,752.6666666666666,640.3337947014435,756.8333333333334L633.1177411417323,761" id="edge2" class="relation dashed-line" marker-start="url(#extensionStart)"></path><path d="M607.894219581117,472.5L589.4183600675975,483.4166666666667C570.942500554078,494.3333333333333,533.990781527039,516.1666666666666,515.5149220135195,537.1666666666666C497.0390625,558.1666666666666,497.0390625,578.3333333333334,497.0390625,588.4166666666666L497.0390625,598.5" id="edge3" class="relation dashed-line" marker-start="url(#extensionStart)"></path><path d="M165.9564494680851,513L165.5131870567376,517.1666666666666C165.06992464539007,521.3333333333334,164.18339982269504,529.6666666666666,164.16101283222295,538C164.13862584175084,546.3333333333334,164.98037668350167,554.6666666666666,165.4012521043771,558.8333333333334L165.8221275252525,563" id="edge4" class="relation"></path><g class="classLabel"><rect class="box" x="149.671875" y="526.484375" width="27.25" height="16.015625"></rect><text class="label" x="163.2976078002464" y="537.9931116776838" fill="red" text-anchor="middle">hand</text></g><g class="cardinality"><text class="type1" x="159.6621792197705" y="524.9009311417713" fill="black" font-size="6">1</text></g><g class="cardinality"><text class="type2" x="169.54057964584166" y="550.0607916074094" fill="black" font-size="6">0..*</text></g><path d="M216.9007230718085,513L219.53380568484042,517.1666666666666C222.16688829787233,521.3333333333334,227.43305352393614,529.6666666666666,227.56603749429132,538C227.69902146464645,546.3333333333334,222.69882417929293,554.6666666666666,220.19872553661617,558.8333333333334L217.69862689393938,563" id="edge5" class="relation"></path><g class="classLabel"><rect class="box" x="213.96875" y="526.3125" width="37.25" height="16.015625"></rect><text class="label" x="232.58744963360994" y="537.8231332927724" fill="red" text-anchor="middle">discard</text></g><g class="cardinality"><text class="type1" x="219.35160553854044" y="526.2379445207429" fill="black" font-size="6">1</text></g><g class="cardinality"><text class="type2" x="228.41743026717225" y="554.8540037904519" fill="black" font-size="6">0..*</text></g><path d="M361.8981291118421,325L365.1657586348684,329.1666666666667C368.43338815789474,333.3333333333333,374.96864720394734,341.6666666666667,378.2362767269737,361.5C381.50390625,381.3333333333333,381.50390625,412.6666666666667,381.50390625,444C381.50390625,475.3333333333333,381.50390625,506.6666666666667,368.3639322916667,528.5812367497796C355.2239583333333,550.4958068328924,328.9440104166667,562.9916136657849,315.8040364583333,569.2395170822311L302.6640625,575.4874204986774" id="edge6" class="relation"></path><g class="classLabel"><rect class="box" x="368.4375" y="460.25" width="27.140625" height="16.015625"></rect><text class="label" x="381.50390625" y="471.7638269744159" fill="red" text-anchor="middle">deck</text></g><g class="cardinality"><text class="type1" x="365.6774500542606" y="337.9215607886275" fill="black" font-size="6">1</text></g><g class="cardinality"><text class="type2" x="316.09997701791417" y="574.6352461812385" fill="black" font-size="6">0..*</text></g><path d="M204.9765625,313.1109358888822L198.02994791666666,319.25911324073513C191.08333333333334,325.40729059258814,177.19010416666666,337.70364529629404,170.68675199468086,348.0184893148137C164.18339982269504,358.3333333333333,165.06992464539007,366.6666666666667,165.5131870567376,370.8333333333333L165.9564494680851,375" id="edge7" class="relation"></path><g class="cardinality"><text class="type1" x="192.3023703387226" y="317.6512941411586" fill="black" font-size="6">1</text></g><g class="cardinality"><text class="type2" x="169.60606835156165" y="362.0412083122935" fill="black" font-size="6">2..6</text></g><path d="M245.72604851973685,325L243.55491022478068,329.1666666666667C241.38377192982458,333.3333333333333,237.0414953399123,341.6666666666667,232.23727443192422,350C227.43305352393614,358.3333333333333,222.16688829787233,366.6666666666667,219.53380568484042,370.8333333333333L216.9007230718085,375" id="edge8" class="relation"></path><g class="classLabel"><rect class="box" x="213.15625" y="339.078125" width="38.578125" height="16.015625"></rect><text class="label" x="232.32978085399196" y="350.5846092937158" fill="red" text-anchor="middle">Current</text></g><g class="cardinality"><text class="type1" x="235.5156422462992" y="333.7748278462512" fill="black" font-size="6">1</text></g><g class="cardinality"><text class="type2" x="227.80511694133358" y="367.10416601375994" fill="black" font-size="6">1</text></g><path d="M292.1015625,97L292.1015625,101.16666666666667C292.1015625,105.33333333333333,292.1015625,113.66666666666667,292.1015625,122C292.1015625,130.33333333333334,292.1015625,138.66666666666666,292.1015625,142.83333333333334L292.1015625,147" id="edge9" class="relation"></path><g class="cardinality"><text class="type1" x="287.1015625" y="109.5" fill="black" font-size="6">1</text></g><g class="cardinality"><text class="type2" x="297.1015625" y="134.5" fill="black" font-size="6">1</text></g></svg>