<svg id="mermaid-1609434217583" width="100%" xmlns="http://www.w3.org/2000/svg" xmlns:xlink="http://www.w3.org/1999/xlink" height="1452" style="max-width: 1780.203125px;" viewBox="-20 -20 1780.203125 1452"><style>#mermaid-1609434217583{font-family:"trebuchet ms",verdana,arial,sans-serif;font-size:16px;fill:#333;}#mermaid-1609434217583 .error-icon{fill:#552222;}#mermaid-1609434217583 .error-text{fill:#552222;stroke:#552222;}#mermaid-1609434217583 .edge-thickness-normal{stroke-width:2px;}#mermaid-1609434217583 .edge-thickness-thick{stroke-width:3.5px;}#mermaid-1609434217583 .edge-pattern-solid{stroke-dasharray:0;}#mermaid-1609434217583 .edge-pattern-dashed{stroke-dasharray:3;}#mermaid-1609434217583 .edge-pattern-dotted{stroke-dasharray:2;}#mermaid-1609434217583 .marker{fill:#333333;}#mermaid-1609434217583 .marker.cross{stroke:#333333;}#mermaid-1609434217583 svg{font-family:"trebuchet ms",verdana,arial,sans-serif;font-size:16px;}#mermaid-1609434217583 g.classGroup text{fill:#9370DB;fill:#131300;stroke:none;font-family:"trebuchet ms",verdana,arial,sans-serif;font-size:10px;}#mermaid-1609434217583 g.classGroup text .title{font-weight:bolder;}#mermaid-1609434217583 .classTitle{font-weight:bolder;}#mermaid-1609434217583 .node rect,#mermaid-1609434217583 .node circle,#mermaid-1609434217583 .node ellipse,#mermaid-1609434217583 .node polygon,#mermaid-1609434217583 .node path{fill:#ECECFF;stroke:#9370DB;stroke-width:1px;}#mermaid-1609434217583 .divider{stroke:#9370DB;stroke:1;}#mermaid-1609434217583 g.clickable{cursor:pointer;}#mermaid-1609434217583 g.classGroup rect{fill:#ECECFF;stroke:#9370DB;}#mermaid-1609434217583 g.classGroup line{stroke:#9370DB;stroke-width:1;}#mermaid-1609434217583 .classLabel .box{stroke:none;stroke-width:0;fill:#ECECFF;opacity:0.5;}#mermaid-1609434217583 .classLabel .label{fill:#9370DB;font-size:10px;}#mermaid-1609434217583 .relation{stroke:#333333;stroke-width:1;fill:none;}#mermaid-1609434217583 .dashed-line{stroke-dasharray:3;}#mermaid-1609434217583 #compositionStart,#mermaid-1609434217583 .composition{fill:#333333 !important;stroke:#333333 !important;stroke-width:1;}#mermaid-1609434217583 #compositionEnd,#mermaid-1609434217583 .composition{fill:#333333 !important;stroke:#333333 !important;stroke-width:1;}#mermaid-1609434217583 #dependencyStart,#mermaid-1609434217583 .dependency{fill:#333333 !important;stroke:#333333 !important;stroke-width:1;}#mermaid-1609434217583 #dependencyStart,#mermaid-1609434217583 .dependency{fill:#333333 !important;stroke:#333333 !important;stroke-width:1;}#mermaid-1609434217583 #extensionStart,#mermaid-1609434217583 .extension{fill:#333333 !important;stroke:#333333 !important;stroke-width:1;}#mermaid-1609434217583 #extensionEnd,#mermaid-1609434217583 .extension{fill:#333333 !important;stroke:#333333 !important;stroke-width:1;}#mermaid-1609434217583 #aggregationStart,#mermaid-1609434217583 .aggregation{fill:#ECECFF !important;stroke:#333333 !important;stroke-width:1;}#mermaid-1609434217583 #aggregationEnd,#mermaid-1609434217583 .aggregation{fill:#ECECFF !important;stroke:#333333 !important;stroke-width:1;}#mermaid-1609434217583 .edgeTerminals{font-size:11px;}#mermaid-1609434217583:root{--mermaid-font-family:"trebuchet ms",verdana,arial,sans-serif;}#mermaid-1609434217583 class{fill:apa;}</style><g></g><defs><marker id="extensionStart" class="extension" refX="0" refY="7" markerWidth="190" markerHeight="240" orient="auto"><path d="M 1,7 L18,13 V 1 Z"></path></marker></defs><defs><marker id="extensionEnd" refX="19" refY="7" markerWidth="20" markerHeight="28" orient="auto"><path d="M 1,1 V 13 L18,7 Z"></path></marker></defs><defs><marker id="compositionStart" class="extension" refX="0" refY="7" markerWidth="190" markerHeight="240" orient="auto"><path d="M 18,7 L9,13 L1,7 L9,1 Z"></path></marker></defs><defs><marker id="compositionEnd" refX="19" refY="7" markerWidth="20" markerHeight="28" orient="auto"><path d="M 18,7 L9,13 L1,7 L9,1 Z"></path></marker></defs><defs><marker id="aggregationStart" class="extension" refX="0" refY="7" markerWidth="190" markerHeight="240" orient="auto"><path d="M 18,7 L9,13 L1,7 L9,1 Z"></path></marker></defs><defs><marker id="aggregationEnd" refX="19" refY="7" markerWidth="20" markerHeight="28" orient="auto"><path d="M 18,7 L9,13 L1,7 L9,1 Z"></path></marker></defs><defs><marker id="dependencyStart" class="extension" refX="0" refY="7" markerWidth="190" markerHeight="240" orient="auto"><path d="M 5,7 L9,13 L1,7 L9,1 Z"></path></marker></defs><defs><marker id="dependencyEnd" refX="19" refY="7" markerWidth="20" markerHeight="28" orient="auto"><path d="M 18,7 L9,13 L14,7 L9,1 Z"></path></marker></defs><g id="classid-Sanity-0" class="classGroup" transform="translate(451.25390625,115 )"><rect x="0" y="0" width="107.171875" height="71" class=" "></rect><text y="15" x="0"><tspan x="20.0078125">«enumeration»</tspan><tspan class="title" dy="10" x="38.359375">Sanity</tspan></text><line x1="0" y1="31" y2="31" x2="107.171875"></line><text x="5" y="41" fill="white" class="classText"><tspan x="5">SANE</tspan><tspan x="5" dy="10">INSANE</tspan><tspan x="5" dy="10">NEUTRAL</tspan></text><line x1="0" y1="67" y2="67" x2="107.171875"></line><text x="5" y="82" fill="white" class="classText"></text></g><g id="classid-AIActionsEnum-1" class="classGroup" transform="translate(608.42578125,0 )"><rect x="0" y="0" width="186.03125" height="301" class=" "></rect><text y="15" x="0"><tspan x="59.4375">«enumeration»</tspan><tspan class="title" dy="10" x="55.7265625">AIActionsEnum</tspan></text><line x1="0" y1="31" y2="31" x2="186.03125"></line><text x="5" y="41" fill="white" class="classText"><tspan x="5">CatsOfUltharSane = 0</tspan><tspan x="5" dy="10">ElderSignSane = 1</tspan><tspan x="5" dy="10">GreatRaceOfYithSane = 2</tspan><tspan x="5" dy="10">InvestigatorSane = 3</tspan><tspan x="5" dy="10">ProfessorHenryArmitageSane = 4</tspan><tspan x="5" dy="10">RandolphCarterSane = 5</tspan><tspan x="5" dy="10">TheNecronomiconSane = 6</tspan><tspan x="5" dy="10">TheSilverKeySane =7</tspan><tspan x="5" dy="10">CthulhuSane = 8</tspan><tspan x="5" dy="10">DeepOnesSane = 9</tspan><tspan x="5" dy="10">GoldenMeadSane = 10</tspan><tspan x="5" dy="10">HoundOfTindalosSane = 11</tspan><tspan x="5" dy="10">LiberIvonisSane = 12</tspan><tspan x="5" dy="10">MiGoSane = 13</tspan><tspan x="5" dy="10">MiGoBrainCaseSane = 14</tspan><tspan x="5" dy="10">NyarlathotepSane = 15</tspan><tspan x="5" dy="10">TheShiningTrapezohedronSane = 16</tspan><tspan x="5" dy="10">CthulhuInsane = 17</tspan><tspan x="5" dy="10">DeepOnesInsane = 18</tspan><tspan x="5" dy="10">GoldenMeadInsane = 19</tspan><tspan x="5" dy="10">HoundOfTindalosInsane = 20</tspan><tspan x="5" dy="10">LiberIvonisInsane = 21</tspan><tspan x="5" dy="10">MiGoInsane = 22</tspan><tspan x="5" dy="10">MiGoBrainCaseInsane = 23</tspan><tspan x="5" dy="10">NyarlathotepInsane = 24</tspan><tspan x="5" dy="10">TheShiningTrapezohedronInsane = 25</tspan></text><line x1="0" y1="297" y2="297" x2="186.03125"></line><text x="5" y="312" fill="white" class="classText"></text></g><g id="classid-Card-2" class="classGroup" transform="translate(537.42578125,351 )"><rect x="0" y="0" width="262.078125" height="258" class=" "></rect><text y="15" x="0"><tspan x="107.46875">«abstract»</tspan><tspan class="title" dy="10" x="119.640625">Card</tspan></text><line x1="0" y1="31" y2="31" x2="262.078125"></line><text x="5" y="41" fill="white" class="classText"><tspan x="5">- name : String</tspan><tspan x="5" dy="10">- description : String</tspan><tspan x="5" dy="10">- value : int</tspan><tspan x="5" dy="10">- sanity : Sanity</tspan></text><line x1="0" y1="77" y2="77" x2="262.078125"></line><text x="5" y="92" fill="white" class="classText"><tspan x="5">+Card(_name : String, _description : String, _value : int)</tspan><tspan x="5" dy="10">+name()</tspan><tspan x="5" dy="10">+name(newvalue : String)</tspan><tspan x="5" dy="10">+getName()</tspan><tspan x="5" dy="10">+description()</tspan><tspan x="5" dy="10">+description(newvalue : String)</tspan><tspan x="5" dy="10">+getDescrption()</tspan><tspan x="5" dy="10">+value()</tspan><tspan x="5" dy="10">+value(newvalue : int)</tspan><tspan x="5" dy="10">+getValue()</tspan><tspan x="5" dy="10">+getOwner()</tspan><tspan x="5" dy="10">+setOwner(owner : Player)</tspan><tspan x="5" dy="10">+*sanity()</tspan><tspan x="5" dy="10">+*sanity(newvalue : Sanity)</tspan><tspan x="5" dy="10">+*getSanity()</tspan><tspan x="5" dy="10">+*hasInsane()</tspan><tspan x="5" dy="10">+*effect(sanity : Sanity)</tspan></text></g><g id="classid-SaneCard-3" class="classGroup" transform="translate(161.9453125,774.5 )"><rect x="0" y="0" width="285.421875" height="67" class=" "></rect><text y="15" x="0"><tspan x="119.140625">«abstract»</tspan><tspan class="title" dy="10" x="119.359375">SaneCard</tspan></text><line x1="0" y1="31" y2="31" x2="285.421875"></line><text x="5" y="41" fill="white" class="classText"></text><line x1="0" y1="36" y2="36" x2="285.421875"></line><text x="5" y="51" fill="white" class="classText"><tspan x="5">+SaneCard(_name : String, _description : String, _value : int)</tspan><tspan x="5" dy="10">+__hasInsane()</tspan></text></g><g id="classid-InsaneCard-4" class="classGroup" transform="translate(0,1122.5 )"><rect x="0" y="0" width="292.09375" height="67" class=" "></rect><text y="15" x="0"><tspan x="122.4765625">«abstract»</tspan><tspan class="title" dy="10" x="118.8046875">InsaneCard</tspan></text><line x1="0" y1="31" y2="31" x2="292.09375"></line><text x="5" y="41" fill="white" class="classText"></text><line x1="0" y1="36" y2="36" x2="292.09375"></line><text x="5" y="51" fill="white" class="classText"><tspan x="5">+InsaneCard(_name : String, _description : String, _value : int)</tspan><tspan x="5" dy="10">+__hasInsane()</tspan></text></g><g id="classid-SpecifiedCard-5" class="classGroup" transform="translate(153.0546875,1355 )"><rect x="0" y="0" width="303.203125" height="57" class=" "></rect><text y="15" x="0"><tspan class="title" x="117.9765625">SpecifiedCard</tspan></text><line x1="0" y1="21" y2="21" x2="303.203125"></line><text x="5" y="31" fill="white" class="classText"></text><line x1="0" y1="26" y2="26" x2="303.203125"></line><text x="5" y="41" fill="white" class="classText"><tspan x="5">+SpecifiedCard(_name : String, _description : String, _value : int)</tspan><tspan x="5" dy="10">+effect(sanity : Sanity)</tspan></text></g><g id="classid-GameManager-6" class="classGroup" transform="translate(844.45703125,1.5 )"><rect x="0" y="0" width="309.328125" height="298" class=" "></rect><text y="15" x="0"><tspan class="title" x="120.1484375">GameManager</tspan></text><line x1="0" y1="21" y2="21" x2="309.328125"></line><text x="5" y="31" fill="white" class="classText"><tspan x="5">- allAI : Boolean</tspan><tspan x="5" dy="10">- roundNumber : int</tspan></text><line x1="0" y1="47" y2="47" x2="309.328125"></line><text x="5" y="62" fill="white" class="classText"><tspan x="5">+GameManager(view : View, nbPlayer : int, nbAI : int)</tspan><tspan x="5" dy="10">+__buildDeck()</tspan><tspan x="5" dy="10">+buildHand()</tspan><tspan x="5" dy="10">+isGameEnd()</tspan><tspan x="5" dy="10">+startNewRound()</tspan><tspan x="5" dy="10">+startNewGame()</tspan><tspan x="5" dy="10">+play(cardNumber : int)</tspan><tspan x="5" dy="10">+playAI(cardEffectValue : int)</tspan><tspan x="5" dy="10">+isRoundEnd()</tspan><tspan x="5" dy="10">+getCurrentPlayer()</tspan><tspan x="5" dy="10">+chooseTargetPlayer(nbPlayer : int, allowCurrentPlayer : Boolean)</tspan><tspan x="5" dy="10">+getPlayers()</tspan><tspan x="5" dy="10">+checkPlayableCard(card : Card)</tspan><tspan x="5" dy="10">+findWinnerWthSpecialEffect()</tspan><tspan x="5" dy="10">+sanityCheck(player : Player)</tspan><tspan x="5" dy="10">+redistribute()</tspan><tspan x="5" dy="10">+chooseNumber()</tspan><tspan x="5" dy="10">+showHandToCurrent(hand : List&lt;Card&gt;)</tspan><tspan x="5" dy="10">+askInsanity(card : Card)</tspan><tspan x="5" dy="10">+playerDraw(player : Player, nbCard : int)</tspan><tspan x="5" dy="10">+playerDiscard(player : Player, nbCard : int)</tspan><tspan x="5" dy="10">+printAIQtable()</tspan><tspan x="5" dy="10">+printGameState()</tspan><tspan x="5" dy="10">+run()</tspan></text></g><g id="classid-Player-7" class="classGroup" transform="translate(497.3671875,659 )"><rect x="0" y="0" width="685.671875" height="298" class=" "></rect><text y="15" x="0"><tspan class="title" x="327.765625">Player</tspan></text><line x1="0" y1="21" y2="21" x2="685.671875"></line><text x="5" y="31" fill="white" class="classText"><tspan x="5">- saneToken : int</tspan><tspan x="5" dy="10">- insaneToken : int</tspan><tspan x="5" dy="10">- knockedOut : Boolean</tspan><tspan x="5" dy="10">- knockableOut : Boolean</tspan><tspan x="5" dy="10">- immune : Boolean</tspan></text><line x1="0" y1="77" y2="77" x2="685.671875"></line><text x="5" y="92" fill="white" class="classText"><tspan x="5">+Player(saneToken : int, insaneToken : int, hand : List&lt;Card&gt;, discard : List&lt;Card&gt;, knockedOut : Boolean, knockableOut : Boolean, immune : Boolean)</tspan><tspan x="5" dy="10">+nbInsaneCardDiscarded()</tspan><tspan x="5" dy="10">+stateOfMind()</tspan><tspan x="5" dy="10">+updateToken()</tspan><tspan x="5" dy="10">+pickUp(card : Card)</tspan><tspan x="5" dy="10">+getHand()</tspan><tspan x="5" dy="10">+setHand(hand : List&lt;Card&gt;)</tspan><tspan x="5" dy="10">+getDiscard()</tspan><tspan x="5" dy="10">+setDiscard(discard : List&lt;Card&gt;)</tspan><tspan x="5" dy="10">+getSaneToken()</tspan><tspan x="5" dy="10">+setSaneToken(saneToken : int)</tspan><tspan x="5" dy="10">+getInsaneToken()</tspan><tspan x="5" dy="10">+setInsaneToken(insaneToken : int)</tspan><tspan x="5" dy="10">+getKnockedOut()</tspan><tspan x="5" dy="10">+setKnockedOut(knockedOut : Boolean)</tspan><tspan x="5" dy="10">+isKnockableOut()</tspan><tspan x="5" dy="10">+setKnockableOut(knockableOut : Boolean)</tspan><tspan x="5" dy="10">+getImmune()</tspan><tspan x="5" dy="10">+setImmune(immune : Boolean)</tspan><tspan x="5" dy="10">+getCardFromHand(cardNumber : int)</tspan><tspan x="5" dy="10">+addDiscardedCard(card : Card)</tspan></text></g><g id="classid-Agent-8" class="classGroup" transform="translate(868.859375,1007 )"><rect x="0" y="0" width="871.34375" height="298" class=" "></rect><text y="15" x="0"><tspan class="title" x="421.171875">Agent</tspan></text><line x1="0" y1="21" y2="21" x2="871.34375"></line><text x="5" y="31" fill="white" class="classText"><tspan x="5">- saneToken : int</tspan><tspan x="5" dy="10">- insaneToken : int</tspan><tspan x="5" dy="10">- knockedOut : Boolean</tspan><tspan x="5" dy="10">- knockableOut : Boolean</tspan><tspan x="5" dy="10">- immune : Boolean</tspan><tspan x="5" dy="10">- epsilon : float</tspan><tspan x="5" dy="10">- alpha : float</tspan><tspan x="5" dy="10">- gamma : float</tspan><tspan x="5" dy="10">- q : Dictionnary&lt;Dictionnary&lt;List&lt;int&gt;,AIActionsEnum&gt;,float&gt;</tspan><tspan x="5" dy="10">- lastAction : AIActionsEnum</tspan><tspan x="5" dy="10">- score : int</tspan><tspan x="5" dy="10">- winReward : int</tspan><tspan x="5" dy="10">- knockedReward : int</tspan><tspan x="5" dy="10">- immuneReward : int</tspan></text><line x1="0" y1="167" y2="167" x2="871.34375"></line><text x="5" y="182" fill="white" class="classText"><tspan x="5">+Agent(saneToken : int, insaneToken : int, hand : List&lt;Card&gt;, discard : List&lt;Card&gt;, knockedOut : Boolean, knockableOut : Boolean, immune : Boolean, epsilon : float, alpha : float, gamma : float)</tspan><tspan x="5" dy="10">+getQ(state : List&lt;int&gt;, action : AIActionsEnum)</tspan><tspan x="5" dy="10">+learnQ(state : List&lt;int&gt;, action : AIActionsEnum, reward : int, value : float)</tspan><tspan x="5" dy="10">+chooseAction(state : List&lt;int&gt;, actions : List&lt;AIActionsEnum&gt;)</tspan><tspan x="5" dy="10">+learn(state1 : List&lt;int&gt;, action1 : AIActionsEnum, reward : int, state2 : List&lt;int&gt;, actions : List&lt;AIActionsEnum&gt;)</tspan><tspan x="5" dy="10">+printQ()</tspan><tspan x="5" dy="10">+calcState()</tspan><tspan x="5" dy="10">+calcReward()</tspan><tspan x="5" dy="10">+update(gameManager : GameManager)</tspan><tspan x="5" dy="10">+_buildListOfActions(gameManager : GameManager)</tspan><tspan x="5" dy="10">+___readJsonQTable()</tspan><tspan x="5" dy="10">+___writeJsonQTable(data : Dictionnary&lt;Dictionnary&lt;List&lt;int&gt;,AIActionsEnum&gt;,float&gt;)</tspan></text></g><g id="classid-View-9" class="classGroup" transform="translate(1253.0390625,381.5 )"><rect x="0" y="0" width="275.96875" height="197" class=" "></rect><text y="15" x="0"><tspan class="title" x="126.5625">View</tspan></text><line x1="0" y1="21" y2="21" x2="275.96875"></line><text x="5" y="31" fill="white" class="classText"></text><line x1="0" y1="26" y2="26" x2="275.96875"></line><text x="5" y="41" fill="white" class="classText"><tspan x="5">+View()</tspan><tspan x="5" dy="10">+chooseTargetPlayer(nbPlayer : int, players : List&lt;Player&gt;)</tspan><tspan x="5" dy="10">+cardToPlay(playerHand : List&lt;Card&gt;)</tspan><tspan x="5" dy="10">+cardCantBePlayed()</tspan><tspan x="5" dy="10">+askInsanity()</tspan><tspan x="5" dy="10">+redistribute(inGameCards : List&lt;Card&gt;)</tspan><tspan x="5" dy="10">+chooseNumber(minNb : int, maxNb : int)</tspan><tspan x="5" dy="10">+showCards(cards : List&lt;Card&gt;)</tspan><tspan x="5" dy="10">+playerDiscard(player : Player, nbCard : int)</tspan><tspan x="5" dy="10">+displayRoundWinner(playerIndex : int, sanity : Sanity)</tspan><tspan x="5" dy="10">+displayNewTurn(gameManager : GameManager)</tspan><tspan x="5" dy="10">+_displayNewAction()</tspan><tspan x="5" dy="10">+displayBeginSanityCheck(playerID : int, nbCard : int)</tspan><tspan x="5" dy="10">+displayStepSanityCheck(card : Card)</tspan><tspan x="5" dy="10">+displayCardWillBePlayed(playerID : int, nbCard : int)</tspan><tspan x="5" dy="10">+cls()</tspan></text></g><path d="M537.42578125,535.4687711386697L498.630859375,551.890642615558C459.8359375,568.3125140924465,382.24609375,601.1562570462232,343.451171875,640.9947951897783C304.65625,680.8333333333334,304.65625,727.6666666666666,304.65625,751.0833333333334L304.65625,774.5" id="edge0" class="relation dashed-line" marker-start="url(#extensionStart)"></path><path d="M588.0198102678571,609L585.4214564732142,613.1666666666666C582.8231026785714,617.3333333333334,577.6263950892857,625.6666666666666,581.4402404684934,634C585.2540858477012,642.3333333333334,598.0784841954023,650.6666666666666,604.4906833692529,654.8333333333334L610.9028825431035,659" id="edge1" class="relation"></path><g class="classLabel"><rect class="box" x="563.1875" y="626.96875" width="32.921875" height="16.015625"></rect><text class="label" x="579.313758388723" y="638.4732903525496" fill="red" text-anchor="middle">owner</text></g><g class="cardinality"><text class="type1" x="577.1628179776033" y="616.9608867853631" fill="black" font-size="6">1</text></g><g class="cardinality"><text class="type2" x="603.1457555128999" y="647.9965014546607" fill="black" font-size="6">1</text></g><path d="M274.11938757183907,841.5L252.7739688098659,864.9166666666666C231.4285500478927,888.3333333333334,188.73771252394636,935.1666666666666,167.39229376197318,982C146.046875,1028.8333333333333,146.046875,1075.6666666666667,146.046875,1099.0833333333333L146.046875,1122.5" id="edge2" class="relation dashed-line" marker-start="url(#extensionStart)"></path><path d="M308.97611350574715,841.5L311.99571958812265,864.9166666666666C315.0153256704981,888.3333333333334,321.05453783524905,935.1666666666666,324.07414391762455,987.5833333333334C327.09375,1040,327.09375,1098,327.09375,1156C327.09375,1214,327.09375,1272,325.346281152648,1305.1666666666667C323.59881230529595,1338.3333333333333,320.1038746105919,1346.6666666666667,318.3564057632399,1350.8333333333333L316.60893691588785,1355" id="edge3" class="relation dashed-line" marker-start="url(#extensionStart)"></path><path d="M146.046875,1189.5L146.046875,1212.9166666666667C146.046875,1236.3333333333333,146.046875,1283.1666666666667,158.3996300623053,1310.75C170.75238512461058,1338.3333333333333,195.4578952492212,1346.6666666666667,207.81065031152647,1350.8333333333333L220.16340537383178,1355" id="edge4" class="relation dashed-line" marker-start="url(#extensionStart)"></path><path d="M879.5069594109195,659L880.6060599257662,654.8333333333334C881.705160440613,650.6666666666666,883.9033614703065,642.3333333333334,870.5695192768198,627.9538993089832C857.2356770833334,613.5744652846331,828.3697916666666,593.1489305692662,813.9368489583334,582.9361632115828L799.50390625,572.7233958538993" id="edge5" class="relation"></path><g class="classLabel"><rect class="box" x="839.71875" y="599.328125" width="27.265625" height="16.015625"></rect><text class="label" x="853.3555951632687" y="610.8289147216497" fill="red" text-anchor="middle">hand</text></g><g class="cardinality"><text class="type1" x="887.5298305725003" y="648.1887309567898" fill="black" font-size="6">1</text></g><g class="cardinality"><text class="type2" x="806.8196383410593" y="584.0251684569844" fill="black" font-size="6">0..*</text></g><path d="M896.6333961925287,659L898.2114239104407,654.8333333333334C899.7894516283526,650.6666666666666,902.9455070641762,642.3333333333334,886.7572587404214,626.6532670337799C870.5690104166666,610.9732007342265,835.0364583333334,587.9464014684529,817.2701822916666,576.4330018355662L799.50390625,564.9196022026794" id="edge6" class="relation"></path><g class="classLabel"><rect class="box" x="845.390625" y="595.21875" width="37.25" height="16.015625"></rect><text class="label" x="864.0197296222054" y="606.7289524225499" fill="red" text-anchor="middle">discard</text></g><g class="cardinality"><text class="type1" x="905.736500609387" y="649.0811548063408" fill="black" font-size="6">1</text></g><g class="cardinality"><text class="type2" x="807.2746166892382" y="575.9135123018896" fill="black" font-size="6">0..*</text></g><path d="M840.203125,957L840.203125,961.1666666666666C840.203125,965.3333333333334,840.203125,973.6666666666666,851.3220935105364,982C862.4410620210729,990.3333333333334,884.6789990421456,998.6666666666666,895.797967552682,1002.8333333333334L906.9169360632184,1007" id="edge7" class="relation dashed-line" marker-start="url(#extensionStart)"></path><path d="M844.45703125,230.180155490322L813.4583333333334,246.15012957526832C782.4596354166666,262.1201036602147,720.4622395833334,294.06005183010734,689.7341044372293,314.19669258172036C659.0059692911256,334.3333333333333,659.5470948322511,342.6666666666667,659.8176576028139,346.8333333333333L660.0882203733767,351" id="edge8" class="relation"></path><g class="classLabel"><rect class="box" x="727.25" y="272.3125" width="27.140625" height="16.015625"></rect><text class="label" x="740.3254912087239" y="283.8268602762872" fill="red" text-anchor="middle">deck</text></g><g class="cardinality"><text class="type1" x="831.0550972712895" y="231.4600639363774" fill="black" font-size="6">1</text></g><g class="cardinality"><text class="type2" x="664.2677297492215" y="338.20227749256827" fill="black" font-size="6">0..*</text></g><path d="M920.1472467058404,299.5L917.8062993382003,303.9166666666667C915.4653519705603,308.3333333333333,910.78345723528,317.1666666666667,890.6762338259733,333.0967329662201C870.5690104166666,349.0267992657735,835.0364583333334,372.0535985315471,817.2701822916666,383.56699816443387L799.50390625,395.08039779732064" id="edge9" class="relation"></path><g class="classLabel"><rect class="box" x="830.09375" y="340.875" width="70.59375" height="16.015625"></rect><text class="label" x="865.387325971175" y="352.3847795004914" fill="red" text-anchor="middle">removedCards</text></g><g class="cardinality"><text class="type1" x="909.8755363174816" y="308.20298602191707" fill="black" font-size="6">1</text></g><g class="cardinality"><text class="type2" x="812.7129793951106" y="392.4784011318499" fill="black" font-size="6">0..*</text></g><path d="M999.12109375,299.5L999.12109375,303.9166666666667C999.12109375,308.3333333333333,999.12109375,317.1666666666667,999.12109375,347.25C999.12109375,377.3333333333333,999.12109375,428.6666666666667,999.12109375,480C999.12109375,531.3333333333334,999.12109375,582.6666666666666,995.3155868354885,612.5C991.5100799209771,642.3333333333334,983.8990660919541,650.6666666666666,980.0935591774427,654.8333333333334L976.288052262931,659" id="edge10" class="relation"></path><g class="classLabel"><rect class="box" x="980.5" y="472.171875" width="37.25" height="16.015625"></rect><text class="label" x="999.12109375" y="483.67887904994166" fill="red" text-anchor="middle">players</text></g><g class="cardinality"><text class="type1" x="994.12109375" y="312" fill="black" font-size="6">1</text></g><g class="cardinality"><text class="type2" x="988.4097354936283" y="653.1421167940432" fill="black" font-size="6">2..6</text></g><path d="M1016.1011507300569,299.5L1016.6044745667141,303.9166666666667C1017.1077984033712,308.3333333333333,1018.1144460766856,317.1666666666667,1018.6177699133428,347.25C1019.12109375,377.3333333333333,1019.12109375,428.6666666666667,1019.12109375,480C1019.12109375,531.3333333333334,1019.12109375,582.6666666666666,1014.8366596324234,612.5C1010.5522255148468,642.3333333333334,1001.9833572796935,650.6666666666666,997.6989231621169,654.8333333333334L993.4144890445402,659" id="edge11" class="relation"></path><g class="classLabel"><rect class="box" x="986.875" y="473.078125" width="65.15625" height="16.015625"></rect><text class="label" x="1019.12109375" y="484.59347187366694" fill="red" text-anchor="middle">currentPlayer</text></g><g class="cardinality"><text class="type1" x="1012.5486457681922" y="312.48575020920725" fill="black" font-size="6">1</text></g><g class="cardinality"><text class="type2" x="1005.861551586267" y="653.8696360672614" fill="black" font-size="6">1</text></g><path d="M1153.78515625,274.48956158663884L1164.494140625,283.0746346555324C1175.203125,291.6597077244259,1196.62109375,308.82985386221293,1207.330078125,343.0815935977732C1218.0390625,377.3333333333333,1218.0390625,428.6666666666667,1218.0390625,480C1218.0390625,531.3333333333334,1218.0390625,582.6666666666666,1218.0390625,637.3333333333334C1218.0390625,692,1218.0390625,750,1218.0390625,808C1218.0390625,866,1218.0390625,924,1220.110235572318,957.1666666666666C1222.181408644636,990.3333333333334,1226.323754789272,998.6666666666666,1228.39492786159,1002.8333333333334L1230.4661009339081,1007" id="edge12" class="relation"></path><g class="cardinality"><text class="type1" x="1160.4106190717364" y="286.2093415503494" fill="black" font-size="6">1</text></g><g class="cardinality"><text class="type2" x="1229.3794307521905" y="993.5810153917606" fill="black" font-size="6">0..2</text></g><path d="M1153.78515625,219.76098657390332L1193.3248697916667,237.4674888115861C1232.8645833333333,255.1739910492689,1311.9440104166667,290.58699552463446,1351.4837239583333,317.5434977623172C1391.0234375,344.5,1391.0234375,363,1391.0234375,372.25L1391.0234375,381.5" id="edge13" class="relation"></path><g class="classLabel"><rect class="box" x="1285.21875" y="272.71875" width="25.796875" height="16.015625"></rect><text class="label" x="1297.7307794750595" y="284.22208837357323" fill="red" text-anchor="middle">view</text></g><g class="cardinality"><text class="type1" x="1163.1499510992842" y="229.43314338770753" fill="black" font-size="6">1</text></g><g class="cardinality"><text class="type2" x="1396.0234375" y="369" fill="black" font-size="6">1</text></g><path d="M1335.7021357548701,578.5L1330.5069881290585,587.75C1325.3118405032467,597,1314.9215452516235,615.5,1289.477699709145,632.337895817209C1264.0338541666667,649.175791634418,1223.5364583333333,664.351583268836,1203.2877604166667,671.939479086045L1183.0390625,679.527374903254" id="edge14" class="relation"></path><g class="cardinality"><text class="type1" x="1325.2215283908854" y="586.9502585334408" fill="black" font-size="6">1</text></g><g class="cardinality"><text class="type2" x="1196.4987260782948" y="679.8231051166659" fill="black" font-size="6">0..2</text></g><path d="M1391.0234375,578.5L1391.0234375,587.75C1391.0234375,597,1391.0234375,615.5,1391.0234375,653.75C1391.0234375,692,1391.0234375,750,1391.0234375,808C1391.0234375,866,1391.0234375,924,1388.952264427682,957.1666666666666C1386.881091355364,990.3333333333334,1382.738745210728,998.6666666666666,1380.66757213841,1002.8333333333334L1378.5963990660919,1007" id="edge15" class="relation"></path><g class="cardinality"><text class="type1" x="1386.0234375" y="591" fill="black" font-size="6">1</text></g><g class="cardinality"><text class="type2" x="1388.6377703068113" y="998.0322319607354" fill="black" font-size="6">0..2</text></g></svg>