<svg id="mermaid-1608032775403" width="100%" xmlns="http://www.w3.org/2000/svg" xmlns:xlink="http://www.w3.org/1999/xlink" height="848" style="max-width: 859.17578125px;" viewBox="-20 -20 859.17578125 848"><style>#mermaid-1608032775403{font-family:"trebuchet ms",verdana,arial;font-size:16px;fill:#333;}#mermaid-1608032775403 .error-icon{fill:#552222;}#mermaid-1608032775403 .error-text{fill:#552222;stroke:#552222;}#mermaid-1608032775403 .edge-thickness-normal{stroke-width:2px;}#mermaid-1608032775403 .edge-thickness-thick{stroke-width:3.5px;}#mermaid-1608032775403 .edge-pattern-solid{stroke-dasharray:0;}#mermaid-1608032775403 .edge-pattern-dashed{stroke-dasharray:3;}#mermaid-1608032775403 .edge-pattern-dotted{stroke-dasharray:2;}#mermaid-1608032775403 .marker{fill:#333333;}#mermaid-1608032775403 .marker.cross{stroke:#333333;}#mermaid-1608032775403 svg{font-family:"trebuchet ms",verdana,arial;font-size:16px;}#mermaid-1608032775403 g.classGroup text{fill:#9370DB;fill:#131300;stroke:none;font-family:"trebuchet ms",verdana,arial;font-size:10px;}#mermaid-1608032775403 g.classGroup text .title{font-weight:bolder;}#mermaid-1608032775403 .classTitle{font-weight:bolder;}#mermaid-1608032775403 .node rect,#mermaid-1608032775403 .node circle,#mermaid-1608032775403 .node ellipse,#mermaid-1608032775403 .node polygon,#mermaid-1608032775403 .node path{fill:#ECECFF;stroke:#9370DB;stroke-width:1px;}#mermaid-1608032775403 .divider{stroke:#9370DB;stroke:1;}#mermaid-1608032775403 g.clickable{cursor:pointer;}#mermaid-1608032775403 g.classGroup rect{fill:#ECECFF;stroke:#9370DB;}#mermaid-1608032775403 g.classGroup line{stroke:#9370DB;stroke-width:1;}#mermaid-1608032775403 .classLabel .box{stroke:none;stroke-width:0;fill:#ECECFF;opacity:0.5;}#mermaid-1608032775403 .classLabel .label{fill:#9370DB;font-size:10px;}#mermaid-1608032775403 .relation{stroke:#333333;stroke-width:1;fill:none;}#mermaid-1608032775403 .dashed-line{stroke-dasharray:3;}#mermaid-1608032775403 #compositionStart,#mermaid-1608032775403 .composition{fill:#333333 !important;stroke:#333333 !important;stroke-width:1;}#mermaid-1608032775403 #compositionEnd,#mermaid-1608032775403 .composition{fill:#333333 !important;stroke:#333333 !important;stroke-width:1;}#mermaid-1608032775403 #dependencyStart,#mermaid-1608032775403 .dependency{fill:#333333 !important;stroke:#333333 !important;stroke-width:1;}#mermaid-1608032775403 #dependencyStart,#mermaid-1608032775403 .dependency{fill:#333333 !important;stroke:#333333 !important;stroke-width:1;}#mermaid-1608032775403 #extensionStart,#mermaid-1608032775403 .extension{fill:#333333 !important;stroke:#333333 !important;stroke-width:1;}#mermaid-1608032775403 #extensionEnd,#mermaid-1608032775403 .extension{fill:#333333 !important;stroke:#333333 !important;stroke-width:1;}#mermaid-1608032775403 #aggregationStart,#mermaid-1608032775403 .aggregation{fill:#ECECFF !important;stroke:#333333 !important;stroke-width:1;}#mermaid-1608032775403 #aggregationEnd,#mermaid-1608032775403 .aggregation{fill:#ECECFF !important;stroke:#333333 !important;stroke-width:1;}#mermaid-1608032775403 .edgeTerminals{font-size:11px;}#mermaid-1608032775403:root{--mermaid-font-family:"trebuchet ms",verdana,arial;}#mermaid-1608032775403 class{fill:apa;}</style><g></g><defs><marker id="extensionStart" class="extension" refX="0" refY="7" markerWidth="190" markerHeight="240" orient="auto"><path d="M 1,7 L18,13 V 1 Z"></path></marker></defs><defs><marker id="extensionEnd" refX="19" refY="7" markerWidth="20" markerHeight="28" orient="auto"><path d="M 1,1 V 13 L18,7 Z"></path></marker></defs><defs><marker id="compositionStart" class="extension" refX="0" refY="7" markerWidth="190" markerHeight="240" orient="auto"><path d="M 18,7 L9,13 L1,7 L9,1 Z"></path></marker></defs><defs><marker id="compositionEnd" refX="19" refY="7" markerWidth="20" markerHeight="28" orient="auto"><path d="M 18,7 L9,13 L1,7 L9,1 Z"></path></marker></defs><defs><marker id="aggregationStart" class="extension" refX="0" refY="7" markerWidth="190" markerHeight="240" orient="auto"><path d="M 18,7 L9,13 L1,7 L9,1 Z"></path></marker></defs><defs><marker id="aggregationEnd" refX="19" refY="7" markerWidth="20" markerHeight="28" orient="auto"><path d="M 18,7 L9,13 L1,7 L9,1 Z"></path></marker></defs><defs><marker id="dependencyStart" class="extension" refX="0" refY="7" markerWidth="190" markerHeight="240" orient="auto"><path d="M 5,7 L9,13 L1,7 L9,1 Z"></path></marker></defs><defs><marker id="dependencyEnd" refX="19" refY="7" markerWidth="20" markerHeight="28" orient="auto"><path d="M 18,7 L9,13 L14,7 L9,1 Z"></path></marker></defs><g id="classid-Sanity-0" class="classGroup" transform="translate(0,3 )"><rect x="0" y="0" width="106.703125" height="71" class=" "></rect><text y="15" x="0"><tspan x="19.640625">«enumeration»</tspan><tspan class="title" dy="10" x="38.703125">Sanity</tspan></text><line x1="0" y1="31" y2="31" x2="106.703125"></line><text x="5" y="41" fill="white" class="classText"><tspan x="5">SANE</tspan><tspan x="5" dy="10">INSANE</tspan><tspan x="5" dy="10">NEUTRAL</tspan></text><line x1="0" y1="67" y2="67" x2="106.703125"></line><text x="5" y="82" fill="white" class="classText"></text></g><g id="classid-Card-1" class="classGroup" transform="translate(35.328125,533 )"><rect x="0" y="0" width="268.03125" height="148" class=" "></rect><text y="15" x="0"><tspan x="110.3203125">«abstract»</tspan><tspan class="title" dy="10" x="123.15625">Card</tspan></text><line x1="0" y1="31" y2="31" x2="268.03125"></line><text x="5" y="41" fill="white" class="classText"><tspan x="5">- name : string</tspan><tspan x="5" dy="10">- description : string</tspan><tspan x="5" dy="10">- value : int</tspan><tspan x="5" dy="10">- sanity : Sanity</tspan></text><line x1="0" y1="77" y2="77" x2="268.03125"></line><text x="5" y="92" fill="white" class="classText"><tspan x="5">+Card(_name : string, _description : string, _value : int)</tspan><tspan x="5" dy="10">+getDescrption()</tspan><tspan x="5" dy="10">+getName()</tspan><tspan x="5" dy="10">+getValue()</tspan><tspan x="5" dy="10">+hasInsane()</tspan><tspan x="5" dy="10">+effect(sanity : Sanity)</tspan></text></g><g id="classid-SaneCard-2" class="classGroup" transform="translate(428.42578125,731 )"><rect x="0" y="0" width="289.015625" height="77" class=" "></rect><text y="15" x="0"><tspan x="120.8125">«abstract»</tspan><tspan class="title" dy="10" x="122.59375">SaneCard</tspan></text><line x1="0" y1="31" y2="31" x2="289.015625"></line><text x="5" y="41" fill="white" class="classText"></text><line x1="0" y1="36" y2="36" x2="289.015625"></line><text x="5" y="51" fill="white" class="classText"><tspan x="5">+SaneCard(_name : string, _description : string, _value : int)</tspan><tspan x="5" dy="10">+effect(sanity : Sanity)</tspan><tspan x="5" dy="10">+hasInsane()</tspan></text></g><g id="classid-InsaneCard-3" class="classGroup" transform="translate(353.359375,568.5 )"><rect x="0" y="0" width="296.5" height="77" class=" "></rect><text y="15" x="0"><tspan x="124.5546875">«abstract»</tspan><tspan class="title" dy="10" x="122.3984375">InsaneCard</tspan></text><line x1="0" y1="31" y2="31" x2="296.5"></line><text x="5" y="41" fill="white" class="classText"></text><line x1="0" y1="36" y2="36" x2="296.5"></line><text x="5" y="51" fill="white" class="classText"><tspan x="5">+InsaneCard(_name : string, _description : string, _value : int)</tspan><tspan x="5" dy="10">+effect(sanity : Sanity)</tspan><tspan x="5" dy="10">+hasInsane()</tspan></text></g><g id="classid-SpecifiedCard-4" class="classGroup" transform="translate(509.94140625,385.5 )"><rect x="0" y="0" width="309.234375" height="57" class=" "></rect><text y="15" x="0"><tspan class="title" x="122.2421875">SpecifiedCard</tspan></text><line x1="0" y1="21" y2="21" x2="309.234375"></line><text x="5" y="31" fill="white" class="classText"></text><line x1="0" y1="26" y2="26" x2="309.234375"></line><text x="5" y="41" fill="white" class="classText"><tspan x="5">+SpecifiedCard(_name : string, _description : string, _value : int)</tspan><tspan x="5" dy="10">+effect(sanity : Sanity)</tspan></text></g><g id="classid-GameManager-5" class="classGroup" transform="translate(204.078125,127 )"><rect x="0" y="0" width="175.828125" height="168" class=" "></rect><text y="15" x="0"><tspan class="title" x="54.828125">GameManager</tspan></text><line x1="0" y1="21" y2="21" x2="175.828125"></line><text x="5" y="31" fill="white" class="classText"><tspan x="5">- roundNumber : int</tspan></text><line x1="0" y1="37" y2="37" x2="175.828125"></line><text x="5" y="52" fill="white" class="classText"><tspan x="5">+GameManager(nbPlayer : int)</tspan><tspan x="5" dy="10">+isGameEnd()</tspan><tspan x="5" dy="10">+nextRound()</tspan><tspan x="5" dy="10">+play()</tspan><tspan x="5" dy="10">+chooseTargetPlayer(int : nbPlayer)</tspan><tspan x="5" dy="10">+sanityCheck(Player : player)</tspan><tspan x="5" dy="10">+isGameEnd()</tspan><tspan x="5" dy="10">+isRoundEnd()</tspan><tspan x="5" dy="10">+findWinnerWthSpecialEffect()</tspan><tspan x="5" dy="10">+startNewRound()</tspan><tspan x="5" dy="10">+getCurrentPlayer()</tspan><tspan x="5" dy="10">+checkPlayableCard(Card : card)</tspan></text></g><g id="classid-Player-6" class="classGroup" transform="translate(76.6484375,345 )"><rect x="0" y="0" width="185.390625" height="138" class=" "></rect><text y="15" x="0"><tspan class="title" x="77.578125">Player</tspan></text><line x1="0" y1="21" y2="21" x2="185.390625"></line><text x="5" y="31" fill="white" class="classText"><tspan x="5">- saneToken : int</tspan><tspan x="5" dy="10">- insaneToken : int</tspan></text><line x1="0" y1="47" y2="47" x2="185.390625"></line><text x="5" y="62" fill="white" class="classText"><tspan x="5">+updateToken()</tspan><tspan x="5" dy="10">+getHand()</tspan><tspan x="5" dy="10">+getDiscard()</tspan><tspan x="5" dy="10">+getSaneToken()</tspan><tspan x="5" dy="10">+getInsaneToken()</tspan><tspan x="5" dy="10">+roundWon()</tspan><tspan x="5" dy="10">+getCardFromHand(int : cardNumber)</tspan><tspan x="5" dy="10">+addDiscardedCard(Card : card)</tspan></text></g><g id="classid-View-7" class="classGroup" transform="translate(156.703125,0 )"><rect x="0" y="0" width="270.578125" height="77" class=" "></rect><text y="15" x="0"><tspan class="title" x="123.90625">View</tspan></text><line x1="0" y1="21" y2="21" x2="270.578125"></line><text x="5" y="31" fill="white" class="classText"></text><line x1="0" y1="26" y2="26" x2="270.578125"></line><text x="5" y="41" fill="white" class="classText"><tspan x="5">+View()</tspan><tspan x="5" dy="10">+chooseTargerPlayer(int : nbPlayer, List&lt;Player&gt; players)</tspan><tspan x="5" dy="10">+cardCantBePlayer()</tspan><tspan x="5" dy="10">+askInsanity()</tspan></text></g><path d="M169.34375,681L169.34375,685.1666666666666C169.34375,689.3333333333334,169.34375,697.6666666666666,212.52408854166666,708.627239423533C255.70442708333334,719.5878121803993,342.0651041666667,733.1756243607985,385.2454427083333,739.9695304509979L428.42578125,746.7634365411976" id="edge0" class="relation dashed-line" marker-start="url(#extensionStart)"></path><path d="M501.609375,645.5L501.609375,655.5833333333334C501.609375,665.6666666666666,501.609375,685.8333333333334,506.28944184711287,700.0833333333334C510.9695086942258,714.3333333333334,520.3296423884515,722.6666666666666,525.0097092355644,726.8333333333334L529.6897760826772,731" id="edge1" class="relation dashed-line" marker-start="url(#extensionStart)"></path><path d="M670.7136178523937,442.5L673.0712440436614,453.4166666666667C675.4288702349291,464.3333333333333,680.1441226174646,486.1666666666667,682.5017488087323,513.5833333333334C684.859375,541,684.859375,574,684.859375,607C684.859375,640,684.859375,673,677.5151636318898,693.6666666666666C670.1709522637794,714.3333333333334,655.482529527559,722.6666666666666,648.1383181594488,726.8333333333334L640.7941067913385,731" id="edge2" class="relation dashed-line" marker-start="url(#extensionStart)"></path><path d="M615.1537774268617,442.5L596.2297103557181,453.4166666666667C577.3056432845744,464.3333333333333,539.4575091422872,486.1666666666667,520.5334420711437,507.1666666666667C501.609375,528.1666666666666,501.609375,548.3333333333334,501.609375,558.4166666666666L501.609375,568.5" id="edge3" class="relation dashed-line" marker-start="url(#extensionStart)"></path><path d="M162.0033244680851,483L161.5600620567376,487.1666666666667C161.11679964539007,491.3333333333333,160.23027482269504,499.6666666666667,160.20788783222295,508C160.18550084175084,516.3333333333334,161.02725168350167,524.6666666666666,161.4481271043771,528.8333333333334L161.8690025252525,533" id="edge4" class="relation"></path><g class="classLabel"><rect class="box" x="145.953125" y="496.484375" width="26.78125" height="16.015625"></rect><text class="label" x="159.34448280024642" y="507.9931116776838" fill="red" text-anchor="middle">hand</text></g><g class="cardinality"><text class="type1" x="155.7090542197705" y="494.9009311417713" fill="black" font-size="6">1</text></g><g class="cardinality"><text class="type2" x="165.58745464584166" y="520.0607916074094" fill="black" font-size="6">0..*</text></g><path d="M214.3583361037234,483L217.07660821143614,487.1666666666667C219.79488031914892,491.3333333333333,225.23142453457444,499.6666666666667,225.36871100466098,508C225.5059974747475,516.3333333333334,220.34402619949495,524.6666666666666,217.7630405618687,528.8333333333334L215.18205492424244,533" id="edge5" class="relation"></path><g class="classLabel"><rect class="box" x="211.96875" y="496.3125" width="37.15625" height="16.015625"></rect><text class="label" x="230.5472215723451" y="507.81491432046073" fill="red" text-anchor="middle">discard</text></g><g class="cardinality"><text class="type1" x="217.0005880866438" y="496.20107967019186" fill="black" font-size="6">1</text></g><g class="cardinality"><text class="type2" x="226.01506098958814" y="525.0065039195491" fill="black" font-size="6">0..*</text></g><path d="M362.37048451834863,295L365.86147147362385,299.1666666666667C369.35245842889907,303.3333333333333,376.3344323394495,311.6666666666667,379.8254192947247,331.5C383.31640625,351.3333333333333,383.31640625,382.6666666666667,383.31640625,414C383.31640625,445.3333333333333,383.31640625,476.6666666666667,369.990234375,498.4990324406229C356.6640625,520.3313982145792,330.01171875,532.6627964291582,316.685546875,538.8284955364478L303.359375,544.9941946437374" id="edge6" class="relation"></path><g class="classLabel"><rect class="box" x="370.296875" y="430.234375" width="27" height="16.015625"></rect><text class="label" x="383.31640625" y="441.7427981796368" fill="red" text-anchor="middle">deck</text></g><g class="cardinality"><text class="type1" x="366.565623114957" y="307.7926077152099" fill="black" font-size="6">1</text></g><g class="cardinality"><text class="type2" x="316.8034976343782" y="544.2831625827165" fill="black" font-size="6">0..*</text></g><path d="M204.078125,283.2408269038224L196.62239583333334,289.36735575318534C189.16666666666666,295.49388460254823,174.25520833333334,307.74694230127415,167.24274157801418,318.04013781730373C160.23027482269504,328.3333333333333,161.11679964539007,336.6666666666667,161.5600620567376,340.8333333333333L162.0033244680851,345" id="edge7" class="relation"></path><g class="cardinality"><text class="type1" x="191.24606044505893" y="287.3136783936051" fill="black" font-size="6">1</text></g><g class="cardinality"><text class="type2" x="165.65294335156165" y="332.0412083122935" fill="black" font-size="6">2..6</text></g><path d="M244.73315653669727,295L242.3889585722477,299.1666666666667C240.04476060779817,303.3333333333333,235.3563646788991,311.6666666666667,230.29389460673676,320C225.23142453457444,328.3333333333333,219.79488031914892,336.6666666666667,217.07660821143614,340.8333333333333L214.3583361037234,345" id="edge8" class="relation"></path><g class="classLabel"><rect class="box" x="210.796875" y="308.984375" width="39.140625" height="16.015625"></rect><text class="label" x="230.3497808846237" y="320.4877299695786" fill="red" text-anchor="middle">Current</text></g><g class="cardinality"><text class="type1" x="234.24632384716386" y="303.4425316192321" fill="black" font-size="6">1</text></g><g class="cardinality"><text class="type2" x="225.37588386390155" y="337.26284022704755" fill="black" font-size="6">1</text></g><path d="M291.9921875,77L291.9921875,81.16666666666667C291.9921875,85.33333333333333,291.9921875,93.66666666666667,291.9921875,102C291.9921875,110.33333333333333,291.9921875,118.66666666666667,291.9921875,122.83333333333333L291.9921875,127" id="edge9" class="relation"></path><g class="cardinality"><text class="type1" x="286.9921875" y="89.5" fill="black" font-size="6">1</text></g><g class="cardinality"><text class="type2" x="296.9921875" y="114.5" fill="black" font-size="6">1</text></g></svg>