<svg id="mermaid-1605196441705" width="100%" xmlns="http://www.w3.org/2000/svg" xmlns:xlink="http://www.w3.org/1999/xlink" height="554" style="max-width: 448.21484375px;" viewBox="-20 -20 448.21484375 554"><style>#mermaid-1605196441705{font-family:"trebuchet ms",verdana,arial;font-size:16px;fill:#333;}#mermaid-1605196441705 .error-icon{fill:#552222;}#mermaid-1605196441705 .error-text{fill:#552222;stroke:#552222;}#mermaid-1605196441705 .edge-thickness-normal{stroke-width:2px;}#mermaid-1605196441705 .edge-thickness-thick{stroke-width:3.5px;}#mermaid-1605196441705 .edge-pattern-solid{stroke-dasharray:0;}#mermaid-1605196441705 .edge-pattern-dashed{stroke-dasharray:3;}#mermaid-1605196441705 .edge-pattern-dotted{stroke-dasharray:2;}#mermaid-1605196441705 .marker{fill:#333333;}#mermaid-1605196441705 .marker.cross{stroke:#333333;}#mermaid-1605196441705 svg{font-family:"trebuchet ms",verdana,arial;font-size:16px;}#mermaid-1605196441705 g.classGroup text{fill:#9370DB;fill:#131300;stroke:none;font-family:"trebuchet ms",verdana,arial;font-size:10px;}#mermaid-1605196441705 g.classGroup text .title{font-weight:bolder;}#mermaid-1605196441705 .classTitle{font-weight:bolder;}#mermaid-1605196441705 .node rect,#mermaid-1605196441705 .node circle,#mermaid-1605196441705 .node ellipse,#mermaid-1605196441705 .node polygon,#mermaid-1605196441705 .node path{fill:#ECECFF;stroke:#9370DB;stroke-width:1px;}#mermaid-1605196441705 .divider{stroke:#9370DB;stroke:1;}#mermaid-1605196441705 g.clickable{cursor:pointer;}#mermaid-1605196441705 g.classGroup rect{fill:#ECECFF;stroke:#9370DB;}#mermaid-1605196441705 g.classGroup line{stroke:#9370DB;stroke-width:1;}#mermaid-1605196441705 .classLabel .box{stroke:none;stroke-width:0;fill:#ECECFF;opacity:0.5;}#mermaid-1605196441705 .classLabel .label{fill:#9370DB;font-size:10px;}#mermaid-1605196441705 .relation{stroke:#333333;stroke-width:1;fill:none;}#mermaid-1605196441705 .dashed-line{stroke-dasharray:3;}#mermaid-1605196441705 #compositionStart,#mermaid-1605196441705 .composition{fill:#333333 !important;stroke:#333333 !important;stroke-width:1;}#mermaid-1605196441705 #compositionEnd,#mermaid-1605196441705 .composition{fill:#333333 !important;stroke:#333333 !important;stroke-width:1;}#mermaid-1605196441705 #dependencyStart,#mermaid-1605196441705 .dependency{fill:#333333 !important;stroke:#333333 !important;stroke-width:1;}#mermaid-1605196441705 #dependencyStart,#mermaid-1605196441705 .dependency{fill:#333333 !important;stroke:#333333 !important;stroke-width:1;}#mermaid-1605196441705 #extensionStart,#mermaid-1605196441705 .extension{fill:#333333 !important;stroke:#333333 !important;stroke-width:1;}#mermaid-1605196441705 #extensionEnd,#mermaid-1605196441705 .extension{fill:#333333 !important;stroke:#333333 !important;stroke-width:1;}#mermaid-1605196441705 #aggregationStart,#mermaid-1605196441705 .aggregation{fill:#ECECFF !important;stroke:#333333 !important;stroke-width:1;}#mermaid-1605196441705 #aggregationEnd,#mermaid-1605196441705 .aggregation{fill:#ECECFF !important;stroke:#333333 !important;stroke-width:1;}#mermaid-1605196441705 .edgeTerminals{font-size:11px;}#mermaid-1605196441705:root{--mermaid-font-family:"trebuchet ms",verdana,arial;}#mermaid-1605196441705 class{fill:apa;}</style><g></g><defs><marker id="extensionStart" class="extension" refX="0" refY="7" markerWidth="190" markerHeight="240" orient="auto"><path d="M 1,7 L18,13 V 1 Z"></path></marker></defs><defs><marker id="extensionEnd" refX="19" refY="7" markerWidth="20" markerHeight="28" orient="auto"><path d="M 1,1 V 13 L18,7 Z"></path></marker></defs><defs><marker id="compositionStart" class="extension" refX="0" refY="7" markerWidth="190" markerHeight="240" orient="auto"><path d="M 18,7 L9,13 L1,7 L9,1 Z"></path></marker></defs><defs><marker id="compositionEnd" refX="19" refY="7" markerWidth="20" markerHeight="28" orient="auto"><path d="M 18,7 L9,13 L1,7 L9,1 Z"></path></marker></defs><defs><marker id="aggregationStart" class="extension" refX="0" refY="7" markerWidth="190" markerHeight="240" orient="auto"><path d="M 18,7 L9,13 L1,7 L9,1 Z"></path></marker></defs><defs><marker id="aggregationEnd" refX="19" refY="7" markerWidth="20" markerHeight="28" orient="auto"><path d="M 18,7 L9,13 L1,7 L9,1 Z"></path></marker></defs><defs><marker id="dependencyStart" class="extension" refX="0" refY="7" markerWidth="190" markerHeight="240" orient="auto"><path d="M 5,7 L9,13 L1,7 L9,1 Z"></path></marker></defs><defs><marker id="dependencyEnd" refX="19" refY="7" markerWidth="20" markerHeight="28" orient="auto"><path d="M 18,7 L9,13 L14,7 L9,1 Z"></path></marker></defs><g id="classid-Sanity-0" class="classGroup" transform="translate(0,0 )"><rect x="0" y="0" width="107.171875" height="71" class=" "></rect><text y="15" x="0"><tspan x="20.0078125">«enumeration»</tspan><tspan class="title" dy="10" x="38.359375">Sanity</tspan></text><line x1="0" y1="31" y2="31" x2="107.171875"></line><text x="5" y="41" fill="white" class="classText"><tspan x="5">SANE</tspan><tspan x="5" dy="10">INSANE</tspan><tspan x="5" dy="10">NEUTRAL</tspan></text><line x1="0" y1="67" y2="67" x2="107.171875"></line><text x="5" y="82" fill="white" class="classText"></text></g><g id="classid-Card-1" class="classGroup" transform="translate(78.12109375,259 )"><rect x="0" y="0" width="114.03125" height="138" class=" "></rect><text y="15" x="0"><tspan x="32.0546875">«interface»</tspan><tspan class="title" dy="10" x="45.6171875">Card</tspan></text><line x1="0" y1="31" y2="31" x2="114.03125"></line><text x="5" y="41" fill="white" class="classText"><tspan x="5">- name : string</tspan><tspan x="5" dy="10">- description : string</tspan><tspan x="5" dy="10">- value : int</tspan><tspan x="5" dy="10">- sanity : Sanity</tspan></text><line x1="0" y1="77" y2="77" x2="114.03125"></line><text x="5" y="92" fill="white" class="classText"><tspan x="5">+getDescrption()</tspan><tspan x="5" dy="10">+getName()</tspan><tspan x="5" dy="10">+getValue()</tspan><tspan x="5" dy="10">+hasInsane()</tspan><tspan x="5" dy="10">+effect(sanity : Sanity)</tspan></text></g><g id="classid-SaneCard-2" class="classGroup" transform="translate(226.609375,447 )"><rect x="0" y="0" width="114.03125" height="67" class=" "></rect><text y="15" x="0"><tspan x="33.4453125">«abstract»</tspan><tspan class="title" dy="10" x="33.6640625">SaneCard</tspan></text><line x1="0" y1="31" y2="31" x2="114.03125"></line><text x="5" y="41" fill="white" class="classText"></text><line x1="0" y1="36" y2="36" x2="114.03125"></line><text x="5" y="51" fill="white" class="classText"><tspan x="5">+effect(sanity : Sanity)</tspan><tspan x="5" dy="10">+hasInsane()</tspan></text></g><g id="classid-InsaneCard-3" class="classGroup" transform="translate(248.17578125,294.5 )"><rect x="0" y="0" width="114.03125" height="67" class=" "></rect><text y="15" x="0"><tspan x="33.4453125">«abstract»</tspan><tspan class="title" dy="10" x="29.7734375">InsaneCard</tspan></text><line x1="0" y1="31" y2="31" x2="114.03125"></line><text x="5" y="41" fill="white" class="classText"></text><line x1="0" y1="36" y2="36" x2="114.03125"></line><text x="5" y="51" fill="white" class="classText"><tspan x="5">+effect(sanity : Sanity)</tspan><tspan x="5" dy="10">+hasInsane()</tspan></text></g><g id="classid-SpecifiedCard-4" class="classGroup" transform="translate(294.18359375,141.5 )"><rect x="0" y="0" width="114.03125" height="47" class=" "></rect><text y="15" x="0"><tspan class="title" x="23.390625">SpecifiedCard</tspan></text><line x1="0" y1="21" y2="21" x2="114.03125"></line><text x="5" y="31" fill="white" class="classText"></text><line x1="0" y1="26" y2="26" x2="114.03125"></line><text x="5" y="41" fill="white" class="classText"><tspan x="5">+effect(sanity : Sanity)</tspan></text></g><g id="classid-GameManager-5" class="classGroup" transform="translate(157.171875,20.5 )"><rect x="0" y="0" width="79.03125" height="30" class=" "></rect><text y="15" x="0"><tspan class="title" x="5">GameManager</tspan></text><line x1="0" y1="21" y2="21" x2="79.03125"></line><text x="5" y="31" fill="white" class="classText"></text><line x1="0" y1="26" y2="26" x2="79.03125"></line><text x="5" y="41" fill="white" class="classText"></text></g><g id="classid-Player-6" class="classGroup" transform="translate(86.07421875,121 )"><rect x="0" y="0" width="98.125" height="88" class=" "></rect><text y="15" x="0"><tspan class="title" x="33.9921875">Player</tspan></text><line x1="0" y1="21" y2="21" x2="98.125"></line><text x="5" y="31" fill="white" class="classText"><tspan x="5">- saneToken : int</tspan><tspan x="5" dy="10">- insaneToken : int</tspan></text><line x1="0" y1="47" y2="47" x2="98.125"></line><text x="5" y="62" fill="white" class="classText"><tspan x="5">+updateToken()</tspan><tspan x="5" dy="10">+getSaneToken()</tspan><tspan x="5" dy="10">+getInsaneToken()</tspan></text></g><path d="M135.13671875,397L135.13671875,401.1666666666667C135.13671875,405.3333333333333,135.13671875,413.6666666666667,150.38216145833334,423.8395877726041C165.62760416666666,434.0125088785415,196.11848958333334,446.0250177570831,211.36393229166666,452.0312721963539L226.609375,458.03752663562466" id="edge0" class="relation dashed-line" marker-start="url(#extensionStart)"></path><path d="M305.19140625,361.5L305.19140625,371.5833333333333C305.19140625,381.6666666666667,305.19140625,401.8333333333333,303.65533742877494,416.0833333333333C302.1192686075499,430.3333333333333,299.0471309650997,438.6666666666667,297.51106214387465,442.8333333333333L295.9749933226496,447" id="edge1" class="relation dashed-line" marker-start="url(#extensionStart)"></path><path d="M366.8685461956522,188.5L371.9249603713768,196.08333333333334C376.9813745471015,203.66666666666666,387.09420289855075,218.83333333333334,392.1506170742753,242.08333333333334C397.20703125,265.3333333333333,397.20703125,296.6666666666667,397.20703125,328C397.20703125,359.3333333333333,397.20703125,390.6666666666667,387.779296875,411.18905263037226C378.3515625,431.71143859407783,359.49609375,441.4228771881556,350.068359375,446.27859648519456L340.640625,451.1343157822334" id="edge2" class="relation dashed-line" marker-start="url(#extensionStart)"></path><path d="M335.5298913043478,188.5L330.4734771286232,196.08333333333334C325.41706295289856,203.66666666666666,315.30423460144925,218.83333333333334,310.2478204257246,236.5C305.19140625,254.16666666666666,305.19140625,274.3333333333333,305.19140625,284.4166666666667L305.19140625,294.5" id="edge3" class="relation dashed-line" marker-start="url(#extensionStart)"></path><path d="M128.7599071557971,209L128.15604242149757,213.16666666666666C127.55217768719807,217.33333333333334,126.34444821859904,225.66666666666666,126.18384589564704,234C126.02324357269504,242.33333333333334,126.90976839539007,250.66666666666666,127.35303080673759,254.83333333333334L127.79629321808511,259" id="edge4" class="relation"></path><g class="classLabel"><rect class="box" x="111.515625" y="222.4375" width="27.265625" height="16.015625"></rect><text class="label" x="125.14533287113731" y="233.94056256415257" fill="red" text-anchor="middle">hand</text></g><g class="cardinality"><text class="type1" x="122.01874075680917" y="220.65361212590997" fill="black" font-size="6">1</text></g><g class="cardinality"><text class="type2" x="131.44591210156165" y="246.0412083122935" fill="black" font-size="6">0..*</text></g><path d="M141.5135303442029,209L142.11739507850243,213.16666666666666C142.72125981280195,217.33333333333334,143.92898928140096,225.66666666666666,144.08959160435296,234C144.25019392730496,242.33333333333334,143.36366910460993,250.66666666666666,142.9204066932624,254.83333333333334L142.4771442819149,259" id="edge5" class="relation"></path><g class="classLabel"><rect class="box" x="126.5" y="222.4375" width="37.25" height="16.015625"></rect><text class="label" x="145.12810462886267" y="233.94056256415257" fill="red" text-anchor="middle">discard</text></g><g class="cardinality"><text class="type1" x="138.3580907531873" y="222.08790284909887" fill="black" font-size="6">1</text></g><g class="cardinality"><text class="type2" x="148.7714145302295" y="247.09906885822872" fill="black" font-size="6">0..*</text></g><path d="M209.7030604338843,50.5L216.2831493199036,58.083333333333336C222.86323820592284,65.66666666666667,236.02341597796143,80.83333333333333,242.6035048639807,99.91666666666667C249.18359375,119,249.18359375,142,249.18359375,165C249.18359375,188,249.18359375,211,239.67838541666666,230.33440653970865C230.17317708333334,249.66881307941728,211.16276041666666,265.33762615883455,201.65755208333334,273.1720326985432L192.15234375,281.0064392382518" id="edge6" class="relation"></path><g class="classLabel"><rect class="box" x="236.109375" y="160.328125" width="27.140625" height="16.015625"></rect><text class="label" x="249.18359375" y="171.8328080676081" fill="red" text-anchor="middle">deck</text></g><g class="cardinality"><text class="type1" x="214.11877792034792" y="63.21815391791354" fill="black" font-size="6">1</text></g><g class="cardinality"><text class="type2" x="204.97831966776423" y="276.9144541751153" fill="black" font-size="6">0..*</text></g><path d="M181.4269757231405,50.5L173.7119328942837,58.083333333333336C165.99689006542698,65.66666666666667,150.56680440771348,80.83333333333333,142.85176157885675,92.58333333333333C135.13671875,104.33333333333333,135.13671875,112.66666666666667,135.13671875,116.83333333333333L135.13671875,121" id="edge7" class="relation"></path><g class="cardinality"><text class="type1" x="169.00740920246528" y="55.696572662681" fill="black" font-size="6">1</text></g><g class="cardinality"><text class="type2" x="140.13671875" y="108.5" fill="black" font-size="6">2..6</text></g></svg>