<svg id="mermaid-1609518735263" width="100%" xmlns="http://www.w3.org/2000/svg" xmlns:xlink="http://www.w3.org/1999/xlink" height="1452" style="max-width: 1338.26953125px;" viewBox="-20 -20 1338.26953125 1452"><style>#mermaid-1609518735263{font-family:"trebuchet ms",verdana,arial,sans-serif;font-size:16px;fill:#333;}#mermaid-1609518735263 .error-icon{fill:#552222;}#mermaid-1609518735263 .error-text{fill:#552222;stroke:#552222;}#mermaid-1609518735263 .edge-thickness-normal{stroke-width:2px;}#mermaid-1609518735263 .edge-thickness-thick{stroke-width:3.5px;}#mermaid-1609518735263 .edge-pattern-solid{stroke-dasharray:0;}#mermaid-1609518735263 .edge-pattern-dashed{stroke-dasharray:3;}#mermaid-1609518735263 .edge-pattern-dotted{stroke-dasharray:2;}#mermaid-1609518735263 .marker{fill:#333333;}#mermaid-1609518735263 .marker.cross{stroke:#333333;}#mermaid-1609518735263 svg{font-family:"trebuchet ms",verdana,arial,sans-serif;font-size:16px;}#mermaid-1609518735263 g.classGroup text{fill:#9370DB;fill:#131300;stroke:none;font-family:"trebuchet ms",verdana,arial,sans-serif;font-size:10px;}#mermaid-1609518735263 g.classGroup text .title{font-weight:bolder;}#mermaid-1609518735263 .classTitle{font-weight:bolder;}#mermaid-1609518735263 .node rect,#mermaid-1609518735263 .node circle,#mermaid-1609518735263 .node ellipse,#mermaid-1609518735263 .node polygon,#mermaid-1609518735263 .node path{fill:#ECECFF;stroke:#9370DB;stroke-width:1px;}#mermaid-1609518735263 .divider{stroke:#9370DB;stroke:1;}#mermaid-1609518735263 g.clickable{cursor:pointer;}#mermaid-1609518735263 g.classGroup rect{fill:#ECECFF;stroke:#9370DB;}#mermaid-1609518735263 g.classGroup line{stroke:#9370DB;stroke-width:1;}#mermaid-1609518735263 .classLabel .box{stroke:none;stroke-width:0;fill:#ECECFF;opacity:0.5;}#mermaid-1609518735263 .classLabel .label{fill:#9370DB;font-size:10px;}#mermaid-1609518735263 .relation{stroke:#333333;stroke-width:1;fill:none;}#mermaid-1609518735263 .dashed-line{stroke-dasharray:3;}#mermaid-1609518735263 #compositionStart,#mermaid-1609518735263 .composition{fill:#333333 !important;stroke:#333333 !important;stroke-width:1;}#mermaid-1609518735263 #compositionEnd,#mermaid-1609518735263 .composition{fill:#333333 !important;stroke:#333333 !important;stroke-width:1;}#mermaid-1609518735263 #dependencyStart,#mermaid-1609518735263 .dependency{fill:#333333 !important;stroke:#333333 !important;stroke-width:1;}#mermaid-1609518735263 #dependencyStart,#mermaid-1609518735263 .dependency{fill:#333333 !important;stroke:#333333 !important;stroke-width:1;}#mermaid-1609518735263 #extensionStart,#mermaid-1609518735263 .extension{fill:#333333 !important;stroke:#333333 !important;stroke-width:1;}#mermaid-1609518735263 #extensionEnd,#mermaid-1609518735263 .extension{fill:#333333 !important;stroke:#333333 !important;stroke-width:1;}#mermaid-1609518735263 #aggregationStart,#mermaid-1609518735263 .aggregation{fill:#ECECFF !important;stroke:#333333 !important;stroke-width:1;}#mermaid-1609518735263 #aggregationEnd,#mermaid-1609518735263 .aggregation{fill:#ECECFF !important;stroke:#333333 !important;stroke-width:1;}#mermaid-1609518735263 .edgeTerminals{font-size:11px;}#mermaid-1609518735263:root{--mermaid-font-family:"trebuchet ms",verdana,arial,sans-serif;}#mermaid-1609518735263 class{fill:apa;}</style><g></g><defs><marker id="extensionStart" class="extension" refX="0" refY="7" markerWidth="190" markerHeight="240" orient="auto"><path d="M 1,7 L18,13 V 1 Z"></path></marker></defs><defs><marker id="extensionEnd" refX="19" refY="7" markerWidth="20" markerHeight="28" orient="auto"><path d="M 1,1 V 13 L18,7 Z"></path></marker></defs><defs><marker id="compositionStart" class="extension" refX="0" refY="7" markerWidth="190" markerHeight="240" orient="auto"><path d="M 18,7 L9,13 L1,7 L9,1 Z"></path></marker></defs><defs><marker id="compositionEnd" refX="19" refY="7" markerWidth="20" markerHeight="28" orient="auto"><path d="M 18,7 L9,13 L1,7 L9,1 Z"></path></marker></defs><defs><marker id="aggregationStart" class="extension" refX="0" refY="7" markerWidth="190" markerHeight="240" orient="auto"><path d="M 18,7 L9,13 L1,7 L9,1 Z"></path></marker></defs><defs><marker id="aggregationEnd" refX="19" refY="7" markerWidth="20" markerHeight="28" orient="auto"><path d="M 18,7 L9,13 L1,7 L9,1 Z"></path></marker></defs><defs><marker id="dependencyStart" class="extension" refX="0" refY="7" markerWidth="190" markerHeight="240" orient="auto"><path d="M 5,7 L9,13 L1,7 L9,1 Z"></path></marker></defs><defs><marker id="dependencyEnd" refX="19" refY="7" markerWidth="20" markerHeight="28" orient="auto"><path d="M 18,7 L9,13 L14,7 L9,1 Z"></path></marker></defs><g id="classid-Sanity-0" class="classGroup" transform="translate(323.31640625,115 )"><rect x="0" y="0" width="107.171875" height="71" class=" "></rect><text y="15" x="0"><tspan x="20.0078125">«enumeration»</tspan><tspan class="title" dy="10" x="38.359375">Sanity</tspan></text><line x1="0" y1="31" y2="31" x2="107.171875"></line><text x="5" y="41" fill="white" class="classText"><tspan x="5">SANE</tspan><tspan x="5" dy="10">INSANE</tspan><tspan x="5" dy="10">NEUTRAL</tspan></text><line x1="0" y1="67" y2="67" x2="107.171875"></line><text x="5" y="82" fill="white" class="classText"></text></g><g id="classid-AIActionsEnum-1" class="classGroup" transform="translate(480.48828125,0 )"><rect x="0" y="0" width="186.03125" height="301" class=" "></rect><text y="15" x="0"><tspan x="59.4375">«enumeration»</tspan><tspan class="title" dy="10" x="55.7265625">AIActionsEnum</tspan></text><line x1="0" y1="31" y2="31" x2="186.03125"></line><text x="5" y="41" fill="white" class="classText"><tspan x="5">CatsOfUltharSane = 0</tspan><tspan x="5" dy="10">ElderSignSane = 1</tspan><tspan x="5" dy="10">GreatRaceOfYithSane = 2</tspan><tspan x="5" dy="10">InvestigatorSane = 3</tspan><tspan x="5" dy="10">ProfessorHenryArmitageSane = 4</tspan><tspan x="5" dy="10">RandolphCarterSane = 5</tspan><tspan x="5" dy="10">TheNecronomiconSane = 6</tspan><tspan x="5" dy="10">TheSilverKeySane =7</tspan><tspan x="5" dy="10">CthulhuSane = 8</tspan><tspan x="5" dy="10">DeepOnesSane = 9</tspan><tspan x="5" dy="10">GoldenMeadSane = 10</tspan><tspan x="5" dy="10">HoundOfTindalosSane = 11</tspan><tspan x="5" dy="10">LiberIvonisSane = 12</tspan><tspan x="5" dy="10">MiGoSane = 13</tspan><tspan x="5" dy="10">MiGoBrainCaseSane = 14</tspan><tspan x="5" dy="10">NyarlathotepSane = 15</tspan><tspan x="5" dy="10">TheShiningTrapezohedronSane = 16</tspan><tspan x="5" dy="10">CthulhuInsane = 17</tspan><tspan x="5" dy="10">DeepOnesInsane = 18</tspan><tspan x="5" dy="10">GoldenMeadInsane = 19</tspan><tspan x="5" dy="10">HoundOfTindalosInsane = 20</tspan><tspan x="5" dy="10">LiberIvonisInsane = 21</tspan><tspan x="5" dy="10">MiGoInsane = 22</tspan><tspan x="5" dy="10">MiGoBrainCaseInsane = 23</tspan><tspan x="5" dy="10">NyarlathotepInsane = 24</tspan><tspan x="5" dy="10">TheShiningTrapezohedronInsane = 25</tspan></text><line x1="0" y1="297" y2="297" x2="186.03125"></line><text x="5" y="312" fill="white" class="classText"></text></g><g id="classid-Card-2" class="classGroup" transform="translate(545.5625,351 )"><rect x="0" y="0" width="262.078125" height="258" class=" "></rect><text y="15" x="0"><tspan x="107.46875">«abstract»</tspan><tspan class="title" dy="10" x="119.640625">Card</tspan></text><line x1="0" y1="31" y2="31" x2="262.078125"></line><text x="5" y="41" fill="white" class="classText"><tspan x="5">-name : String</tspan><tspan x="5" dy="10">-description : String</tspan><tspan x="5" dy="10">-value : int</tspan><tspan x="5" dy="10">-sanity : Sanity</tspan></text><line x1="0" y1="77" y2="77" x2="262.078125"></line><text x="5" y="92" fill="white" class="classText"><tspan x="5">+Card(_name : String, _description : String, _value : int)</tspan><tspan x="5" dy="10">+name() : String</tspan><tspan x="5" dy="10">+name(newvalue : String) : void</tspan><tspan x="5" dy="10">+getName() : String</tspan><tspan x="5" dy="10">+description() : String</tspan><tspan x="5" dy="10">+description(newvalue : String) : void</tspan><tspan x="5" dy="10">+getDescrption() : String</tspan><tspan x="5" dy="10">+value() : int</tspan><tspan x="5" dy="10">+value(newvalue : int) : void</tspan><tspan x="5" dy="10">+getValue() : int</tspan><tspan x="5" dy="10">+getOwner() : Player</tspan><tspan x="5" dy="10">+setOwner(owner : Player) : void</tspan><tspan x="5" style="font-style:italic;" dy="10">+sanity() : Sanity</tspan><tspan x="5" style="font-style:italic;" dy="10">+sanity(newvalue : Sanity) : void</tspan><tspan x="5" style="font-style:italic;" dy="10">+getSanity() : Sanity</tspan><tspan x="5" style="font-style:italic;" dy="10">+hasInsane() : Boolean</tspan><tspan x="5" style="font-style:italic;" dy="10">+effect(sanity : Sanity) : void</tspan></text></g><g id="classid-SaneCard-3" class="classGroup" transform="translate(93.859375,774.5 )"><rect x="0" y="0" width="285.421875" height="67" class=" "></rect><text y="15" x="0"><tspan x="119.140625">«abstract»</tspan><tspan class="title" dy="10" x="119.359375">SaneCard</tspan></text><line x1="0" y1="31" y2="31" x2="285.421875"></line><text x="5" y="41" fill="white" class="classText"></text><line x1="0" y1="36" y2="36" x2="285.421875"></line><text x="5" y="51" fill="white" class="classText"><tspan x="5">+SaneCard(_name : String, _description : String, _value : int)</tspan><tspan x="5" style="text-decoration:underline;" dy="10">+hasInsane() : Boolean</tspan></text></g><g id="classid-InsaneCard-4" class="classGroup" transform="translate(0,1122.5 )"><rect x="0" y="0" width="292.09375" height="67" class=" "></rect><text y="15" x="0"><tspan x="122.4765625">«abstract»</tspan><tspan class="title" dy="10" x="118.8046875">InsaneCard</tspan></text><line x1="0" y1="31" y2="31" x2="292.09375"></line><text x="5" y="41" fill="white" class="classText"></text><line x1="0" y1="36" y2="36" x2="292.09375"></line><text x="5" y="51" fill="white" class="classText"><tspan x="5">+InsaneCard(_name : String, _description : String, _value : int)</tspan><tspan x="5" style="text-decoration:underline;" dy="10">+hasInsane() : Boolean</tspan></text></g><g id="classid-SpecifiedCard-5" class="classGroup" transform="translate(84.96875,1355 )"><rect x="0" y="0" width="303.203125" height="57" class=" "></rect><text y="15" x="0"><tspan class="title" x="117.9765625">SpecifiedCard</tspan></text><line x1="0" y1="21" y2="21" x2="303.203125"></line><text x="5" y="31" fill="white" class="classText"></text><line x1="0" y1="26" y2="26" x2="303.203125"></line><text x="5" y="41" fill="white" class="classText"><tspan x="5">+SpecifiedCard(_name : String, _description : String, _value : int)</tspan><tspan x="5" dy="10">+effect(sanity : Sanity) : void</tspan></text></g><g id="classid-GameManager-6" class="classGroup" transform="translate(716.51953125,1.5 )"><rect x="0" y="0" width="373.40625" height="298" class=" "></rect><text y="15" x="0"><tspan class="title" x="152.1875">GameManager</tspan></text><line x1="0" y1="21" y2="21" x2="373.40625"></line><text x="5" y="31" fill="white" class="classText"><tspan x="5">-allAI : Boolean</tspan><tspan x="5" dy="10">-roundNumber : int</tspan></text><line x1="0" y1="47" y2="47" x2="373.40625"></line><text x="5" y="62" fill="white" class="classText"><tspan x="5">+GameManager(view : View, nbPlayer : int, nbAI : int)</tspan><tspan x="5" style="text-decoration:underline;" dy="10">+buildDeck() : List&lt;Card&gt;</tspan><tspan x="5" dy="10">+buildHand() : List&lt;Card&gt;</tspan><tspan x="5" dy="10">+isGameEnd() : int</tspan><tspan x="5" dy="10">+startNewRound() : void</tspan><tspan x="5" dy="10">+startNewGame() : void</tspan><tspan x="5" dy="10">+play(cardNumber : int) : void</tspan><tspan x="5" dy="10">+playAI(cardEffectValue : int) : void</tspan><tspan x="5" dy="10">+isRoundEnd() : int</tspan><tspan x="5" dy="10">+getCurrentPlayer() : Player</tspan><tspan x="5" dy="10">+chooseTargetPlayer(nbPlayer : int, allowCurrentPlayer : Boolean) : List&lt;Player&gt;</tspan><tspan x="5" dy="10">+getPlayers() : List&lt;Player&gt;</tspan><tspan x="5" dy="10">+checkPlayableCard(card : Card) : Boolean</tspan><tspan x="5" dy="10">+findWinnerWthSpecialEffect() : int</tspan><tspan x="5" dy="10">+sanityCheck(player : Player) : void</tspan><tspan x="5" dy="10">+redistribute() : void</tspan><tspan x="5" dy="10">+chooseNumber() : int</tspan><tspan x="5" dy="10">+showHandToCurrent(hand : List&lt;Card&gt;) : void</tspan><tspan x="5" dy="10">+askInsanity(card : Card) : Sanity</tspan><tspan x="5" dy="10">+playerDraw(player : Player, nbCard : int) : void</tspan><tspan x="5" dy="10">+playerDiscard(player : Player, nbCard : int) : void</tspan><tspan x="5" dy="10">+printAIQtable() : void</tspan><tspan x="5" dy="10">+printGameState() : void</tspan><tspan x="5" dy="10">+run() : void</tspan></text></g><g id="classid-Player-7" class="classGroup" transform="translate(487.3671875,659 )"><rect x="0" y="0" width="685.671875" height="298" class=" "></rect><text y="15" x="0"><tspan class="title" x="327.765625">Player</tspan></text><line x1="0" y1="21" y2="21" x2="685.671875"></line><text x="5" y="31" fill="white" class="classText"><tspan x="5">-saneToken : int</tspan><tspan x="5" dy="10">-insaneToken : int</tspan><tspan x="5" dy="10">-knockedOut : Boolean</tspan><tspan x="5" dy="10">-knockableOut : Boolean</tspan><tspan x="5" dy="10">-immune : Boolean</tspan></text><line x1="0" y1="77" y2="77" x2="685.671875"></line><text x="5" y="92" fill="white" class="classText"><tspan x="5">+Player(saneToken : int, insaneToken : int, hand : List&lt;Card&gt;, discard : List&lt;Card&gt;, knockedOut : Boolean, knockableOut : Boolean, immune : Boolean)</tspan><tspan x="5" dy="10">+nbInsaneCardDiscarded() : int</tspan><tspan x="5" dy="10">+stateOfMind() : Sanity</tspan><tspan x="5" dy="10">+updateToken() : void</tspan><tspan x="5" dy="10">+pickUp(card : Card) : void</tspan><tspan x="5" dy="10">+getHand()</tspan><tspan x="5" dy="10">+setHand(hand : List&lt;Card&gt;) : void</tspan><tspan x="5" dy="10">+getDiscard() : List&lt;Card&gt;</tspan><tspan x="5" dy="10">+setDiscard(discard : List&lt;Card&gt;) : void</tspan><tspan x="5" dy="10">+getSaneToken() : int</tspan><tspan x="5" dy="10">+setSaneToken(saneToken : int) : void</tspan><tspan x="5" dy="10">+getInsaneToken() : int</tspan><tspan x="5" dy="10">+setInsaneToken(insaneToken : int) : void</tspan><tspan x="5" dy="10">+getKnockedOut() : Boolean</tspan><tspan x="5" dy="10">+setKnockedOut(knockedOut : Boolean) : void</tspan><tspan x="5" dy="10">+isKnockableOut() : Boolean</tspan><tspan x="5" dy="10">+setKnockableOut(knockableOut : Boolean) : void</tspan><tspan x="5" dy="10">+getImmune() : Boolean</tspan><tspan x="5" dy="10">+setImmune(immune : Boolean) : void</tspan><tspan x="5" dy="10">+getCardFromHand(cardNumber : int) : Card</tspan><tspan x="5" dy="10">+addDiscardedCard(card : Card) : void</tspan></text></g><g id="classid-Agent-8" class="classGroup" transform="translate(394.53125,1007 )"><rect x="0" y="0" width="871.34375" height="298" class=" "></rect><text y="15" x="0"><tspan class="title" x="421.171875">Agent</tspan></text><line x1="0" y1="21" y2="21" x2="871.34375"></line><text x="5" y="31" fill="white" class="classText"><tspan x="5">-saneToken : int</tspan><tspan x="5" dy="10">-insaneToken : int</tspan><tspan x="5" dy="10">-knockedOut : Boolean</tspan><tspan x="5" dy="10">-knockableOut : Boolean</tspan><tspan x="5" dy="10">-immune : Boolean</tspan><tspan x="5" dy="10">-epsilon : float</tspan><tspan x="5" dy="10">-alpha : float</tspan><tspan x="5" dy="10">-gamma : float</tspan><tspan x="5" dy="10">-q : Dictionnary&lt;Dictionnary&lt;Tuple&lt;int, int, Boolean, Boolean&gt;, AIActionsEnum&gt;,float&gt;</tspan><tspan x="5" dy="10">-lastAction : AIActionsEnum</tspan><tspan x="5" dy="10">-score : int</tspan><tspan x="5" dy="10">-winReward : int</tspan><tspan x="5" dy="10">-knockedReward : int</tspan><tspan x="5" dy="10">-immuneReward : int</tspan></text><line x1="0" y1="167" y2="167" x2="871.34375"></line><text x="5" y="182" fill="white" class="classText"><tspan x="5">+Agent(saneToken : int, insaneToken : int, hand : List&lt;Card&gt;, discard : List&lt;Card&gt;, knockedOut : Boolean, knockableOut : Boolean, immune : Boolean, epsilon : float, alpha : float, gamma : float)</tspan><tspan x="5" dy="10">+getQ(state : List&lt;int&gt;, action : AIActionsEnum)</tspan><tspan x="5" dy="10">+learnQ(state : List&lt;int&gt;, action : AIActionsEnum, reward : int, value : float) : void</tspan><tspan x="5" dy="10">+chooseAction(state : List&lt;int&gt;, actions : List&lt;AIActionsEnum&gt;) : AIActionsEnum</tspan><tspan x="5" dy="10">+learn(state1 : List&lt;int&gt;, action1 : AIActionsEnum, reward : int, state2 : List&lt;int&gt;, actions : List&lt;AIActionsEnum&gt;) : void</tspan><tspan x="5" dy="10">+printQ() : void</tspan><tspan x="5" dy="10">+calcState() : List&lt;int&gt;</tspan><tspan x="5" dy="10">+calcReward() : int</tspan><tspan x="5" dy="10">+update(gameManager : GameManager) : AIActionsEnum</tspan><tspan x="5" dy="10">+_buildListOfActions(gameManager : GameManager) : List&lt;AIActionsEnum&gt;</tspan><tspan x="5" dy="10">+_readJsonQTable()</tspan><tspan x="5" style="text-decoration:underline;" dy="10">+_writeJsonQTable(data : Dictionnary&lt;Dictionnary&lt;Tuple&lt;int, int, Boolean, Boolean&gt;, AIActionsEnum&gt;,float&gt;) : void</tspan></text></g><g id="classid-View-9" class="classGroup" transform="translate(958.22265625,381.5 )"><rect x="0" y="0" width="340.046875" height="197" class=" "></rect><text y="15" x="0"><tspan class="title" x="158.6015625">View</tspan></text><line x1="0" y1="21" y2="21" x2="340.046875"></line><text x="5" y="31" fill="white" class="classText"></text><line x1="0" y1="26" y2="26" x2="340.046875"></line><text x="5" y="41" fill="white" class="classText"><tspan x="5">+View()</tspan><tspan x="5" dy="10">+chooseTargetPlayer(nbPlayer : int, players : List&lt;Player&gt;) : List&lt;Player&gt;</tspan><tspan x="5" dy="10">+cardToPlay(playerHand : List&lt;Card&gt;) : int</tspan><tspan x="5" dy="10">+cardCantBePlayed() : void</tspan><tspan x="5" dy="10">+askInsanity() : Sanity</tspan><tspan x="5" dy="10">+redistribute(inGameCards : List&lt;Card&gt;) : List&lt;Card&gt;</tspan><tspan x="5" dy="10">+chooseNumber(minNb : int, maxNb : int) : int</tspan><tspan x="5" dy="10">+showCards(cards : List&lt;Card&gt;) : void</tspan><tspan x="5" dy="10">+playerDiscard(player : Player, nbCard : int) : List&lt;int&gt;</tspan><tspan x="5" dy="10">+displayRoundWinner(playerIndex : int, sanity : Sanity) : void</tspan><tspan x="5" dy="10">+displayNewTurn(gameManager : GameManager) : void</tspan><tspan x="5" dy="10">+_displayNewAction() : void</tspan><tspan x="5" dy="10">+displayBeginSanityCheck(playerID : int, nbCard : int) : void</tspan><tspan x="5" dy="10">+displayStepSanityCheck(card : Card) : void</tspan><tspan x="5" dy="10">+displayCardWillBePlayed(playerID : int, nbCard : int) : void</tspan><tspan x="5" dy="10">+cls() : void</tspan></text></g><path d="M545.5625,525.8604147432711L494.0638020833333,543.883678952726C442.5651041666667,561.9069431621807,339.5677083333333,597.9534715810904,288.0690104166667,639.3934024572119C236.5703125,680.8333333333334,236.5703125,727.6666666666666,236.5703125,751.0833333333334L236.5703125,774.5" id="edge0" class="relation dashed-line" marker-start="url(#extensionStart)"></path><path d="M589.3407061688312,609L586.5222030573593,613.1666666666666C583.7036999458875,617.3333333333334,578.0666937229438,625.6666666666666,581.4209261837899,634C584.775158644636,642.3333333333334,597.120629789272,650.6666666666666,603.29336536159,654.8333333333334L609.466100933908,659" id="edge1" class="relation"></path><g class="classLabel"><rect class="box" x="562.3125" y="626.546875" width="32.921875" height="16.015625"></rect><text class="label" x="578.4396027627463" y="638.0567611071946" fill="red" text-anchor="middle">owner</text></g><g class="cardinality"><text class="type1" x="578.1955766222479" y="616.5522240028934" fill="black" font-size="6">0</text></g><g class="cardinality"><text class="type2" x="601.9029437443063" y="647.8622868897886" fill="black" font-size="6">1</text></g><path d="M219.141949533046,841.5L206.95943711087168,864.9166666666666C194.77692468869733,888.3333333333334,170.41189984434865,935.1666666666666,158.22938742217434,982C146.046875,1028.8333333333333,146.046875,1075.6666666666667,146.046875,1099.0833333333333L146.046875,1122.5" id="edge2" class="relation dashed-line" marker-start="url(#extensionStart)"></path><path d="M253.998675466954,841.5L266.18118788912835,864.9166666666666C278.3637003113027,888.3333333333334,302.7287251556513,935.1666666666666,314.91123757782566,987.5833333333334C327.09375,1040,327.09375,1098,327.09375,1156C327.09375,1214,327.09375,1272,320.04363804517135,1305.1666666666667C312.99352609034264,1338.3333333333333,298.89330218068534,1346.6666666666667,291.8431902258567,1350.8333333333333L284.79307827102804,1355" id="edge3" class="relation dashed-line" marker-start="url(#extensionStart)"></path><path d="M146.046875,1189.5L146.046875,1212.9166666666667C146.046875,1236.3333333333333,146.046875,1283.1666666666667,153.09698695482868,1310.75C160.14709890965733,1338.3333333333333,174.24732281931463,1346.6666666666667,181.2974347741433,1350.8333333333333L188.34754672897196,1355" id="edge4" class="relation dashed-line" marker-start="url(#extensionStart)"></path><path d="M804.5134698275862,659L803.7950790229885,654.8333333333334C803.0766882183907,650.6666666666666,801.6399066091954,642.3333333333334,797.5773176850089,634C793.5147287608224,625.6666666666666,786.826332521645,617.3333333333334,783.4821344020562,613.1666666666666L780.1379362824675,609" id="edge5" class="relation"></path><g class="classLabel"><rect class="box" x="784.484375" y="619.890625" width="27.25" height="16.015625"></rect><text class="label" x="798.110149761035" y="631.3922806453145" fill="red" text-anchor="middle">hand</text></g><g class="cardinality"><text class="type1" x="807.3169339499623" y="645.8322139706574" fill="black" font-size="6">1</text></g><g class="cardinality"><text class="type2" x="784.0627350473499" y="621.8781192204132" fill="black" font-size="6">0..*</text></g><path d="M821.6399066091954,659L821.4004430076628,654.8333333333334C821.1609794061302,650.6666666666666,820.6820522030652,642.3333333333334,816.5572649408183,634C812.4324776785714,625.6666666666666,804.6618303571428,617.3333333333334,800.7765066964286,613.1666666666666L796.8911830357143,609" id="edge6" class="relation"></path><g class="classLabel"><rect class="box" x="798.453125" y="619.15625" width="37.265625" height="16.015625"></rect><text class="label" x="817.086017463854" y="630.6571773161138" fill="red" text-anchor="middle">discard</text></g><g class="cardinality"><text class="type1" x="825.9144623103097" y="646.2337094832496" fill="black" font-size="6">1</text></g><g class="cardinality"><text class="type2" x="801.7591428778735" y="621.5520104754229" fill="black" font-size="6">0..*</text></g><path d="M830.203125,957L830.203125,961.1666666666666C830.203125,965.3333333333334,830.203125,973.6666666666666,830.203125,982C830.203125,990.3333333333334,830.203125,998.6666666666666,830.203125,1002.8333333333334L830.203125,1007" id="edge7" class="relation dashed-line" marker-start="url(#extensionStart)"></path><path d="M716.51953125,287.74819608292296L707.8470052083334,294.12349673576915C699.1744791666666,300.4987973886153,681.8294270833334,313.2493986943077,673.4847470238095,323.7913660138205C665.1400669642857,334.3333333333333,665.7957589285714,342.6666666666667,666.1236049107142,346.8333333333333L666.4514508928571,351" id="edge8" class="relation"></path><g class="classLabel"><rect class="box" x="667.328125" y="302.796875" width="27.140625" height="16.015625"></rect><text class="label" x="680.3993243953962" y="314.3006880829171" fill="red" text-anchor="middle">deck</text></g><g class="cardinality"><text class="type1" x="703.4865479848863" y="291.12330307548876" fill="black" font-size="6">1</text></g><g class="cardinality"><text class="type2" x="670.4555373812326" y="338.14631214811845" fill="black" font-size="6">0..*</text></g><path d="M824.2488092058404,299.5L821.9078618382003,303.9166666666667C819.5669144705603,308.3333333333333,814.88501973528,317.1666666666667,808.9293114774886,325.75C802.973603219697,334.3333333333333,795.744081439394,342.6666666666667,792.1293205492424,346.8333333333333L788.5145596590909,351" id="edge9" class="relation"></path><g class="classLabel"><rect class="box" x="773.890625" y="315.671875" width="70.59375" height="16.015625"></rect><text class="label" x="809.1859067619757" y="327.17252826781674" fill="red" text-anchor="middle">removedCards</text></g><g class="cardinality"><text class="type1" x="813.9770988174816" y="308.20298602191707" fill="black" font-size="6">1</text></g><g class="cardinality"><text class="type2" x="800.4827210793236" y="344.83452254734027" fill="black" font-size="6">0..*</text></g><path d="M903.22265625,299.5L903.22265625,303.9166666666667C903.22265625,308.3333333333333,903.22265625,317.1666666666667,903.22265625,347.25C903.22265625,377.3333333333333,903.22265625,428.6666666666667,903.22265625,480C903.22265625,531.3333333333334,903.22265625,582.6666666666666,901.4741042564656,612.5C899.725552262931,642.3333333333334,896.228448275862,650.6666666666666,894.4798962823276,654.8333333333334L892.7313442887931,659" id="edge10" class="relation"></path><g class="classLabel"><rect class="box" x="884.59375" y="468.796875" width="37.25" height="16.015625"></rect><text class="label" x="903.22265625" y="480.30606530918317" fill="red" text-anchor="middle">players</text></g><g class="cardinality"><text class="type1" x="898.22265625" y="312" fill="black" font-size="6">1</text></g><g class="cardinality"><text class="type2" x="902.178827525008" y="649.4085944459929" fill="black" font-size="6">2..6</text></g><path d="M920.2027132300569,299.5L920.7060370667141,303.9166666666667C921.2093609033712,308.3333333333333,922.2160085766856,317.1666666666667,922.7193324133428,347.25C923.22265625,377.3333333333333,923.22265625,428.6666666666667,923.22265625,480C923.22265625,531.3333333333334,923.22265625,582.6666666666666,920.9951770534004,612.5C918.7676978568007,642.3333333333334,914.3127394636016,650.6666666666666,912.085260267002,654.8333333333334L909.8577810704023,659" id="edge11" class="relation"></path><g class="classLabel"><rect class="box" x="890.984375" y="469.328125" width="65.15625" height="16.015625"></rect><text class="label" x="923.22265625" y="480.83833438914166" fill="red" text-anchor="middle">currentPlayer</text></g><g class="cardinality"><text class="type1" x="916.6502082681922" y="312.48575020920725" fill="black" font-size="6">1</text></g><g class="cardinality"><text class="type2" x="920.1604119442486" y="650.3336399176316" fill="black" font-size="6">1</text></g><path d="M1089.92578125,296.11326945109886L1096.3125,301.09439120924907C1102.69921875,306.0755129673992,1115.47265625,316.03775648369964,1121.859375,330.2688782418498C1128.24609375,344.5,1128.24609375,363,1128.24609375,372.25L1128.24609375,381.5" id="edge12" class="relation"></path><g class="classLabel"><rect class="box" x="1115.734375" y="317.9375" width="25.796875" height="16.015625"></rect><text class="label" x="1128.2460937500002" y="329.4515277589296" fill="red" text-anchor="middle">view</text></g><g class="cardinality"><text class="type1" x="1096.7074885572692" y="307.7433359168819" fill="black" font-size="6">0</text></g><g class="cardinality"><text class="type2" x="1133.24609375" y="369" fill="black" font-size="6">1</text></g></svg>