<svg id="mermaid-1608049397609" width="100%" xmlns="http://www.w3.org/2000/svg" xmlns:xlink="http://www.w3.org/1999/xlink" height="868" style="max-width: 859.17578125px;" viewBox="-20 -20 859.17578125 868"><style>#mermaid-1608049397609{font-family:"trebuchet ms",verdana,arial;font-size:16px;fill:#333;}#mermaid-1608049397609 .error-icon{fill:#552222;}#mermaid-1608049397609 .error-text{fill:#552222;stroke:#552222;}#mermaid-1608049397609 .edge-thickness-normal{stroke-width:2px;}#mermaid-1608049397609 .edge-thickness-thick{stroke-width:3.5px;}#mermaid-1608049397609 .edge-pattern-solid{stroke-dasharray:0;}#mermaid-1608049397609 .edge-pattern-dashed{stroke-dasharray:3;}#mermaid-1608049397609 .edge-pattern-dotted{stroke-dasharray:2;}#mermaid-1608049397609 .marker{fill:#333333;}#mermaid-1608049397609 .marker.cross{stroke:#333333;}#mermaid-1608049397609 svg{font-family:"trebuchet ms",verdana,arial;font-size:16px;}#mermaid-1608049397609 g.classGroup text{fill:#9370DB;fill:#131300;stroke:none;font-family:"trebuchet ms",verdana,arial;font-size:10px;}#mermaid-1608049397609 g.classGroup text .title{font-weight:bolder;}#mermaid-1608049397609 .classTitle{font-weight:bolder;}#mermaid-1608049397609 .node rect,#mermaid-1608049397609 .node circle,#mermaid-1608049397609 .node ellipse,#mermaid-1608049397609 .node polygon,#mermaid-1608049397609 .node path{fill:#ECECFF;stroke:#9370DB;stroke-width:1px;}#mermaid-1608049397609 .divider{stroke:#9370DB;stroke:1;}#mermaid-1608049397609 g.clickable{cursor:pointer;}#mermaid-1608049397609 g.classGroup rect{fill:#ECECFF;stroke:#9370DB;}#mermaid-1608049397609 g.classGroup line{stroke:#9370DB;stroke-width:1;}#mermaid-1608049397609 .classLabel .box{stroke:none;stroke-width:0;fill:#ECECFF;opacity:0.5;}#mermaid-1608049397609 .classLabel .label{fill:#9370DB;font-size:10px;}#mermaid-1608049397609 .relation{stroke:#333333;stroke-width:1;fill:none;}#mermaid-1608049397609 .dashed-line{stroke-dasharray:3;}#mermaid-1608049397609 #compositionStart,#mermaid-1608049397609 .composition{fill:#333333 !important;stroke:#333333 !important;stroke-width:1;}#mermaid-1608049397609 #compositionEnd,#mermaid-1608049397609 .composition{fill:#333333 !important;stroke:#333333 !important;stroke-width:1;}#mermaid-1608049397609 #dependencyStart,#mermaid-1608049397609 .dependency{fill:#333333 !important;stroke:#333333 !important;stroke-width:1;}#mermaid-1608049397609 #dependencyStart,#mermaid-1608049397609 .dependency{fill:#333333 !important;stroke:#333333 !important;stroke-width:1;}#mermaid-1608049397609 #extensionStart,#mermaid-1608049397609 .extension{fill:#333333 !important;stroke:#333333 !important;stroke-width:1;}#mermaid-1608049397609 #extensionEnd,#mermaid-1608049397609 .extension{fill:#333333 !important;stroke:#333333 !important;stroke-width:1;}#mermaid-1608049397609 #aggregationStart,#mermaid-1608049397609 .aggregation{fill:#ECECFF !important;stroke:#333333 !important;stroke-width:1;}#mermaid-1608049397609 #aggregationEnd,#mermaid-1608049397609 .aggregation{fill:#ECECFF !important;stroke:#333333 !important;stroke-width:1;}#mermaid-1608049397609 .edgeTerminals{font-size:11px;}#mermaid-1608049397609:root{--mermaid-font-family:"trebuchet ms",verdana,arial;}#mermaid-1608049397609 class{fill:apa;}</style><g></g><defs><marker id="extensionStart" class="extension" refX="0" refY="7" markerWidth="190" markerHeight="240" orient="auto"><path d="M 1,7 L18,13 V 1 Z"></path></marker></defs><defs><marker id="extensionEnd" refX="19" refY="7" markerWidth="20" markerHeight="28" orient="auto"><path d="M 1,1 V 13 L18,7 Z"></path></marker></defs><defs><marker id="compositionStart" class="extension" refX="0" refY="7" markerWidth="190" markerHeight="240" orient="auto"><path d="M 18,7 L9,13 L1,7 L9,1 Z"></path></marker></defs><defs><marker id="compositionEnd" refX="19" refY="7" markerWidth="20" markerHeight="28" orient="auto"><path d="M 18,7 L9,13 L1,7 L9,1 Z"></path></marker></defs><defs><marker id="aggregationStart" class="extension" refX="0" refY="7" markerWidth="190" markerHeight="240" orient="auto"><path d="M 18,7 L9,13 L1,7 L9,1 Z"></path></marker></defs><defs><marker id="aggregationEnd" refX="19" refY="7" markerWidth="20" markerHeight="28" orient="auto"><path d="M 18,7 L9,13 L1,7 L9,1 Z"></path></marker></defs><defs><marker id="dependencyStart" class="extension" refX="0" refY="7" markerWidth="190" markerHeight="240" orient="auto"><path d="M 5,7 L9,13 L1,7 L9,1 Z"></path></marker></defs><defs><marker id="dependencyEnd" refX="19" refY="7" markerWidth="20" markerHeight="28" orient="auto"><path d="M 18,7 L9,13 L14,7 L9,1 Z"></path></marker></defs><g id="classid-Sanity-0" class="classGroup" transform="translate(0,8 )"><rect x="0" y="0" width="106.703125" height="71" class=" "></rect><text y="15" x="0"><tspan x="19.640625">«enumeration»</tspan><tspan class="title" dy="10" x="38.703125">Sanity</tspan></text><line x1="0" y1="31" y2="31" x2="106.703125"></line><text x="5" y="41" fill="white" class="classText"><tspan x="5">SANE</tspan><tspan x="5" dy="10">INSANE</tspan><tspan x="5" dy="10">NEUTRAL</tspan></text><line x1="0" y1="67" y2="67" x2="106.703125"></line><text x="5" y="82" fill="white" class="classText"></text></g><g id="classid-Card-1" class="classGroup" transform="translate(35.328125,553 )"><rect x="0" y="0" width="268.03125" height="148" class=" "></rect><text y="15" x="0"><tspan x="110.3203125">«abstract»</tspan><tspan class="title" dy="10" x="123.15625">Card</tspan></text><line x1="0" y1="31" y2="31" x2="268.03125"></line><text x="5" y="41" fill="white" class="classText"><tspan x="5">- name : string</tspan><tspan x="5" dy="10">- description : string</tspan><tspan x="5" dy="10">- value : int</tspan><tspan x="5" dy="10">- sanity : Sanity</tspan></text><line x1="0" y1="77" y2="77" x2="268.03125"></line><text x="5" y="92" fill="white" class="classText"><tspan x="5">+Card(_name : string, _description : string, _value : int)</tspan><tspan x="5" dy="10">+getDescrption()</tspan><tspan x="5" dy="10">+getName()</tspan><tspan x="5" dy="10">+getValue()</tspan><tspan x="5" dy="10">+hasInsane()</tspan><tspan x="5" dy="10">+effect(sanity : Sanity)</tspan></text></g><g id="classid-SaneCard-2" class="classGroup" transform="translate(428.42578125,751 )"><rect x="0" y="0" width="289.015625" height="77" class=" "></rect><text y="15" x="0"><tspan x="120.8125">«abstract»</tspan><tspan class="title" dy="10" x="122.59375">SaneCard</tspan></text><line x1="0" y1="31" y2="31" x2="289.015625"></line><text x="5" y="41" fill="white" class="classText"></text><line x1="0" y1="36" y2="36" x2="289.015625"></line><text x="5" y="51" fill="white" class="classText"><tspan x="5">+SaneCard(_name : string, _description : string, _value : int)</tspan><tspan x="5" dy="10">+effect(sanity : Sanity)</tspan><tspan x="5" dy="10">+hasInsane()</tspan></text></g><g id="classid-InsaneCard-3" class="classGroup" transform="translate(353.359375,588.5 )"><rect x="0" y="0" width="296.5" height="77" class=" "></rect><text y="15" x="0"><tspan x="124.5546875">«abstract»</tspan><tspan class="title" dy="10" x="122.3984375">InsaneCard</tspan></text><line x1="0" y1="31" y2="31" x2="296.5"></line><text x="5" y="41" fill="white" class="classText"></text><line x1="0" y1="36" y2="36" x2="296.5"></line><text x="5" y="51" fill="white" class="classText"><tspan x="5">+InsaneCard(_name : string, _description : string, _value : int)</tspan><tspan x="5" dy="10">+effect(sanity : Sanity)</tspan><tspan x="5" dy="10">+hasInsane()</tspan></text></g><g id="classid-SpecifiedCard-4" class="classGroup" transform="translate(509.94140625,405.5 )"><rect x="0" y="0" width="309.234375" height="57" class=" "></rect><text y="15" x="0"><tspan class="title" x="122.2421875">SpecifiedCard</tspan></text><line x1="0" y1="21" y2="21" x2="309.234375"></line><text x="5" y="31" fill="white" class="classText"></text><line x1="0" y1="26" y2="26" x2="309.234375"></line><text x="5" y="41" fill="white" class="classText"><tspan x="5">+SpecifiedCard(_name : string, _description : string, _value : int)</tspan><tspan x="5" dy="10">+effect(sanity : Sanity)</tspan></text></g><g id="classid-GameManager-5" class="classGroup" transform="translate(204.078125,137 )"><rect x="0" y="0" width="175.828125" height="178" class=" "></rect><text y="15" x="0"><tspan class="title" x="54.828125">GameManager</tspan></text><line x1="0" y1="21" y2="21" x2="175.828125"></line><text x="5" y="31" fill="white" class="classText"><tspan x="5">- roundNumber : int</tspan></text><line x1="0" y1="37" y2="37" x2="175.828125"></line><text x="5" y="52" fill="white" class="classText"><tspan x="5">+GameManager(nbPlayer : int)</tspan><tspan x="5" dy="10">+isGameEnd()</tspan><tspan x="5" dy="10">+nextRound()</tspan><tspan x="5" dy="10">+play()</tspan><tspan x="5" dy="10">+chooseTargetPlayer(int : nbPlayer)</tspan><tspan x="5" dy="10">+sanityCheck(Player : player)</tspan><tspan x="5" dy="10">+isGameEnd()</tspan><tspan x="5" dy="10">+isRoundEnd()</tspan><tspan x="5" dy="10">+findWinnerWthSpecialEffect()</tspan><tspan x="5" dy="10">+startNewRound()</tspan><tspan x="5" dy="10">+getCurrentPlayer()</tspan><tspan x="5" dy="10">+checkPlayableCard(Card : card)</tspan><tspan x="5" dy="10">+redistribute()</tspan></text></g><g id="classid-Player-6" class="classGroup" transform="translate(76.6484375,365 )"><rect x="0" y="0" width="185.390625" height="138" class=" "></rect><text y="15" x="0"><tspan class="title" x="77.578125">Player</tspan></text><line x1="0" y1="21" y2="21" x2="185.390625"></line><text x="5" y="31" fill="white" class="classText"><tspan x="5">- saneToken : int</tspan><tspan x="5" dy="10">- insaneToken : int</tspan></text><line x1="0" y1="47" y2="47" x2="185.390625"></line><text x="5" y="62" fill="white" class="classText"><tspan x="5">+updateToken()</tspan><tspan x="5" dy="10">+getHand()</tspan><tspan x="5" dy="10">+getDiscard()</tspan><tspan x="5" dy="10">+getSaneToken()</tspan><tspan x="5" dy="10">+getInsaneToken()</tspan><tspan x="5" dy="10">+roundWon()</tspan><tspan x="5" dy="10">+getCardFromHand(int : cardNumber)</tspan><tspan x="5" dy="10">+addDiscardedCard(Card : card)</tspan></text></g><g id="classid-View-7" class="classGroup" transform="translate(156.703125,0 )"><rect x="0" y="0" width="270.578125" height="87" class=" "></rect><text y="15" x="0"><tspan class="title" x="123.90625">View</tspan></text><line x1="0" y1="21" y2="21" x2="270.578125"></line><text x="5" y="31" fill="white" class="classText"></text><line x1="0" y1="26" y2="26" x2="270.578125"></line><text x="5" y="41" fill="white" class="classText"><tspan x="5">+View()</tspan><tspan x="5" dy="10">+chooseTargerPlayer(int : nbPlayer, List&lt;Player&gt; players)</tspan><tspan x="5" dy="10">+cardCantBePlayer()</tspan><tspan x="5" dy="10">+askInsanity()</tspan><tspan x="5" dy="10">+redistribute(List&lt;Card&gt; : inGameCards)</tspan></text></g><path d="M169.34375,701L169.34375,705.1666666666666C169.34375,709.3333333333334,169.34375,717.6666666666666,212.52408854166666,728.627239423533C255.70442708333334,739.5878121803993,342.0651041666667,753.1756243607985,385.2454427083333,759.9695304509979L428.42578125,766.7634365411976" id="edge0" class="relation dashed-line" marker-start="url(#extensionStart)"></path><path d="M501.609375,665.5L501.609375,675.5833333333334C501.609375,685.6666666666666,501.609375,705.8333333333334,506.28944184711287,720.0833333333334C510.9695086942258,734.3333333333334,520.3296423884515,742.6666666666666,525.0097092355644,746.8333333333334L529.6897760826772,751" id="edge1" class="relation dashed-line" marker-start="url(#extensionStart)"></path><path d="M670.7136178523937,462.5L673.0712440436614,473.4166666666667C675.4288702349291,484.3333333333333,680.1441226174646,506.1666666666667,682.5017488087323,533.5833333333334C684.859375,561,684.859375,594,684.859375,627C684.859375,660,684.859375,693,677.5151636318898,713.6666666666666C670.1709522637794,734.3333333333334,655.482529527559,742.6666666666666,648.1383181594488,746.8333333333334L640.7941067913385,751" id="edge2" class="relation dashed-line" marker-start="url(#extensionStart)"></path><path d="M615.1537774268617,462.5L596.2297103557181,473.4166666666667C577.3056432845744,484.3333333333333,539.4575091422872,506.1666666666667,520.5334420711437,527.1666666666666C501.609375,548.1666666666666,501.609375,568.3333333333334,501.609375,578.4166666666666L501.609375,588.5" id="edge3" class="relation dashed-line" marker-start="url(#extensionStart)"></path><path d="M162.0033244680851,503L161.5600620567376,507.1666666666667C161.11679964539007,511.3333333333333,160.23027482269504,519.6666666666666,160.20788783222295,528C160.18550084175084,536.3333333333334,161.02725168350167,544.6666666666666,161.4481271043771,548.8333333333334L161.8690025252525,553" id="edge4" class="relation"></path><g class="classLabel"><rect class="box" x="145.953125" y="516.484375" width="26.78125" height="16.015625"></rect><text class="label" x="159.34448280024642" y="527.9931116776838" fill="red" text-anchor="middle">hand</text></g><g class="cardinality"><text class="type1" x="155.7090542197705" y="514.9009311417714" fill="black" font-size="6">1</text></g><g class="cardinality"><text class="type2" x="165.58745464584166" y="540.0607916074094" fill="black" font-size="6">0..*</text></g><path d="M214.3583361037234,503L217.07660821143614,507.1666666666667C219.79488031914892,511.3333333333333,225.23142453457444,519.6666666666666,225.36871100466098,528C225.5059974747475,536.3333333333334,220.34402619949495,544.6666666666666,217.7630405618687,548.8333333333334L215.18205492424244,553" id="edge5" class="relation"></path><g class="classLabel"><rect class="box" x="211.96875" y="516.3125" width="37.15625" height="16.015625"></rect><text class="label" x="230.5472215723451" y="527.8149143204607" fill="red" text-anchor="middle">discard</text></g><g class="cardinality"><text class="type1" x="217.0005880866438" y="516.2010796701919" fill="black" font-size="6">1</text></g><g class="cardinality"><text class="type2" x="226.01506098958814" y="545.0065039195491" fill="black" font-size="6">0..*</text></g><path d="M363.2891652960526,315L366.62703878837715,319.1666666666667C369.96491228070175,323.3333333333333,376.64065926535085,331.6666666666667,379.9785327576754,351.5C383.31640625,371.3333333333333,383.31640625,402.6666666666667,383.31640625,434C383.31640625,465.3333333333333,383.31640625,496.6666666666667,369.990234375,518.499032440623C356.6640625,540.3313982145792,330.01171875,552.6627964291582,316.685546875,558.8284955364478L303.359375,564.9941946437374" id="edge6" class="relation"></path><g class="classLabel"><rect class="box" x="370.296875" y="450.53125" width="27" height="16.015625"></rect><text class="label" x="383.31640625" y="462.0339249132643" fill="red" text-anchor="middle">deck</text></g><g class="cardinality"><text class="type1" x="367.202064459243" y="327.8817397947135" fill="black" font-size="6">1</text></g><g class="cardinality"><text class="type2" x="316.8034976343782" y="564.2831625827164" fill="black" font-size="6">0..*</text></g><path d="M204.078125,301.5546263030803L196.62239583333334,307.96218858590026C189.16666666666666,314.3697508687202,174.25520833333334,327.1848754343601,167.24274157801418,337.7591043838467C160.23027482269504,348.3333333333333,161.11679964539007,356.6666666666667,161.5600620567376,360.8333333333333L162.0033244680851,365" id="edge7" class="relation"></path><g class="cardinality"><text class="type1" x="191.33914687095503" y="305.9099031286925" fill="black" font-size="6">1</text></g><g class="cardinality"><text class="type2" x="165.65294335156165" y="352.04120831229346" fill="black" font-size="6">2..6</text></g><path d="M244.1162623355263,315L241.87488007127192,319.1666666666667C239.63349780701753,323.3333333333333,235.15073327850874,331.6666666666667,230.1910789065416,340C225.23142453457444,348.3333333333333,219.79488031914892,356.6666666666667,217.07660821143614,360.8333333333333L214.3583361037234,365" id="edge8" class="relation"></path><g class="classLabel"><rect class="box" x="210.703125" y="329.109375" width="39.15625" height="16.015625"></rect><text class="label" x="230.2685347394111" y="340.6122670253398" fill="red" text-anchor="middle">Current</text></g><g class="cardinality"><text class="type1" x="233.79120736765657" y="323.63963193142325" fill="black" font-size="6">1</text></g><g class="cardinality"><text class="type2" x="225.37588386390155" y="357.26284022704755" fill="black" font-size="6">1</text></g><path d="M291.9921875,87L291.9921875,91.16666666666667C291.9921875,95.33333333333333,291.9921875,103.66666666666667,291.9921875,112C291.9921875,120.33333333333333,291.9921875,128.66666666666666,291.9921875,132.83333333333334L291.9921875,137" id="edge9" class="relation"></path><g class="cardinality"><text class="type1" x="286.9921875" y="99.5" fill="black" font-size="6">1</text></g><g class="cardinality"><text class="type2" x="296.9921875" y="124.5" fill="black" font-size="6">1</text></g></svg>