<svg id="mermaid-1608482872323" width="100%" xmlns="http://www.w3.org/2000/svg" xmlns:xlink="http://www.w3.org/1999/xlink" height="938" style="max-width: 846.06640625px;" viewBox="-20 -20 846.06640625 938"><style>#mermaid-1608482872323{font-family:"trebuchet ms",verdana,arial;font-size:16px;fill:#333;}#mermaid-1608482872323 .error-icon{fill:#552222;}#mermaid-1608482872323 .error-text{fill:#552222;stroke:#552222;}#mermaid-1608482872323 .edge-thickness-normal{stroke-width:2px;}#mermaid-1608482872323 .edge-thickness-thick{stroke-width:3.5px;}#mermaid-1608482872323 .edge-pattern-solid{stroke-dasharray:0;}#mermaid-1608482872323 .edge-pattern-dashed{stroke-dasharray:3;}#mermaid-1608482872323 .edge-pattern-dotted{stroke-dasharray:2;}#mermaid-1608482872323 .marker{fill:#333333;}#mermaid-1608482872323 .marker.cross{stroke:#333333;}#mermaid-1608482872323 svg{font-family:"trebuchet ms",verdana,arial;font-size:16px;}#mermaid-1608482872323 g.classGroup text{fill:#9370DB;fill:#131300;stroke:none;font-family:"trebuchet ms",verdana,arial;font-size:10px;}#mermaid-1608482872323 g.classGroup text .title{font-weight:bolder;}#mermaid-1608482872323 .classTitle{font-weight:bolder;}#mermaid-1608482872323 .node rect,#mermaid-1608482872323 .node circle,#mermaid-1608482872323 .node ellipse,#mermaid-1608482872323 .node polygon,#mermaid-1608482872323 .node path{fill:#ECECFF;stroke:#9370DB;stroke-width:1px;}#mermaid-1608482872323 .divider{stroke:#9370DB;stroke:1;}#mermaid-1608482872323 g.clickable{cursor:pointer;}#mermaid-1608482872323 g.classGroup rect{fill:#ECECFF;stroke:#9370DB;}#mermaid-1608482872323 g.classGroup line{stroke:#9370DB;stroke-width:1;}#mermaid-1608482872323 .classLabel .box{stroke:none;stroke-width:0;fill:#ECECFF;opacity:0.5;}#mermaid-1608482872323 .classLabel .label{fill:#9370DB;font-size:10px;}#mermaid-1608482872323 .relation{stroke:#333333;stroke-width:1;fill:none;}#mermaid-1608482872323 .dashed-line{stroke-dasharray:3;}#mermaid-1608482872323 #compositionStart,#mermaid-1608482872323 .composition{fill:#333333 !important;stroke:#333333 !important;stroke-width:1;}#mermaid-1608482872323 #compositionEnd,#mermaid-1608482872323 .composition{fill:#333333 !important;stroke:#333333 !important;stroke-width:1;}#mermaid-1608482872323 #dependencyStart,#mermaid-1608482872323 .dependency{fill:#333333 !important;stroke:#333333 !important;stroke-width:1;}#mermaid-1608482872323 #dependencyStart,#mermaid-1608482872323 .dependency{fill:#333333 !important;stroke:#333333 !important;stroke-width:1;}#mermaid-1608482872323 #extensionStart,#mermaid-1608482872323 .extension{fill:#333333 !important;stroke:#333333 !important;stroke-width:1;}#mermaid-1608482872323 #extensionEnd,#mermaid-1608482872323 .extension{fill:#333333 !important;stroke:#333333 !important;stroke-width:1;}#mermaid-1608482872323 #aggregationStart,#mermaid-1608482872323 .aggregation{fill:#ECECFF !important;stroke:#333333 !important;stroke-width:1;}#mermaid-1608482872323 #aggregationEnd,#mermaid-1608482872323 .aggregation{fill:#ECECFF !important;stroke:#333333 !important;stroke-width:1;}#mermaid-1608482872323 .edgeTerminals{font-size:11px;}#mermaid-1608482872323:root{--mermaid-font-family:"trebuchet ms",verdana,arial;}#mermaid-1608482872323 class{fill:apa;}</style><g></g><defs><marker id="extensionStart" class="extension" refX="0" refY="7" markerWidth="190" markerHeight="240" orient="auto"><path d="M 1,7 L18,13 V 1 Z"></path></marker></defs><defs><marker id="extensionEnd" refX="19" refY="7" markerWidth="20" markerHeight="28" orient="auto"><path d="M 1,1 V 13 L18,7 Z"></path></marker></defs><defs><marker id="compositionStart" class="extension" refX="0" refY="7" markerWidth="190" markerHeight="240" orient="auto"><path d="M 18,7 L9,13 L1,7 L9,1 Z"></path></marker></defs><defs><marker id="compositionEnd" refX="19" refY="7" markerWidth="20" markerHeight="28" orient="auto"><path d="M 18,7 L9,13 L1,7 L9,1 Z"></path></marker></defs><defs><marker id="aggregationStart" class="extension" refX="0" refY="7" markerWidth="190" markerHeight="240" orient="auto"><path d="M 18,7 L9,13 L1,7 L9,1 Z"></path></marker></defs><defs><marker id="aggregationEnd" refX="19" refY="7" markerWidth="20" markerHeight="28" orient="auto"><path d="M 18,7 L9,13 L1,7 L9,1 Z"></path></marker></defs><defs><marker id="dependencyStart" class="extension" refX="0" refY="7" markerWidth="190" markerHeight="240" orient="auto"><path d="M 5,7 L9,13 L1,7 L9,1 Z"></path></marker></defs><defs><marker id="dependencyEnd" refX="19" refY="7" markerWidth="20" markerHeight="28" orient="auto"><path d="M 18,7 L9,13 L14,7 L9,1 Z"></path></marker></defs><g id="classid-Sanity-0" class="classGroup" transform="translate(0,23 )"><rect x="0" y="0" width="107.171875" height="71" class=" "></rect><text y="15" x="0"><tspan x="20.0078125">«enumeration»</tspan><tspan class="title" dy="10" x="38.359375">Sanity</tspan></text><line x1="0" y1="31" y2="31" x2="107.171875"></line><text x="5" y="41" fill="white" class="classText"><tspan x="5">SANE</tspan><tspan x="5" dy="10">INSANE</tspan><tspan x="5" dy="10">NEUTRAL</tspan></text><line x1="0" y1="67" y2="67" x2="107.171875"></line><text x="5" y="82" fill="white" class="classText"></text></g><g id="classid-Card-1" class="classGroup" transform="translate(43.9296875,623 )"><rect x="0" y="0" width="258.734375" height="148" class=" "></rect><text y="15" x="0"><tspan x="105.796875">«abstract»</tspan><tspan class="title" dy="10" x="117.96875">Card</tspan></text><line x1="0" y1="31" y2="31" x2="258.734375"></line><text x="5" y="41" fill="white" class="classText"><tspan x="5">- name : string</tspan><tspan x="5" dy="10">- description : string</tspan><tspan x="5" dy="10">- value : int</tspan><tspan x="5" dy="10">- sanity : Sanity</tspan></text><line x1="0" y1="77" y2="77" x2="258.734375"></line><text x="5" y="92" fill="white" class="classText"><tspan x="5">+Card(_name : string, _description : string, _value : int)</tspan><tspan x="5" dy="10">+getDescrption()</tspan><tspan x="5" dy="10">+getName()</tspan><tspan x="5" dy="10">+getValue()</tspan><tspan x="5" dy="10">+hasInsane()</tspan><tspan x="5" dy="10">+effect(sanity : Sanity)</tspan></text></g><g id="classid-SaneCard-2" class="classGroup" transform="translate(425.39453125,821 )"><rect x="0" y="0" width="282.09375" height="77" class=" "></rect><text y="15" x="0"><tspan x="117.4765625">«abstract»</tspan><tspan class="title" dy="10" x="117.6953125">SaneCard</tspan></text><line x1="0" y1="31" y2="31" x2="282.09375"></line><text x="5" y="41" fill="white" class="classText"></text><line x1="0" y1="36" y2="36" x2="282.09375"></line><text x="5" y="51" fill="white" class="classText"><tspan x="5">+SaneCard(_name : string, _description : string, _value : int)</tspan><tspan x="5" dy="10">+effect(sanity : Sanity)</tspan><tspan x="5" dy="10">+hasInsane()</tspan></text></g><g id="classid-InsaneCard-3" class="classGroup" transform="translate(352.6640625,658.5 )"><rect x="0" y="0" width="288.75" height="77" class=" "></rect><text y="15" x="0"><tspan x="120.8046875">«abstract»</tspan><tspan class="title" dy="10" x="117.1328125">InsaneCard</tspan></text><line x1="0" y1="31" y2="31" x2="288.75"></line><text x="5" y="41" fill="white" class="classText"></text><line x1="0" y1="36" y2="36" x2="288.75"></line><text x="5" y="51" fill="white" class="classText"><tspan x="5">+InsaneCard(_name : string, _description : string, _value : int)</tspan><tspan x="5" dy="10">+effect(sanity : Sanity)</tspan><tspan x="5" dy="10">+hasInsane()</tspan></text></g><g id="classid-SpecifiedCard-4" class="classGroup" transform="translate(506.19140625,475.5 )"><rect x="0" y="0" width="299.875" height="57" class=" "></rect><text y="15" x="0"><tspan class="title" x="116.3125">SpecifiedCard</tspan></text><line x1="0" y1="21" y2="21" x2="299.875"></line><text x="5" y="31" fill="white" class="classText"></text><line x1="0" y1="26" y2="26" x2="299.875"></line><text x="5" y="41" fill="white" class="classText"><tspan x="5">+SpecifiedCard(_name : string, _description : string, _value : int)</tspan><tspan x="5" dy="10">+effect(sanity : Sanity)</tspan></text></g><g id="classid-GameManager-5" class="classGroup" transform="translate(187.4765625,167 )"><rect x="0" y="0" width="209.25" height="218" class=" "></rect><text y="15" x="0"><tspan class="title" x="70.109375">GameManager</tspan></text><line x1="0" y1="21" y2="21" x2="209.25"></line><text x="5" y="31" fill="white" class="classText"><tspan x="5">- roundNumber : int</tspan></text><line x1="0" y1="37" y2="37" x2="209.25"></line><text x="5" y="52" fill="white" class="classText"><tspan x="5">+GameManager(nbPlayer : int)</tspan><tspan x="5" dy="10">+run()</tspan><tspan x="5" dy="10">+isGameEnd()</tspan><tspan x="5" dy="10">+nextRound()</tspan><tspan x="5" dy="10">+play(int : cardNumber)</tspan><tspan x="5" dy="10">+chooseTargetPlayer(int : nbPlayer)</tspan><tspan x="5" dy="10">+sanityCheck(Player : player)</tspan><tspan x="5" dy="10">+isGameEnd()</tspan><tspan x="5" dy="10">+isRoundEnd()</tspan><tspan x="5" dy="10">+findWinnerWthSpecialEffect()</tspan><tspan x="5" dy="10">+startNewRound()</tspan><tspan x="5" dy="10">+getCurrentPlayer()</tspan><tspan x="5" dy="10">+checkPlayableCard(Card : card)</tspan><tspan x="5" dy="10">+redistribute()</tspan><tspan x="5" dy="10">+showHandToCurrent(List&lt;Card&gt; : cards)</tspan><tspan x="5" dy="10">+playerDraw(player : Player, nbCard : int)</tspan><tspan x="5" dy="10">+playerDiscard(player : Player, nbCard : int)</tspan></text></g><g id="classid-Player-6" class="classGroup" transform="translate(81.1796875,435 )"><rect x="0" y="0" width="184.234375" height="138" class=" "></rect><text y="15" x="0"><tspan class="title" x="77.046875">Player</tspan></text><line x1="0" y1="21" y2="21" x2="184.234375"></line><text x="5" y="31" fill="white" class="classText"><tspan x="5">- saneToken : int</tspan><tspan x="5" dy="10">- insaneToken : int</tspan></text><line x1="0" y1="47" y2="47" x2="184.234375"></line><text x="5" y="62" fill="white" class="classText"><tspan x="5">+updateToken()</tspan><tspan x="5" dy="10">+getHand()</tspan><tspan x="5" dy="10">+getDiscard()</tspan><tspan x="5" dy="10">+getSaneToken()</tspan><tspan x="5" dy="10">+getInsaneToken()</tspan><tspan x="5" dy="10">+roundWon()</tspan><tspan x="5" dy="10">+getCardFromHand(int : cardNumber)</tspan><tspan x="5" dy="10">+addDiscardedCard(Card : card)</tspan></text></g><g id="classid-View-7" class="classGroup" transform="translate(157.171875,0 )"><rect x="0" y="0" width="269.859375" height="117" class=" "></rect><text y="15" x="0"><tspan class="title" x="123.5078125">View</tspan></text><line x1="0" y1="21" y2="21" x2="269.859375"></line><text x="5" y="31" fill="white" class="classText"></text><line x1="0" y1="26" y2="26" x2="269.859375"></line><text x="5" y="41" fill="white" class="classText"><tspan x="5">+View()</tspan><tspan x="5" dy="10">+chooseTargetPlayer(int : nbPlayer, List&lt;Player&gt; players)</tspan><tspan x="5" dy="10">+cardCantBePlayer()</tspan><tspan x="5" dy="10">+askInsanity()</tspan><tspan x="5" dy="10">+redistribute(List&lt;Card&gt; : inGameCards)</tspan><tspan x="5" dy="10">+chooseNumber()</tspan><tspan x="5" dy="10">+showCards(List&lt;Card&gt; : cards)</tspan><tspan x="5" dy="10">+playerDiscard(player : Player, nbCard : int)</tspan></text></g><path d="M173.296875,771L173.296875,775.1666666666666C173.296875,779.3333333333334,173.296875,787.6666666666666,215.31315104166666,798.6197269279811C257.3294270833333,809.5727871892956,341.3619791666667,823.1455743785914,383.3782552083333,829.9319679732392L425.39453125,836.7183615678871" id="edge0" class="relation dashed-line" marker-start="url(#extensionStart)"></path><path d="M497.0390625,735.5L497.0390625,745.5833333333334C497.0390625,755.6666666666666,497.0390625,775.8333333333334,501.5930220636483,790.0833333333334C506.14698162729655,804.3333333333334,515.2549007545932,812.6666666666666,519.8088603182415,816.8333333333334L524.3628198818898,821" id="edge1" class="relation dashed-line" marker-start="url(#extensionStart)"></path><path d="M662.2791929853723,532.5L664.6350045711437,543.4166666666666C666.9908161569149,554.3333333333334,671.7024393284574,576.1666666666666,674.0582509142288,603.5833333333334C676.4140625,631,676.4140625,664,676.4140625,697C676.4140625,730,676.4140625,763,669.1980089402887,783.6666666666666C661.9819553805775,804.3333333333334,647.5498482611548,812.6666666666666,640.3337947014435,816.8333333333334L633.1177411417323,821" id="edge2" class="relation dashed-line" marker-start="url(#extensionStart)"></path><path d="M607.894219581117,532.5L589.4183600675975,543.4166666666666C570.942500554078,554.3333333333334,533.990781527039,576.1666666666666,515.5149220135195,597.1666666666666C497.0390625,618.1666666666666,497.0390625,638.3333333333334,497.0390625,648.4166666666666L497.0390625,658.5" id="edge3" class="relation dashed-line" marker-start="url(#extensionStart)"></path><path d="M165.9564494680851,573L165.5131870567376,577.1666666666666C165.06992464539007,581.3333333333334,164.18339982269504,589.6666666666666,164.16101283222295,598C164.13862584175084,606.3333333333334,164.98037668350167,614.6666666666666,165.4012521043771,618.8333333333334L165.8221275252525,623" id="edge4" class="relation"></path><g class="classLabel"><rect class="box" x="149.671875" y="586.484375" width="27.25" height="16.015625"></rect><text class="label" x="163.2976078002464" y="597.9931116776838" fill="red" text-anchor="middle">hand</text></g><g class="cardinality"><text class="type1" x="159.6621792197705" y="584.9009311417714" fill="black" font-size="6">1</text></g><g class="cardinality"><text class="type2" x="169.54057964584166" y="610.0607916074094" fill="black" font-size="6">0..*</text></g><path d="M216.9007230718085,573L219.53380568484042,577.1666666666666C222.16688829787233,581.3333333333334,227.43305352393614,589.6666666666666,227.56603749429132,598C227.69902146464645,606.3333333333334,222.69882417929293,614.6666666666666,220.19872553661617,618.8333333333334L217.69862689393938,623" id="edge5" class="relation"></path><g class="classLabel"><rect class="box" x="213.96875" y="586.3125" width="37.25" height="16.015625"></rect><text class="label" x="232.58744963360994" y="597.8231332927724" fill="red" text-anchor="middle">discard</text></g><g class="cardinality"><text class="type1" x="219.35160553854044" y="586.2379445207429" fill="black" font-size="6">1</text></g><g class="cardinality"><text class="type2" x="228.41743026717225" y="614.8540037904519" fill="black" font-size="6">0..*</text></g><path d="M364.82436450559703,385L367.6042881296642,389.1666666666667C370.38421175373134,393.3333333333333,375.9440590018657,401.6666666666667,378.7239826259329,421.5C381.50390625,441.3333333333333,381.50390625,472.6666666666667,381.50390625,504C381.50390625,535.3333333333334,381.50390625,566.6666666666666,368.3639322916667,588.5812367497796C355.2239583333333,610.4958068328924,328.9440104166667,622.9916136657849,315.8040364583333,629.2395170822311L302.6640625,635.4874204986774" id="edge6" class="relation"></path><g class="classLabel"><rect class="box" x="368.4375" y="521.109375" width="27.140625" height="16.015625"></rect><text class="label" x="381.50390625" y="532.6225465551097" fill="red" text-anchor="middle">deck</text></g><g class="cardinality"><text class="type1" x="367.60256130629546" y="398.17314019270236" fill="black" font-size="6">1</text></g><g class="cardinality"><text class="type2" x="316.09997701791417" y="634.6352461812385" fill="black" font-size="6">0..*</text></g><path d="M187.4765625,384.8450294171165L183.44661458333334,389.0375245142638C179.41666666666666,393.230019611411,171.35677083333334,401.61500980570554,167.77008532801418,409.97417156951946C164.18339982269504,418.3333333333333,165.06992464539007,426.6666666666667,165.5131870567376,430.8333333333333L165.9564494680851,435" id="edge7" class="relation"></path><g class="cardinality"><text class="type1" x="175.2094300811732" y="390.3918719621117" fill="black" font-size="6">1</text></g><g class="cardinality"><text class="type2" x="169.60606835156165" y="422.04120831229346" fill="black" font-size="6">2..6</text></g><path d="M243.78174556902985,385L241.93465776585822,389.1666666666667C240.08756996268656,393.3333333333333,236.3933943563433,401.6666666666667,231.91322394013972,410C227.43305352393614,418.3333333333333,222.16688829787233,426.6666666666667,219.53380568484042,430.8333333333333L216.9007230718085,435" id="edge8" class="relation"></path><g class="classLabel"><rect class="box" x="212.921875" y="399.4375" width="38.578125" height="16.015625"></rect><text class="label" x="232.10432989672287" y="410.9413694591479" fill="red" text-anchor="middle">Current</text></g><g class="cardinality"><text class="type1" x="234.14493239756104" y="394.40116119945856" fill="black" font-size="6">1</text></g><g class="cardinality"><text class="type2" x="227.80511694133358" y="427.10416601375994" fill="black" font-size="6">1</text></g><path d="M292.1015625,117L292.1015625,121.16666666666667C292.1015625,125.33333333333333,292.1015625,133.66666666666666,292.1015625,142C292.1015625,150.33333333333334,292.1015625,158.66666666666666,292.1015625,162.83333333333334L292.1015625,167" id="edge9" class="relation"></path><g class="cardinality"><text class="type1" x="287.1015625" y="129.5" fill="black" font-size="6">1</text></g><g class="cardinality"><text class="type2" x="297.1015625" y="154.5" fill="black" font-size="6">1</text></g></svg>