<svg id="mermaid-1605800934029" width="100%" xmlns="http://www.w3.org/2000/svg" xmlns:xlink="http://www.w3.org/1999/xlink" height="692" style="max-width: 720.7109375px;" viewBox="-20 -20 720.7109375 692"><style>#mermaid-1605800934029{font-family:"trebuchet ms",verdana,arial;font-size:16px;fill:#333;}#mermaid-1605800934029 .error-icon{fill:#552222;}#mermaid-1605800934029 .error-text{fill:#552222;stroke:#552222;}#mermaid-1605800934029 .edge-thickness-normal{stroke-width:2px;}#mermaid-1605800934029 .edge-thickness-thick{stroke-width:3.5px;}#mermaid-1605800934029 .edge-pattern-solid{stroke-dasharray:0;}#mermaid-1605800934029 .edge-pattern-dashed{stroke-dasharray:3;}#mermaid-1605800934029 .edge-pattern-dotted{stroke-dasharray:2;}#mermaid-1605800934029 .marker{fill:#333333;}#mermaid-1605800934029 .marker.cross{stroke:#333333;}#mermaid-1605800934029 svg{font-family:"trebuchet ms",verdana,arial;font-size:16px;}#mermaid-1605800934029 g.classGroup text{fill:#9370DB;fill:#131300;stroke:none;font-family:"trebuchet ms",verdana,arial;font-size:10px;}#mermaid-1605800934029 g.classGroup text .title{font-weight:bolder;}#mermaid-1605800934029 .classTitle{font-weight:bolder;}#mermaid-1605800934029 .node rect,#mermaid-1605800934029 .node circle,#mermaid-1605800934029 .node ellipse,#mermaid-1605800934029 .node polygon,#mermaid-1605800934029 .node path{fill:#ECECFF;stroke:#9370DB;stroke-width:1px;}#mermaid-1605800934029 .divider{stroke:#9370DB;stroke:1;}#mermaid-1605800934029 g.clickable{cursor:pointer;}#mermaid-1605800934029 g.classGroup rect{fill:#ECECFF;stroke:#9370DB;}#mermaid-1605800934029 g.classGroup line{stroke:#9370DB;stroke-width:1;}#mermaid-1605800934029 .classLabel .box{stroke:none;stroke-width:0;fill:#ECECFF;opacity:0.5;}#mermaid-1605800934029 .classLabel .label{fill:#9370DB;font-size:10px;}#mermaid-1605800934029 .relation{stroke:#333333;stroke-width:1;fill:none;}#mermaid-1605800934029 .dashed-line{stroke-dasharray:3;}#mermaid-1605800934029 #compositionStart,#mermaid-1605800934029 .composition{fill:#333333 !important;stroke:#333333 !important;stroke-width:1;}#mermaid-1605800934029 #compositionEnd,#mermaid-1605800934029 .composition{fill:#333333 !important;stroke:#333333 !important;stroke-width:1;}#mermaid-1605800934029 #dependencyStart,#mermaid-1605800934029 .dependency{fill:#333333 !important;stroke:#333333 !important;stroke-width:1;}#mermaid-1605800934029 #dependencyStart,#mermaid-1605800934029 .dependency{fill:#333333 !important;stroke:#333333 !important;stroke-width:1;}#mermaid-1605800934029 #extensionStart,#mermaid-1605800934029 .extension{fill:#333333 !important;stroke:#333333 !important;stroke-width:1;}#mermaid-1605800934029 #extensionEnd,#mermaid-1605800934029 .extension{fill:#333333 !important;stroke:#333333 !important;stroke-width:1;}#mermaid-1605800934029 #aggregationStart,#mermaid-1605800934029 .aggregation{fill:#ECECFF !important;stroke:#333333 !important;stroke-width:1;}#mermaid-1605800934029 #aggregationEnd,#mermaid-1605800934029 .aggregation{fill:#ECECFF !important;stroke:#333333 !important;stroke-width:1;}#mermaid-1605800934029 .edgeTerminals{font-size:11px;}#mermaid-1605800934029:root{--mermaid-font-family:"trebuchet ms",verdana,arial;}#mermaid-1605800934029 class{fill:apa;}</style><g></g><defs><marker id="extensionStart" class="extension" refX="0" refY="7" markerWidth="190" markerHeight="240" orient="auto"><path d="M 1,7 L18,13 V 1 Z"></path></marker></defs><defs><marker id="extensionEnd" refX="19" refY="7" markerWidth="20" markerHeight="28" orient="auto"><path d="M 1,1 V 13 L18,7 Z"></path></marker></defs><defs><marker id="compositionStart" class="extension" refX="0" refY="7" markerWidth="190" markerHeight="240" orient="auto"><path d="M 18,7 L9,13 L1,7 L9,1 Z"></path></marker></defs><defs><marker id="compositionEnd" refX="19" refY="7" markerWidth="20" markerHeight="28" orient="auto"><path d="M 18,7 L9,13 L1,7 L9,1 Z"></path></marker></defs><defs><marker id="aggregationStart" class="extension" refX="0" refY="7" markerWidth="190" markerHeight="240" orient="auto"><path d="M 18,7 L9,13 L1,7 L9,1 Z"></path></marker></defs><defs><marker id="aggregationEnd" refX="19" refY="7" markerWidth="20" markerHeight="28" orient="auto"><path d="M 18,7 L9,13 L1,7 L9,1 Z"></path></marker></defs><defs><marker id="dependencyStart" class="extension" refX="0" refY="7" markerWidth="190" markerHeight="240" orient="auto"><path d="M 5,7 L9,13 L1,7 L9,1 Z"></path></marker></defs><defs><marker id="dependencyEnd" refX="19" refY="7" markerWidth="20" markerHeight="28" orient="auto"><path d="M 18,7 L9,13 L14,7 L9,1 Z"></path></marker></defs><g id="classid-Sanity-0" class="classGroup" transform="translate(110.74609375,0 )"><rect x="0" y="0" width="107.171875" height="71" class=" "></rect><text y="15" x="0"><tspan x="20.0078125">«enumeration»</tspan><tspan class="title" dy="10" x="38.359375">Sanity</tspan></text><line x1="0" y1="31" y2="31" x2="107.171875"></line><text x="5" y="41" fill="white" class="classText"><tspan x="5">SANE</tspan><tspan x="5" dy="10">INSANE</tspan><tspan x="5" dy="10">NEUTRAL</tspan></text><line x1="0" y1="67" y2="67" x2="107.171875"></line><text x="5" y="82" fill="white" class="classText"></text></g><g id="classid-Card-1" class="classGroup" transform="translate(0,377 )"><rect x="0" y="0" width="258.734375" height="148" class=" "></rect><text y="15" x="0"><tspan x="104.40625">«interface»</tspan><tspan class="title" dy="10" x="117.96875">Card</tspan></text><line x1="0" y1="31" y2="31" x2="258.734375"></line><text x="5" y="41" fill="white" class="classText"><tspan x="5">- name : string</tspan><tspan x="5" dy="10">- description : string</tspan><tspan x="5" dy="10">- value : int</tspan><tspan x="5" dy="10">- sanity : Sanity</tspan></text><line x1="0" y1="77" y2="77" x2="258.734375"></line><text x="5" y="92" fill="white" class="classText"><tspan x="5">+Card(_name : string, _description : string, _value : int)</tspan><tspan x="5" dy="10">+getDescrption()</tspan><tspan x="5" dy="10">+getName()</tspan><tspan x="5" dy="10">+getValue()</tspan><tspan x="5" dy="10">+hasInsane()</tspan><tspan x="5" dy="10">+effect(sanity : Sanity)</tspan></text></g><g id="classid-SaneCard-2" class="classGroup" transform="translate(392.9609375,575 )"><rect x="0" y="0" width="282.09375" height="77" class=" "></rect><text y="15" x="0"><tspan x="117.4765625">«abstract»</tspan><tspan class="title" dy="10" x="117.6953125">SaneCard</tspan></text><line x1="0" y1="31" y2="31" x2="282.09375"></line><text x="5" y="41" fill="white" class="classText"></text><line x1="0" y1="36" y2="36" x2="282.09375"></line><text x="5" y="51" fill="white" class="classText"><tspan x="5">+SaneCard(_name : string, _description : string, _value : int)</tspan><tspan x="5" dy="10">+effect(sanity : Sanity)</tspan><tspan x="5" dy="10">+hasInsane()</tspan></text></g><g id="classid-InsaneCard-3" class="classGroup" transform="translate(308.734375,412.5 )"><rect x="0" y="0" width="288.75" height="77" class=" "></rect><text y="15" x="0"><tspan x="120.8046875">«abstract»</tspan><tspan class="title" dy="10" x="117.1328125">InsaneCard</tspan></text><line x1="0" y1="31" y2="31" x2="288.75"></line><text x="5" y="41" fill="white" class="classText"></text><line x1="0" y1="36" y2="36" x2="288.75"></line><text x="5" y="51" fill="white" class="classText"><tspan x="5">+InsaneCard(_name : string, _description : string, _value : int)</tspan><tspan x="5" dy="10">+effect(sanity : Sanity)</tspan><tspan x="5" dy="10">+hasInsane()</tspan></text></g><g id="classid-SpecifiedCard-4" class="classGroup" transform="translate(566.6796875,254.5 )"><rect x="0" y="0" width="114.03125" height="57" class=" "></rect><text y="15" x="0"><tspan class="title" x="23.390625">SpecifiedCard</tspan></text><line x1="0" y1="21" y2="21" x2="114.03125"></line><text x="5" y="31" fill="white" class="classText"></text><line x1="0" y1="26" y2="26" x2="114.03125"></line><text x="5" y="41" fill="white" class="classText"><tspan x="5">+SpecifiedCard()</tspan><tspan x="5" dy="10">+effect(sanity : Sanity)</tspan></text></g><g id="classid-GameManager-5" class="classGroup" transform="translate(229.83984375,121 )"><rect x="0" y="0" width="152.578125" height="68" class=" "></rect><text y="15" x="0"><tspan class="title" x="41.7734375">GameManager</tspan></text><line x1="0" y1="21" y2="21" x2="152.578125"></line><text x="5" y="31" fill="white" class="classText"><tspan x="5">- roundNumber : int</tspan></text><line x1="0" y1="37" y2="37" x2="152.578125"></line><text x="5" y="52" fill="white" class="classText"><tspan x="5">+GameManager(nbPlayer : int)</tspan><tspan x="5" dy="10">+isGameEnd()</tspan></text></g><g id="classid-Player-6" class="classGroup" transform="translate(80.3046875,239 )"><rect x="0" y="0" width="98.125" height="88" class=" "></rect><text y="15" x="0"><tspan class="title" x="33.9921875">Player</tspan></text><line x1="0" y1="21" y2="21" x2="98.125"></line><text x="5" y="31" fill="white" class="classText"><tspan x="5">- saneToken : int</tspan><tspan x="5" dy="10">- insaneToken : int</tspan></text><line x1="0" y1="47" y2="47" x2="98.125"></line><text x="5" y="62" fill="white" class="classText"><tspan x="5">+updateToken()</tspan><tspan x="5" dy="10">+getSaneToken()</tspan><tspan x="5" dy="10">+getInsaneToken()</tspan></text></g><g id="classid-Application-7" class="classGroup" transform="translate(267.91796875,12 )"><rect x="0" y="0" width="76.421875" height="47" class=" "></rect><text y="15" x="0"><tspan class="title" x="10.984375">Application</tspan></text><line x1="0" y1="21" y2="21" x2="76.421875"></line><text x="5" y="31" fill="white" class="classText"></text><line x1="0" y1="26" y2="26" x2="76.421875"></line><text x="5" y="41" fill="white" class="classText"><tspan x="5">+Application()</tspan></text></g><path d="M129.3671875,525L129.3671875,529.1666666666666C129.3671875,533.3333333333334,129.3671875,541.6666666666666,173.29947916666666,552.7276003655508C217.23177083333334,563.7885340644348,305.0963541666667,577.5770681288694,349.0286458333333,584.4713351610868L392.9609375,591.3656021933042" id="edge0" class="relation dashed-line" marker-start="url(#extensionStart)"></path><path d="M453.109375,489.5L453.109375,499.5833333333333C453.109375,509.6666666666667,453.109375,529.8333333333334,458.4176714238845,544.0833333333334C463.725967847769,558.3333333333334,474.3425606955381,566.6666666666666,479.6508571194226,570.8333333333334L484.9591535433071,575" id="edge1" class="relation dashed-line" marker-start="url(#extensionStart)"></path><path d="M627.3255774456521,311.5L628.1853770380434,318.25C629.0451766304348,325,630.7647758152174,338.5,631.6245754076086,361.75C632.484375,385,632.484375,418,632.484375,451C632.484375,484,632.484375,517,626.022658300525,537.6666666666666C619.5609416010499,558.3333333333334,606.6375082020998,566.6666666666666,600.1757915026247,570.8333333333334L593.7140748031496,575" id="edge2" class="relation dashed-line" marker-start="url(#extensionStart)"></path><path d="M566.6796875,306.0621479276391L547.7513020833334,313.7184566063659C528.8229166666666,321.37476528509274,490.9661458333333,336.68738264254637,472.0377604166667,354.42702465460656C453.109375,372.1666666666667,453.109375,392.3333333333333,453.109375,402.4166666666667L453.109375,412.5" id="edge3" class="relation dashed-line" marker-start="url(#extensionStart)"></path><path d="M122.9903759057971,327L122.38651117149759,331.1666666666667C121.78264643719807,335.3333333333333,120.57491696859904,343.6666666666667,120.39192765517494,352C120.20893834175085,360.3333333333333,121.05068918350169,368.6666666666667,121.47156460437712,372.8333333333333L121.89244002525253,377" id="edge4" class="relation"></path><g class="classLabel"><rect class="box" x="105.75" y="340.421875" width="27.25" height="16.015625"></rect><text class="label" x="119.37679518177193" y="351.93370699577366" fill="red" text-anchor="middle">hand</text></g><g class="cardinality"><text class="type1" x="116.24920950680917" y="338.65361212590994" fill="black" font-size="6">1</text></g><g class="cardinality"><text class="type2" x="125.61089214584165" y="364.06079160740944" fill="black" font-size="6">0..*</text></g><path d="M178.4296875,324.84645098986L183.73567708333334,329.37204249154996C189.04166666666666,333.89763399324,199.65364583333334,342.94881699662,201.55481902356902,351.64107516497666C203.4559922138047,360.3333333333333,196.64635942760944,368.6666666666667,193.24154303451178,372.8333333333333L189.83672664141415,377" id="edge5" class="relation"></path><g class="classLabel"><rect class="box" x="188" y="337.390625" width="37.25" height="16.015625"></rect><text class="label" x="206.62964884221986" y="348.89879851033174" fill="red" text-anchor="middle">discard</text></g><g class="cardinality"><text class="type1" x="184.69551601481345" y="336.7623812104912" fill="black" font-size="6">1</text></g><g class="cardinality"><text class="type2" x="201.61798184581556" y="370.484478086234" fill="black" font-size="6">0..*</text></g><path d="M358.55382680084745,189L364.97844941737293,193.16666666666666C371.4030720338983,197.33333333333334,384.25231726694915,205.66666666666666,390.67693988347463,221.33333333333334C397.1015625,237,397.1015625,260,397.1015625,283C397.1015625,306,397.1015625,329,374.0403645833333,349.0273271082579C350.9791666666667,369.0546542165159,304.8567708333333,386.10930843303186,281.7955729166667,394.63663554128976L258.734375,403.1639626495477" id="edge6" class="relation"></path><g class="classLabel"><rect class="box" x="384.03125" y="322.28125" width="27.140625" height="16.015625"></rect><text class="label" x="397.1015625" y="333.7894111175673" fill="red" text-anchor="middle">deck</text></g><g class="cardinality"><text class="type1" x="366.3206778690889" y="199.99663696244247" fill="black" font-size="6">1</text></g><g class="cardinality"><text class="type2" x="272.1926208487171" y="403.51838989947066" fill="black" font-size="6">0..*</text></g><path d="M229.83984375,179.10052080065256L211.427734375,184.91710066721046C193.015625,190.7336805337684,156.19140625,202.3668402668842,138.38316160929952,212.35008680010876C120.57491696859904,222.33333333333334,121.78264643719807,230.66666666666666,122.38651117149759,234.83333333333334L122.9903759057971,239" id="edge7" class="relation"></path><g class="cardinality"><text class="type1" x="216.4142931558102" y="178.09822780813445" fill="black" font-size="6">1</text></g><g class="cardinality"><text class="type2" x="126.14581549681273" y="225.91209715090113" fill="black" font-size="6">2..6</text></g><path d="M265.27217955508473,189L260.2652277542373,193.16666666666666C255.2582759533898,197.33333333333334,245.2443723516949,205.66666666666666,230.77062367584745,216.00364070206513C216.296875,226.34061473746354,197.36328125,238.6812294749271,187.896484375,244.8515368436589L178.4296875,251.02184421239068" id="edge8" class="relation"></path><g class="classLabel"><rect class="box" x="204.015625" y="210.328125" width="38.59375" height="16.015625"></rect><text class="label" x="223.20129115730043" y="221.84042629413847" fill="red" text-anchor="middle">Current</text></g><g class="cardinality"><text class="type1" x="252.4656515238854" y="193.15244985353294" fill="black" font-size="6">1</text></g><g class="cardinality"><text class="type2" x="191.63188065199122" y="248.38516145227035" fill="black" font-size="6">1</text></g><path d="M306.12890625,59L306.12890625,65.16666666666667C306.12890625,71.33333333333333,306.12890625,83.66666666666667,306.12890625,94C306.12890625,104.33333333333333,306.12890625,112.66666666666667,306.12890625,116.83333333333333L306.12890625,121" id="edge9" class="relation"></path><g class="cardinality"><text class="type1" x="301.12890625" y="71.5" fill="black" font-size="6">1</text></g><g class="cardinality"><text class="type2" x="311.12890625" y="108.5" fill="black" font-size="6">1</text></g></svg>