<svg id="mermaid-1607004500114" width="100%" xmlns="http://www.w3.org/2000/svg" xmlns:xlink="http://www.w3.org/1999/xlink" height="722" style="max-width: 802.13671875px;" viewBox="-20 -20 802.13671875 722"><style>#mermaid-1607004500114{font-family:"trebuchet ms",verdana,arial;font-size:16px;fill:#333;}#mermaid-1607004500114 .error-icon{fill:#552222;}#mermaid-1607004500114 .error-text{fill:#552222;stroke:#552222;}#mermaid-1607004500114 .edge-thickness-normal{stroke-width:2px;}#mermaid-1607004500114 .edge-thickness-thick{stroke-width:3.5px;}#mermaid-1607004500114 .edge-pattern-solid{stroke-dasharray:0;}#mermaid-1607004500114 .edge-pattern-dashed{stroke-dasharray:3;}#mermaid-1607004500114 .edge-pattern-dotted{stroke-dasharray:2;}#mermaid-1607004500114 .marker{fill:#333333;}#mermaid-1607004500114 .marker.cross{stroke:#333333;}#mermaid-1607004500114 svg{font-family:"trebuchet ms",verdana,arial;font-size:16px;}#mermaid-1607004500114 g.classGroup text{fill:#9370DB;fill:#131300;stroke:none;font-family:"trebuchet ms",verdana,arial;font-size:10px;}#mermaid-1607004500114 g.classGroup text .title{font-weight:bolder;}#mermaid-1607004500114 .classTitle{font-weight:bolder;}#mermaid-1607004500114 .node rect,#mermaid-1607004500114 .node circle,#mermaid-1607004500114 .node ellipse,#mermaid-1607004500114 .node polygon,#mermaid-1607004500114 .node path{fill:#ECECFF;stroke:#9370DB;stroke-width:1px;}#mermaid-1607004500114 .divider{stroke:#9370DB;stroke:1;}#mermaid-1607004500114 g.clickable{cursor:pointer;}#mermaid-1607004500114 g.classGroup rect{fill:#ECECFF;stroke:#9370DB;}#mermaid-1607004500114 g.classGroup line{stroke:#9370DB;stroke-width:1;}#mermaid-1607004500114 .classLabel .box{stroke:none;stroke-width:0;fill:#ECECFF;opacity:0.5;}#mermaid-1607004500114 .classLabel .label{fill:#9370DB;font-size:10px;}#mermaid-1607004500114 .relation{stroke:#333333;stroke-width:1;fill:none;}#mermaid-1607004500114 .dashed-line{stroke-dasharray:3;}#mermaid-1607004500114 #compositionStart,#mermaid-1607004500114 .composition{fill:#333333 !important;stroke:#333333 !important;stroke-width:1;}#mermaid-1607004500114 #compositionEnd,#mermaid-1607004500114 .composition{fill:#333333 !important;stroke:#333333 !important;stroke-width:1;}#mermaid-1607004500114 #dependencyStart,#mermaid-1607004500114 .dependency{fill:#333333 !important;stroke:#333333 !important;stroke-width:1;}#mermaid-1607004500114 #dependencyStart,#mermaid-1607004500114 .dependency{fill:#333333 !important;stroke:#333333 !important;stroke-width:1;}#mermaid-1607004500114 #extensionStart,#mermaid-1607004500114 .extension{fill:#333333 !important;stroke:#333333 !important;stroke-width:1;}#mermaid-1607004500114 #extensionEnd,#mermaid-1607004500114 .extension{fill:#333333 !important;stroke:#333333 !important;stroke-width:1;}#mermaid-1607004500114 #aggregationStart,#mermaid-1607004500114 .aggregation{fill:#ECECFF !important;stroke:#333333 !important;stroke-width:1;}#mermaid-1607004500114 #aggregationEnd,#mermaid-1607004500114 .aggregation{fill:#ECECFF !important;stroke:#333333 !important;stroke-width:1;}#mermaid-1607004500114 .edgeTerminals{font-size:11px;}#mermaid-1607004500114:root{--mermaid-font-family:"trebuchet ms",verdana,arial;}#mermaid-1607004500114 class{fill:apa;}</style><g></g><defs><marker id="extensionStart" class="extension" refX="0" refY="7" markerWidth="190" markerHeight="240" orient="auto"><path d="M 1,7 L18,13 V 1 Z"></path></marker></defs><defs><marker id="extensionEnd" refX="19" refY="7" markerWidth="20" markerHeight="28" orient="auto"><path d="M 1,1 V 13 L18,7 Z"></path></marker></defs><defs><marker id="compositionStart" class="extension" refX="0" refY="7" markerWidth="190" markerHeight="240" orient="auto"><path d="M 18,7 L9,13 L1,7 L9,1 Z"></path></marker></defs><defs><marker id="compositionEnd" refX="19" refY="7" markerWidth="20" markerHeight="28" orient="auto"><path d="M 18,7 L9,13 L1,7 L9,1 Z"></path></marker></defs><defs><marker id="aggregationStart" class="extension" refX="0" refY="7" markerWidth="190" markerHeight="240" orient="auto"><path d="M 18,7 L9,13 L1,7 L9,1 Z"></path></marker></defs><defs><marker id="aggregationEnd" refX="19" refY="7" markerWidth="20" markerHeight="28" orient="auto"><path d="M 18,7 L9,13 L1,7 L9,1 Z"></path></marker></defs><defs><marker id="dependencyStart" class="extension" refX="0" refY="7" markerWidth="190" markerHeight="240" orient="auto"><path d="M 5,7 L9,13 L1,7 L9,1 Z"></path></marker></defs><defs><marker id="dependencyEnd" refX="19" refY="7" markerWidth="20" markerHeight="28" orient="auto"><path d="M 18,7 L9,13 L14,7 L9,1 Z"></path></marker></defs><g id="classid-Sanity-0" class="classGroup" transform="translate(52.7890625,0 )"><rect x="0" y="0" width="107.171875" height="71" class=" "></rect><text y="15" x="0"><tspan x="20.0078125">«enumeration»</tspan><tspan class="title" dy="10" x="38.359375">Sanity</tspan></text><line x1="0" y1="31" y2="31" x2="107.171875"></line><text x="5" y="41" fill="white" class="classText"><tspan x="5">SANE</tspan><tspan x="5" dy="10">INSANE</tspan><tspan x="5" dy="10">NEUTRAL</tspan></text><line x1="0" y1="67" y2="67" x2="107.171875"></line><text x="5" y="82" fill="white" class="classText"></text></g><g id="classid-Card-1" class="classGroup" transform="translate(0,407 )"><rect x="0" y="0" width="258.734375" height="148" class=" "></rect><text y="15" x="0"><tspan x="105.796875">«abstract»</tspan><tspan class="title" dy="10" x="117.96875">Card</tspan></text><line x1="0" y1="31" y2="31" x2="258.734375"></line><text x="5" y="41" fill="white" class="classText"><tspan x="5">- name : string</tspan><tspan x="5" dy="10">- description : string</tspan><tspan x="5" dy="10">- value : int</tspan><tspan x="5" dy="10">- sanity : Sanity</tspan></text><line x1="0" y1="77" y2="77" x2="258.734375"></line><text x="5" y="92" fill="white" class="classText"><tspan x="5">+Card(_name : string, _description : string, _value : int)</tspan><tspan x="5" dy="10">+getDescrption()</tspan><tspan x="5" dy="10">+getName()</tspan><tspan x="5" dy="10">+getValue()</tspan><tspan x="5" dy="10">+hasInsane()</tspan><tspan x="5" dy="10">+effect(sanity : Sanity)</tspan></text></g><g id="classid-SaneCard-2" class="classGroup" transform="translate(381.46484375,605 )"><rect x="0" y="0" width="282.09375" height="77" class=" "></rect><text y="15" x="0"><tspan x="117.4765625">«abstract»</tspan><tspan class="title" dy="10" x="117.6953125">SaneCard</tspan></text><line x1="0" y1="31" y2="31" x2="282.09375"></line><text x="5" y="41" fill="white" class="classText"></text><line x1="0" y1="36" y2="36" x2="282.09375"></line><text x="5" y="51" fill="white" class="classText"><tspan x="5">+SaneCard(_name : string, _description : string, _value : int)</tspan><tspan x="5" dy="10">+effect(sanity : Sanity)</tspan><tspan x="5" dy="10">+hasInsane()</tspan></text></g><g id="classid-InsaneCard-3" class="classGroup" transform="translate(308.734375,442.5 )"><rect x="0" y="0" width="288.75" height="77" class=" "></rect><text y="15" x="0"><tspan x="120.8046875">«abstract»</tspan><tspan class="title" dy="10" x="117.1328125">InsaneCard</tspan></text><line x1="0" y1="31" y2="31" x2="288.75"></line><text x="5" y="41" fill="white" class="classText"></text><line x1="0" y1="36" y2="36" x2="288.75"></line><text x="5" y="51" fill="white" class="classText"><tspan x="5">+InsaneCard(_name : string, _description : string, _value : int)</tspan><tspan x="5" dy="10">+effect(sanity : Sanity)</tspan><tspan x="5" dy="10">+hasInsane()</tspan></text></g><g id="classid-SpecifiedCard-4" class="classGroup" transform="translate(462.26171875,269.5 )"><rect x="0" y="0" width="299.875" height="57" class=" "></rect><text y="15" x="0"><tspan class="title" x="116.3125">SpecifiedCard</tspan></text><line x1="0" y1="21" y2="21" x2="299.875"></line><text x="5" y="31" fill="white" class="classText"></text><line x1="0" y1="26" y2="26" x2="299.875"></line><text x="5" y="41" fill="white" class="classText"><tspan x="5">+SpecifiedCard(_name : string, _description : string, _value : int)</tspan><tspan x="5" dy="10">+effect(sanity : Sanity)</tspan></text></g><g id="classid-GameManager-5" class="classGroup" transform="translate(171.8828125,121 )"><rect x="0" y="0" width="152.578125" height="68" class=" "></rect><text y="15" x="0"><tspan class="title" x="41.7734375">GameManager</tspan></text><line x1="0" y1="21" y2="21" x2="152.578125"></line><text x="5" y="31" fill="white" class="classText"><tspan x="5">- roundNumber : int</tspan></text><line x1="0" y1="37" y2="37" x2="152.578125"></line><text x="5" y="52" fill="white" class="classText"><tspan x="5">+GameManager(nbPlayer : int)</tspan><tspan x="5" dy="10">+isGameEnd()</tspan></text></g><g id="classid-Player-6" class="classGroup" transform="translate(80.3046875,239 )"><rect x="0" y="0" width="98.125" height="118" class=" "></rect><text y="15" x="0"><tspan class="title" x="33.9921875">Player</tspan></text><line x1="0" y1="21" y2="21" x2="98.125"></line><text x="5" y="31" fill="white" class="classText"><tspan x="5">- saneToken : int</tspan><tspan x="5" dy="10">- insaneToken : int</tspan></text><line x1="0" y1="47" y2="47" x2="98.125"></line><text x="5" y="62" fill="white" class="classText"><tspan x="5">+updateToken()</tspan><tspan x="5" dy="10">+getHand()</tspan><tspan x="5" dy="10">+getDiscard()</tspan><tspan x="5" dy="10">+getSaneToken()</tspan><tspan x="5" dy="10">+getInsaneToken()</tspan><tspan x="5" dy="10">+roundWon()</tspan></text></g><g id="classid-Application-7" class="classGroup" transform="translate(209.9609375,12 )"><rect x="0" y="0" width="76.421875" height="47" class=" "></rect><text y="15" x="0"><tspan class="title" x="10.984375">Application</tspan></text><line x1="0" y1="21" y2="21" x2="76.421875"></line><text x="5" y="31" fill="white" class="classText"></text><line x1="0" y1="26" y2="26" x2="76.421875"></line><text x="5" y="41" fill="white" class="classText"><tspan x="5">+Application()</tspan></text></g><path d="M129.3671875,555L129.3671875,559.1666666666666C129.3671875,563.3333333333334,129.3671875,571.6666666666666,171.38346354166666,582.6197269279811C213.39973958333334,593.5727871892957,297.4322916666667,607.1455743785914,339.4485677083333,613.9319679732392L381.46484375,620.7183615678871" id="edge0" class="relation dashed-line" marker-start="url(#extensionStart)"></path><path d="M453.109375,519.5L453.109375,529.5833333333334C453.109375,539.6666666666666,453.109375,559.8333333333334,457.6633345636483,574.0833333333334C462.21729412729655,588.3333333333334,471.32521325459317,596.6666666666666,475.87917281824144,600.8333333333334L480.4331323818898,605" id="edge1" class="relation dashed-line" marker-start="url(#extensionStart)"></path><path d="M619.0816824776786,326.5L621.3154645647321,335.75C623.5492466517857,345,628.0168108258928,363.5,630.2505929129464,389.25C632.484375,415,632.484375,448,632.484375,481C632.484375,514,632.484375,547,625.2683214402887,567.6666666666666C618.0522678805775,588.3333333333334,603.6201607611548,596.6666666666666,596.4041072014435,600.8333333333334L589.1880536417323,605" id="edge2" class="relation dashed-line" marker-start="url(#extensionStart)"></path><path d="M558.2223074776786,326.5L540.7034853980655,335.75C523.1846633184524,345,488.14701915922615,363.5,470.6281970796131,382.8333333333333C453.109375,402.1666666666667,453.109375,422.3333333333333,453.109375,432.4166666666667L453.109375,442.5" id="edge3" class="relation dashed-line" marker-start="url(#extensionStart)"></path><path d="M122.34337797619048,357L121.84734623015873,361.1666666666667C121.35131448412699,365.3333333333333,120.3592509920635,373.6666666666667,120.28409466690717,382C120.20893834175085,390.3333333333333,121.05068918350169,398.6666666666667,121.47156460437712,402.8333333333333L121.89244002525253,407" id="edge4" class="relation"></path><g class="classLabel"><rect class="box" x="105.734375" y="370.46875" width="27.265625" height="16.015625"></rect><text class="label" x="119.37010242860688" y="381.9755145997022" fill="red" text-anchor="middle">hand</text></g><g class="cardinality"><text class="type1" x="115.90077548290186" y="368.82128897851123" fill="black" font-size="6">1</text></g><g class="cardinality"><text class="type2" x="125.61089214584165" y="394.06079160740944" fill="black" font-size="6">0..*</text></g><path d="M171.09026227678572,357L174.0368071056548,361.1666666666667C176.98335193452382,365.3333333333333,182.87644159226193,373.6666666666667,183.3228877784542,382C183.76933396464645,390.3333333333333,178.76913667929293,398.6666666666667,176.26903803661617,402.8333333333333L173.76893939393938,407" id="edge5" class="relation"></path><g class="classLabel"><rect class="box" x="169.71875" y="369.890625" width="37.25" height="16.015625"></rect><text class="label" x="188.34674642432512" y="381.40214605830784" fill="red" text-anchor="middle">discard</text></g><g class="cardinality"><text class="type1" x="174.22521615594314" y="370.09282491197206" fill="black" font-size="6">1</text></g><g class="cardinality"><text class="type2" x="184.48774276717225" y="398.8540037904519" fill="black" font-size="6">0..*</text></g><path d="M299.69186970338984,189L306.00559454449154,193.16666666666666C312.31931938559325,197.33333333333334,324.9467690677966,205.66666666666666,331.2604939088983,223.83333333333334C337.57421875,242,337.57421875,270,337.57421875,298C337.57421875,326,337.57421875,354,324.4342447916667,374.2479034164462C311.2942708333333,394.4958068328924,285.0143229166667,406.9916136657849,271.8743489583333,413.2395170822311L258.734375,419.48742049867735" id="edge6" class="relation"></path><g class="classLabel"><rect class="box" x="324.5" y="307.453125" width="27.140625" height="16.015625"></rect><text class="label" x="337.57421875" y="318.95523867446155" fill="red" text-anchor="middle">deck</text></g><g class="cardinality"><text class="type1" x="307.3707541811941" y="200.0582427707361" fill="black" font-size="6">1</text></g><g class="cardinality"><text class="type2" x="272.17028951791417" y="418.6352461812384" fill="black" font-size="6">0..*</text></g><path d="M173.94544491525426,189L164.84906867937855,193.16666666666666C155.75269244350284,197.33333333333334,137.55993997175142,205.66666666666666,128.95959548190746,214C120.3592509920635,222.33333333333334,121.35131448412699,230.66666666666666,121.84734623015873,234.83333333333334L122.34337797619048,239" id="edge7" class="relation"></path><g class="cardinality"><text class="type1" x="160.49871051084347" y="189.6597983458874" fill="black" font-size="6">1</text></g><g class="cardinality"><text class="type2" x="125.83065822485129" y="225.99658212363767" fill="black" font-size="6">2..6</text></g><path d="M213.9400158898305,189L209.74493511652543,193.16666666666666C205.54985434322035,197.33333333333334,197.1596927966102,205.66666666666666,190.01806719443604,214C182.87644159226193,222.33333333333334,176.98335193452382,230.66666666666666,174.0368071056548,234.83333333333334L171.09026227678572,239" id="edge8" class="relation"></path><g class="classLabel"><rect class="box" x="171.3125" y="200.78125" width="38.578125" height="16.015625"></rect><text class="label" x="190.49240555290297" y="212.28879506338882" fill="red" text-anchor="middle">Current</text></g><g class="cardinality"><text class="type1" x="201.54769758664332" y="194.26122106288" fill="black" font-size="6">1</text></g><g class="cardinality"><text class="type2" x="182.38993571477698" y="231.68102601488744" fill="black" font-size="6">1</text></g><path d="M248.171875,59L248.171875,65.16666666666667C248.171875,71.33333333333333,248.171875,83.66666666666667,248.171875,94C248.171875,104.33333333333333,248.171875,112.66666666666667,248.171875,116.83333333333333L248.171875,121" id="edge9" class="relation"></path><g class="cardinality"><text class="type1" x="243.171875" y="71.5" fill="black" font-size="6">1</text></g><g class="cardinality"><text class="type2" x="253.171875" y="108.5" fill="black" font-size="6">1</text></g></svg>